%FSLAX45Y45*%
G04 Gerber Fmt 4.5, Leading zero omitted, Abs format (unit mm)*
G04 Created by KiCad (PCBNEW 5.1.5+dfsg1-2build2) date 2021-12-17 12:35:42*
%MOMM*%
%LPD*%
G04 APERTURE LIST*
%TA.AperFunction,Profile*%
%ADD10C,0.050000*%
%TD*%
%ADD11C,0.200000*%
%ADD12C,0.300000*%
G04 APERTURE END LIST*
D10*
X20828000Y-5842000D02*
X20574000Y-5842000D01*
X21082000Y-6096000D02*
X20828000Y-5842000D01*
X21082000Y-12192000D02*
X21082000Y-6096000D01*
X20828000Y-12446000D02*
X21082000Y-12192000D01*
X20574000Y-12446000D02*
X20828000Y-12446000D01*
X8636000Y-5842000D02*
X9525000Y-5842000D01*
X8382000Y-6096000D02*
X8636000Y-5842000D01*
X8382000Y-12192000D02*
X8382000Y-6096000D01*
X8636000Y-12446000D02*
X8382000Y-12192000D01*
X9525000Y-12446000D02*
X8636000Y-12446000D01*
X9060000Y-6100000D02*
G75*
G03X9060000Y-6100000I-180000J0D01*
G01*
X9060000Y-12200000D02*
G75*
G03X9060000Y-12200000I-180000J0D01*
G01*
X20700000Y-6100000D02*
G75*
G03X20700000Y-6100000I-180000J0D01*
G01*
X20700000Y-12200000D02*
G75*
G03X20700000Y-12200000I-180000J0D01*
G01*
X20574000Y-12446000D02*
X9525000Y-12446000D01*
X9525000Y-5842000D02*
X20574000Y-5842000D01*
D11*
D12*
X8665928Y-12914214D02*
X8665928Y-12614214D01*
X8737357Y-12614214D01*
X8780214Y-12628500D01*
X8808786Y-12657071D01*
X8823071Y-12685643D01*
X8837357Y-12742786D01*
X8837357Y-12785643D01*
X8823071Y-12842786D01*
X8808786Y-12871357D01*
X8780214Y-12899929D01*
X8737357Y-12914214D01*
X8665928Y-12914214D01*
X8965928Y-12914214D02*
X8965928Y-12714214D01*
X8965928Y-12771357D02*
X8980214Y-12742786D01*
X8994500Y-12728500D01*
X9023071Y-12714214D01*
X9051643Y-12714214D01*
X9151643Y-12914214D02*
X9151643Y-12714214D01*
X9151643Y-12614214D02*
X9137357Y-12628500D01*
X9151643Y-12642786D01*
X9165928Y-12628500D01*
X9151643Y-12614214D01*
X9151643Y-12642786D01*
X9337357Y-12914214D02*
X9308786Y-12899929D01*
X9294500Y-12871357D01*
X9294500Y-12614214D01*
X9494500Y-12914214D02*
X9465928Y-12899929D01*
X9451643Y-12871357D01*
X9451643Y-12614214D01*
X9837357Y-12914214D02*
X9837357Y-12614214D01*
X9937357Y-12828500D01*
X10037357Y-12614214D01*
X10037357Y-12914214D01*
X10308786Y-12914214D02*
X10308786Y-12757071D01*
X10294500Y-12728500D01*
X10265928Y-12714214D01*
X10208786Y-12714214D01*
X10180214Y-12728500D01*
X10308786Y-12899929D02*
X10280214Y-12914214D01*
X10208786Y-12914214D01*
X10180214Y-12899929D01*
X10165928Y-12871357D01*
X10165928Y-12842786D01*
X10180214Y-12814214D01*
X10208786Y-12799929D01*
X10280214Y-12799929D01*
X10308786Y-12785643D01*
X10451643Y-12714214D02*
X10451643Y-13014214D01*
X10451643Y-12728500D02*
X10480214Y-12714214D01*
X10537357Y-12714214D01*
X10565928Y-12728500D01*
X10580214Y-12742786D01*
X10594500Y-12771357D01*
X10594500Y-12857071D01*
X10580214Y-12885643D01*
X10565928Y-12899929D01*
X10537357Y-12914214D01*
X10480214Y-12914214D01*
X10451643Y-12899929D01*
X10723071Y-12885643D02*
X10737357Y-12899929D01*
X10723071Y-12914214D01*
X10708786Y-12899929D01*
X10723071Y-12885643D01*
X10723071Y-12914214D01*
X10723071Y-12728500D02*
X10737357Y-12742786D01*
X10723071Y-12757071D01*
X10708786Y-12742786D01*
X10723071Y-12728500D01*
X10723071Y-12757071D01*
M02*
