M48
; DRILL file {KiCad 5.1.5+dfsg1-2build2} date Fri 17 Dec 2021 12:35:23 PM CST
; FORMAT={-:-/ absolute / metric / decimal}
; #@! TF.CreationDate,2021-12-17T12:35:23-06:00
; #@! TF.GenerationSoftware,Kicad,Pcbnew,5.1.5+dfsg1-2build2
; #@! TF.FileFunction,Plated,1,2,PTH
FMAT,2
METRIC
T1C0.400
T2C0.762
T3C0.800
T4C0.900
T5C1.000
T6C1.200
%
G90
G05
T1
X113.03Y-67.31
T2
X130.81Y-72.39
X130.81Y-87.63
X133.35Y-72.39
X133.35Y-87.63
X135.89Y-72.39
X135.89Y-87.63
X138.43Y-72.39
X138.43Y-87.63
X140.97Y-72.39
X140.97Y-87.63
X143.51Y-72.39
X143.51Y-87.63
X146.05Y-72.39
X146.05Y-87.63
X148.59Y-72.39
X148.59Y-87.63
X151.13Y-72.39
X151.13Y-87.63
X153.67Y-72.39
X153.67Y-87.63
X156.21Y-72.39
X156.21Y-87.63
X158.75Y-72.39
X158.75Y-87.63
X161.29Y-72.39
X161.29Y-87.63
X163.83Y-72.39
X163.83Y-87.63
T3
X151.13Y-115.57
X161.29Y-115.57
X193.04Y-115.57
X203.2Y-115.57
X123.19Y-115.57
X133.35Y-115.57
X179.07Y-115.57
X189.23Y-115.57
X194.31Y-95.25
X194.31Y-97.79
X194.31Y-100.33
X194.31Y-102.87
X194.31Y-105.41
X194.31Y-107.95
X194.31Y-110.49
X201.93Y-95.25
X201.93Y-97.79
X201.93Y-100.33
X201.93Y-102.87
X201.93Y-105.41
X201.93Y-107.95
X201.93Y-110.49
X137.16Y-115.57
X147.32Y-115.57
X110.49Y-95.25
X110.49Y-97.79
X110.49Y-100.33
X110.49Y-102.87
X110.49Y-105.41
X110.49Y-107.95
X110.49Y-110.49
X118.11Y-95.25
X118.11Y-97.79
X118.11Y-100.33
X118.11Y-102.87
X118.11Y-105.41
X118.11Y-107.95
X118.11Y-110.49
X166.37Y-95.25
X166.37Y-97.79
X166.37Y-100.33
X166.37Y-102.87
X166.37Y-105.41
X166.37Y-107.95
X166.37Y-110.49
X173.99Y-95.25
X173.99Y-97.79
X173.99Y-100.33
X173.99Y-102.87
X173.99Y-105.41
X173.99Y-107.95
X173.99Y-110.49
X109.22Y-115.57
X119.38Y-115.57
X124.46Y-95.25
X124.46Y-97.79
X124.46Y-100.33
X124.46Y-102.87
X124.46Y-105.41
X124.46Y-107.95
X124.46Y-110.49
X132.08Y-95.25
X132.08Y-97.79
X132.08Y-100.33
X132.08Y-102.87
X132.08Y-105.41
X132.08Y-107.95
X132.08Y-110.49
X180.34Y-95.25
X180.34Y-97.79
X180.34Y-100.33
X180.34Y-102.87
X180.34Y-105.41
X180.34Y-107.95
X180.34Y-110.49
X187.96Y-95.25
X187.96Y-97.79
X187.96Y-100.33
X187.96Y-102.87
X187.96Y-105.41
X187.96Y-107.95
X187.96Y-110.49
X138.43Y-95.25
X138.43Y-97.79
X138.43Y-100.33
X138.43Y-102.87
X138.43Y-105.41
X138.43Y-107.95
X138.43Y-110.49
X146.05Y-95.25
X146.05Y-97.79
X146.05Y-100.33
X146.05Y-102.87
X146.05Y-105.41
X146.05Y-107.95
X146.05Y-110.49
X165.1Y-115.57
X175.26Y-115.57
X152.4Y-95.25
X152.4Y-97.79
X152.4Y-100.33
X152.4Y-102.87
X152.4Y-105.41
X152.4Y-107.95
X152.4Y-110.49
X160.02Y-95.25
X160.02Y-97.79
X160.02Y-100.33
X160.02Y-102.87
X160.02Y-105.41
X160.02Y-107.95
X160.02Y-110.49
T4
X182.88Y-119.38
X185.42Y-119.38
X127.0Y-119.38
X129.54Y-119.38
X162.56Y-66.04
X165.06Y-63.54
X167.56Y-66.04
X140.97Y-119.38
X143.51Y-119.38
X113.03Y-119.38
X115.57Y-119.38
X168.91Y-119.38
X171.45Y-119.38
X196.85Y-119.38
X199.39Y-119.38
X154.94Y-119.38
X157.48Y-119.38
T5
X96.52Y-71.12
X96.52Y-73.66
X96.52Y-76.2
X96.52Y-78.74
X96.52Y-81.28
X96.52Y-83.82
X96.52Y-86.36
X96.52Y-88.9
X96.52Y-91.44
X96.52Y-93.98
X96.52Y-96.52
X96.52Y-99.06
X96.52Y-101.6
X96.52Y-104.14
X96.52Y-106.68
X96.52Y-109.22
X96.52Y-111.76
X96.52Y-114.3
X96.52Y-116.84
X96.52Y-119.38
X99.06Y-71.12
X99.06Y-73.66
X99.06Y-76.2
X99.06Y-78.74
X99.06Y-81.28
X99.06Y-83.82
X99.06Y-86.36
X99.06Y-88.9
X99.06Y-91.44
X99.06Y-93.98
X99.06Y-96.52
X99.06Y-99.06
X99.06Y-101.6
X99.06Y-104.14
X99.06Y-106.68
X99.06Y-109.22
X99.06Y-111.76
X99.06Y-114.3
X99.06Y-116.84
X99.06Y-119.38
X107.95Y-71.12
X107.95Y-73.66
X110.49Y-71.12
X110.49Y-73.66
X113.03Y-71.12
X113.03Y-73.66
X115.57Y-71.12
X115.57Y-73.66
X118.11Y-71.12
X118.11Y-73.66
X120.65Y-71.12
X120.65Y-73.66
T6
X175.26Y-85.09
X177.8Y-85.09
X180.34Y-85.09
X186.69Y-85.09
X189.23Y-85.09
X191.77Y-85.09
X198.12Y-85.09
X200.66Y-85.09
X151.13Y-64.77
X153.67Y-64.77
X156.21Y-64.77
T0
M30
