G04 #@! TF.GenerationSoftware,KiCad,Pcbnew,5.1.5+dfsg1-2build2*
G04 #@! TF.CreationDate,2021-12-17T12:34:58-06:00*
G04 #@! TF.ProjectId,dna-puzzle-electronics,646e612d-7075-47a7-9a6c-652d656c6563,rev?*
G04 #@! TF.SameCoordinates,Original*
G04 #@! TF.FileFunction,Legend,Top*
G04 #@! TF.FilePolarity,Positive*
%FSLAX46Y46*%
G04 Gerber Fmt 4.6, Leading zero omitted, Abs format (unit mm)*
G04 Created by KiCad (PCBNEW 5.1.5+dfsg1-2build2) date 2021-12-17 12:34:58*
%MOMM*%
%LPD*%
G04 APERTURE LIST*
%ADD10C,0.120000*%
%ADD11C,0.150000*%
%ADD12C,1.902000*%
%ADD13R,1.902000X1.902000*%
%ADD14O,1.842000X2.302000*%
%ADD15C,0.100000*%
%ADD16R,1.802000X1.802000*%
%ADD17O,1.802000X1.802000*%
%ADD18C,1.702000*%
%ADD19O,1.702000X1.702000*%
%ADD20C,1.722000*%
%ADD21R,1.702000X1.702000*%
%ADD22C,1.626000*%
G04 APERTURE END LIST*
D10*
X115860000Y-118300000D02*
X115860000Y-118144000D01*
X115860000Y-120616000D02*
X115860000Y-120460000D01*
X113258870Y-118300163D02*
G75*
G02X115340961Y-118300000I1041130J-1079837D01*
G01*
X113258870Y-120459837D02*
G75*
G03X115340961Y-120460000I1041130J1079837D01*
G01*
X112627665Y-118301392D02*
G75*
G02X115860000Y-118144484I1672335J-1078608D01*
G01*
X112627665Y-120458608D02*
G75*
G03X115860000Y-120615516I1672335J1078608D01*
G01*
X126597665Y-120458608D02*
G75*
G03X129830000Y-120615516I1672335J1078608D01*
G01*
X126597665Y-118301392D02*
G75*
G02X129830000Y-118144484I1672335J-1078608D01*
G01*
X127228870Y-120459837D02*
G75*
G03X129310961Y-120460000I1041130J1079837D01*
G01*
X127228870Y-118300163D02*
G75*
G02X129310961Y-118300000I1041130J-1079837D01*
G01*
X129830000Y-120616000D02*
X129830000Y-120460000D01*
X129830000Y-118300000D02*
X129830000Y-118144000D01*
X143800000Y-118300000D02*
X143800000Y-118144000D01*
X143800000Y-120616000D02*
X143800000Y-120460000D01*
X141198870Y-118300163D02*
G75*
G02X143280961Y-118300000I1041130J-1079837D01*
G01*
X141198870Y-120459837D02*
G75*
G03X143280961Y-120460000I1041130J1079837D01*
G01*
X140567665Y-118301392D02*
G75*
G02X143800000Y-118144484I1672335J-1078608D01*
G01*
X140567665Y-120458608D02*
G75*
G03X143800000Y-120615516I1672335J1078608D01*
G01*
X154537665Y-120458608D02*
G75*
G03X157770000Y-120615516I1672335J1078608D01*
G01*
X154537665Y-118301392D02*
G75*
G02X157770000Y-118144484I1672335J-1078608D01*
G01*
X155168870Y-120459837D02*
G75*
G03X157250961Y-120460000I1041130J1079837D01*
G01*
X155168870Y-118300163D02*
G75*
G02X157250961Y-118300000I1041130J-1079837D01*
G01*
X157770000Y-120616000D02*
X157770000Y-120460000D01*
X157770000Y-118300000D02*
X157770000Y-118144000D01*
X171740000Y-118300000D02*
X171740000Y-118144000D01*
X171740000Y-120616000D02*
X171740000Y-120460000D01*
X169138870Y-118300163D02*
G75*
G02X171220961Y-118300000I1041130J-1079837D01*
G01*
X169138870Y-120459837D02*
G75*
G03X171220961Y-120460000I1041130J1079837D01*
G01*
X168507665Y-118301392D02*
G75*
G02X171740000Y-118144484I1672335J-1078608D01*
G01*
X168507665Y-120458608D02*
G75*
G03X171740000Y-120615516I1672335J1078608D01*
G01*
X182477665Y-120458608D02*
G75*
G03X185710000Y-120615516I1672335J1078608D01*
G01*
X182477665Y-118301392D02*
G75*
G02X185710000Y-118144484I1672335J-1078608D01*
G01*
X183108870Y-120459837D02*
G75*
G03X185190961Y-120460000I1041130J1079837D01*
G01*
X183108870Y-118300163D02*
G75*
G02X185190961Y-118300000I1041130J-1079837D01*
G01*
X185710000Y-120616000D02*
X185710000Y-120460000D01*
X185710000Y-118300000D02*
X185710000Y-118144000D01*
X196447665Y-120458608D02*
G75*
G03X199680000Y-120615516I1672335J1078608D01*
G01*
X196447665Y-118301392D02*
G75*
G02X199680000Y-118144484I1672335J-1078608D01*
G01*
X197078870Y-120459837D02*
G75*
G03X199160961Y-120460000I1041130J1079837D01*
G01*
X197078870Y-118300163D02*
G75*
G02X199160961Y-118300000I1041130J-1079837D01*
G01*
X199680000Y-120616000D02*
X199680000Y-120460000D01*
X199680000Y-118300000D02*
X199680000Y-118144000D01*
X192570000Y-82660000D02*
X192570000Y-82060000D01*
X190970000Y-82660000D02*
X192570000Y-82660000D01*
X190970000Y-82060000D02*
X190970000Y-82660000D01*
X190030000Y-82660000D02*
X190030000Y-82060000D01*
X188430000Y-82660000D02*
X190030000Y-82660000D01*
X188430000Y-82060000D02*
X188430000Y-82660000D01*
X187490000Y-82660000D02*
X187490000Y-82060000D01*
X185890000Y-82660000D02*
X187490000Y-82660000D01*
X185890000Y-82060000D02*
X185890000Y-82660000D01*
X191520000Y-88080000D02*
X191520000Y-87080000D01*
X186940000Y-88080000D02*
X186940000Y-87080000D01*
X191520000Y-86550000D02*
X191770000Y-87080000D01*
X186940000Y-86550000D02*
X191520000Y-86550000D01*
X186690000Y-87080000D02*
X186940000Y-86550000D01*
X191770000Y-87080000D02*
X191770000Y-88080000D01*
X186690000Y-87080000D02*
X191770000Y-87080000D01*
X186690000Y-88080000D02*
X186690000Y-87080000D01*
X185020000Y-83090000D02*
X185020000Y-87090000D01*
X193150000Y-82060000D02*
X185310000Y-82060000D01*
X193150000Y-88080000D02*
X193150000Y-82060000D01*
X185310000Y-88080000D02*
X193150000Y-88080000D01*
X185310000Y-82060000D02*
X185310000Y-88080000D01*
X173880000Y-82060000D02*
X173880000Y-88080000D01*
X173880000Y-88080000D02*
X181720000Y-88080000D01*
X181720000Y-88080000D02*
X181720000Y-82060000D01*
X181720000Y-82060000D02*
X173880000Y-82060000D01*
X173590000Y-83090000D02*
X173590000Y-87090000D01*
X175260000Y-88080000D02*
X175260000Y-87080000D01*
X175260000Y-87080000D02*
X180340000Y-87080000D01*
X180340000Y-87080000D02*
X180340000Y-88080000D01*
X175260000Y-87080000D02*
X175510000Y-86550000D01*
X175510000Y-86550000D02*
X180090000Y-86550000D01*
X180090000Y-86550000D02*
X180340000Y-87080000D01*
X175510000Y-88080000D02*
X175510000Y-87080000D01*
X180090000Y-88080000D02*
X180090000Y-87080000D01*
X174460000Y-82060000D02*
X174460000Y-82660000D01*
X174460000Y-82660000D02*
X176060000Y-82660000D01*
X176060000Y-82660000D02*
X176060000Y-82060000D01*
X177000000Y-82060000D02*
X177000000Y-82660000D01*
X177000000Y-82660000D02*
X178600000Y-82660000D01*
X178600000Y-82660000D02*
X178600000Y-82060000D01*
X179540000Y-82060000D02*
X179540000Y-82660000D01*
X179540000Y-82660000D02*
X181140000Y-82660000D01*
X181140000Y-82660000D02*
X181140000Y-82060000D01*
X196740000Y-82060000D02*
X196740000Y-88080000D01*
X196740000Y-88080000D02*
X202040000Y-88080000D01*
X202040000Y-88080000D02*
X202040000Y-82060000D01*
X202040000Y-82060000D02*
X196740000Y-82060000D01*
X196450000Y-83090000D02*
X196450000Y-87090000D01*
X198120000Y-88080000D02*
X198120000Y-87080000D01*
X198120000Y-87080000D02*
X200660000Y-87080000D01*
X200660000Y-87080000D02*
X200660000Y-88080000D01*
X198120000Y-87080000D02*
X198370000Y-86550000D01*
X198370000Y-86550000D02*
X200410000Y-86550000D01*
X200410000Y-86550000D02*
X200660000Y-87080000D01*
X198370000Y-88080000D02*
X198370000Y-87080000D01*
X200410000Y-88080000D02*
X200410000Y-87080000D01*
X197320000Y-82060000D02*
X197320000Y-82660000D01*
X197320000Y-82660000D02*
X198920000Y-82660000D01*
X198920000Y-82660000D02*
X198920000Y-82060000D01*
X199860000Y-82060000D02*
X199860000Y-82660000D01*
X199860000Y-82660000D02*
X201460000Y-82660000D01*
X201460000Y-82660000D02*
X201460000Y-82060000D01*
X95190000Y-120710000D02*
X100390000Y-120710000D01*
X95190000Y-72390000D02*
X95190000Y-120710000D01*
X100390000Y-69790000D02*
X100390000Y-120710000D01*
X95190000Y-72390000D02*
X97790000Y-72390000D01*
X97790000Y-72390000D02*
X97790000Y-69790000D01*
X97790000Y-69790000D02*
X100390000Y-69790000D01*
X95190000Y-71120000D02*
X95190000Y-69790000D01*
X95190000Y-69790000D02*
X96520000Y-69790000D01*
X106620000Y-69790000D02*
X106620000Y-74990000D01*
X119380000Y-69790000D02*
X106620000Y-69790000D01*
X121980000Y-74990000D02*
X106620000Y-74990000D01*
X119380000Y-69790000D02*
X119380000Y-72390000D01*
X119380000Y-72390000D02*
X121980000Y-72390000D01*
X121980000Y-72390000D02*
X121980000Y-74990000D01*
X120650000Y-69790000D02*
X121980000Y-69790000D01*
X121980000Y-69790000D02*
X121980000Y-71120000D01*
X157590000Y-67800000D02*
X157590000Y-61780000D01*
X157590000Y-61780000D02*
X149750000Y-61780000D01*
X149750000Y-61780000D02*
X149750000Y-67800000D01*
X149750000Y-67800000D02*
X157590000Y-67800000D01*
X157880000Y-66770000D02*
X157880000Y-62770000D01*
X156210000Y-61780000D02*
X156210000Y-62780000D01*
X156210000Y-62780000D02*
X151130000Y-62780000D01*
X151130000Y-62780000D02*
X151130000Y-61780000D01*
X156210000Y-62780000D02*
X155960000Y-63310000D01*
X155960000Y-63310000D02*
X151380000Y-63310000D01*
X151380000Y-63310000D02*
X151130000Y-62780000D01*
X155960000Y-61780000D02*
X155960000Y-62780000D01*
X151380000Y-61780000D02*
X151380000Y-62780000D01*
X157010000Y-67800000D02*
X157010000Y-67200000D01*
X157010000Y-67200000D02*
X155410000Y-67200000D01*
X155410000Y-67200000D02*
X155410000Y-67800000D01*
X154470000Y-67800000D02*
X154470000Y-67200000D01*
X154470000Y-67200000D02*
X152870000Y-67200000D01*
X152870000Y-67200000D02*
X152870000Y-67800000D01*
X151930000Y-67800000D02*
X151930000Y-67200000D01*
X151930000Y-67200000D02*
X150330000Y-67200000D01*
X150330000Y-67200000D02*
X150330000Y-67800000D01*
X111030000Y-114200000D02*
X111030000Y-116940000D01*
X111030000Y-116940000D02*
X117570000Y-116940000D01*
X117570000Y-116940000D02*
X117570000Y-114200000D01*
X117570000Y-114200000D02*
X111030000Y-114200000D01*
X110260000Y-115570000D02*
X111030000Y-115570000D01*
X118340000Y-115570000D02*
X117570000Y-115570000D01*
X125000000Y-114200000D02*
X125000000Y-116940000D01*
X125000000Y-116940000D02*
X131540000Y-116940000D01*
X131540000Y-116940000D02*
X131540000Y-114200000D01*
X131540000Y-114200000D02*
X125000000Y-114200000D01*
X124230000Y-115570000D02*
X125000000Y-115570000D01*
X132310000Y-115570000D02*
X131540000Y-115570000D01*
X138970000Y-114200000D02*
X138970000Y-116940000D01*
X138970000Y-116940000D02*
X145510000Y-116940000D01*
X145510000Y-116940000D02*
X145510000Y-114200000D01*
X145510000Y-114200000D02*
X138970000Y-114200000D01*
X138200000Y-115570000D02*
X138970000Y-115570000D01*
X146280000Y-115570000D02*
X145510000Y-115570000D01*
X160250000Y-115570000D02*
X159480000Y-115570000D01*
X152170000Y-115570000D02*
X152940000Y-115570000D01*
X159480000Y-114200000D02*
X152940000Y-114200000D01*
X159480000Y-116940000D02*
X159480000Y-114200000D01*
X152940000Y-116940000D02*
X159480000Y-116940000D01*
X152940000Y-114200000D02*
X152940000Y-116940000D01*
X174220000Y-115570000D02*
X173450000Y-115570000D01*
X166140000Y-115570000D02*
X166910000Y-115570000D01*
X173450000Y-114200000D02*
X166910000Y-114200000D01*
X173450000Y-116940000D02*
X173450000Y-114200000D01*
X166910000Y-116940000D02*
X173450000Y-116940000D01*
X166910000Y-114200000D02*
X166910000Y-116940000D01*
X188190000Y-115570000D02*
X187420000Y-115570000D01*
X180110000Y-115570000D02*
X180880000Y-115570000D01*
X187420000Y-114200000D02*
X180880000Y-114200000D01*
X187420000Y-116940000D02*
X187420000Y-114200000D01*
X180880000Y-116940000D02*
X187420000Y-116940000D01*
X180880000Y-114200000D02*
X180880000Y-116940000D01*
X194850000Y-114200000D02*
X194850000Y-116940000D01*
X194850000Y-116940000D02*
X201390000Y-116940000D01*
X201390000Y-116940000D02*
X201390000Y-114200000D01*
X201390000Y-114200000D02*
X194850000Y-114200000D01*
X194080000Y-115570000D02*
X194850000Y-115570000D01*
X202160000Y-115570000D02*
X201390000Y-115570000D01*
X161790000Y-65115000D02*
X161790000Y-62420000D01*
X168330000Y-65115000D02*
X168330000Y-62420000D01*
X161790000Y-62420000D02*
X168330000Y-62420000D01*
X163626000Y-66161000D02*
X166495000Y-66161000D01*
X163940000Y-66161000D02*
X163940000Y-62420000D01*
X166180000Y-66161000D02*
X166180000Y-62420000D01*
X163940000Y-66161000D02*
X166180000Y-66161000D01*
X163940000Y-62420000D02*
X166180000Y-62420000D01*
X115300000Y-93920000D02*
G75*
G02X113300000Y-93920000I-1000000J0D01*
G01*
X113300000Y-93920000D02*
X111650000Y-93920000D01*
X111650000Y-93920000D02*
X111650000Y-111820000D01*
X111650000Y-111820000D02*
X116950000Y-111820000D01*
X116950000Y-111820000D02*
X116950000Y-93920000D01*
X116950000Y-93920000D02*
X115300000Y-93920000D01*
X130920000Y-93920000D02*
X129270000Y-93920000D01*
X130920000Y-111820000D02*
X130920000Y-93920000D01*
X125620000Y-111820000D02*
X130920000Y-111820000D01*
X125620000Y-93920000D02*
X125620000Y-111820000D01*
X127270000Y-93920000D02*
X125620000Y-93920000D01*
X129270000Y-93920000D02*
G75*
G02X127270000Y-93920000I-1000000J0D01*
G01*
X143240000Y-93920000D02*
G75*
G02X141240000Y-93920000I-1000000J0D01*
G01*
X141240000Y-93920000D02*
X139590000Y-93920000D01*
X139590000Y-93920000D02*
X139590000Y-111820000D01*
X139590000Y-111820000D02*
X144890000Y-111820000D01*
X144890000Y-111820000D02*
X144890000Y-93920000D01*
X144890000Y-93920000D02*
X143240000Y-93920000D01*
X158860000Y-93920000D02*
X157210000Y-93920000D01*
X158860000Y-111820000D02*
X158860000Y-93920000D01*
X153560000Y-111820000D02*
X158860000Y-111820000D01*
X153560000Y-93920000D02*
X153560000Y-111820000D01*
X155210000Y-93920000D02*
X153560000Y-93920000D01*
X157210000Y-93920000D02*
G75*
G02X155210000Y-93920000I-1000000J0D01*
G01*
X171180000Y-93920000D02*
G75*
G02X169180000Y-93920000I-1000000J0D01*
G01*
X169180000Y-93920000D02*
X167530000Y-93920000D01*
X167530000Y-93920000D02*
X167530000Y-111820000D01*
X167530000Y-111820000D02*
X172830000Y-111820000D01*
X172830000Y-111820000D02*
X172830000Y-93920000D01*
X172830000Y-93920000D02*
X171180000Y-93920000D01*
X185150000Y-93920000D02*
G75*
G02X183150000Y-93920000I-1000000J0D01*
G01*
X183150000Y-93920000D02*
X181500000Y-93920000D01*
X181500000Y-93920000D02*
X181500000Y-111820000D01*
X181500000Y-111820000D02*
X186800000Y-111820000D01*
X186800000Y-111820000D02*
X186800000Y-93920000D01*
X186800000Y-93920000D02*
X185150000Y-93920000D01*
X200770000Y-93920000D02*
X199120000Y-93920000D01*
X200770000Y-111820000D02*
X200770000Y-93920000D01*
X195470000Y-111820000D02*
X200770000Y-111820000D01*
X195470000Y-93920000D02*
X195470000Y-111820000D01*
X197120000Y-93920000D02*
X195470000Y-93920000D01*
X199120000Y-93920000D02*
G75*
G02X197120000Y-93920000I-1000000J0D01*
G01*
X168910000Y-88900000D02*
X168910000Y-71120000D01*
X168910000Y-71120000D02*
X125730000Y-71120000D01*
X125730000Y-71120000D02*
X125730000Y-88900000D01*
X125730000Y-88900000D02*
X168910000Y-88900000D01*
D11*
X113561904Y-122792380D02*
X113561904Y-121792380D01*
X113800000Y-121792380D01*
X113942857Y-121840000D01*
X114038095Y-121935238D01*
X114085714Y-122030476D01*
X114133333Y-122220952D01*
X114133333Y-122363809D01*
X114085714Y-122554285D01*
X114038095Y-122649523D01*
X113942857Y-122744761D01*
X113800000Y-122792380D01*
X113561904Y-122792380D01*
X115085714Y-122792380D02*
X114514285Y-122792380D01*
X114800000Y-122792380D02*
X114800000Y-121792380D01*
X114704761Y-121935238D01*
X114609523Y-122030476D01*
X114514285Y-122078095D01*
X127531904Y-122792380D02*
X127531904Y-121792380D01*
X127770000Y-121792380D01*
X127912857Y-121840000D01*
X128008095Y-121935238D01*
X128055714Y-122030476D01*
X128103333Y-122220952D01*
X128103333Y-122363809D01*
X128055714Y-122554285D01*
X128008095Y-122649523D01*
X127912857Y-122744761D01*
X127770000Y-122792380D01*
X127531904Y-122792380D01*
X128484285Y-121887619D02*
X128531904Y-121840000D01*
X128627142Y-121792380D01*
X128865238Y-121792380D01*
X128960476Y-121840000D01*
X129008095Y-121887619D01*
X129055714Y-121982857D01*
X129055714Y-122078095D01*
X129008095Y-122220952D01*
X128436666Y-122792380D01*
X129055714Y-122792380D01*
X141501904Y-122792380D02*
X141501904Y-121792380D01*
X141740000Y-121792380D01*
X141882857Y-121840000D01*
X141978095Y-121935238D01*
X142025714Y-122030476D01*
X142073333Y-122220952D01*
X142073333Y-122363809D01*
X142025714Y-122554285D01*
X141978095Y-122649523D01*
X141882857Y-122744761D01*
X141740000Y-122792380D01*
X141501904Y-122792380D01*
X142406666Y-121792380D02*
X143025714Y-121792380D01*
X142692380Y-122173333D01*
X142835238Y-122173333D01*
X142930476Y-122220952D01*
X142978095Y-122268571D01*
X143025714Y-122363809D01*
X143025714Y-122601904D01*
X142978095Y-122697142D01*
X142930476Y-122744761D01*
X142835238Y-122792380D01*
X142549523Y-122792380D01*
X142454285Y-122744761D01*
X142406666Y-122697142D01*
X155471904Y-122792380D02*
X155471904Y-121792380D01*
X155710000Y-121792380D01*
X155852857Y-121840000D01*
X155948095Y-121935238D01*
X155995714Y-122030476D01*
X156043333Y-122220952D01*
X156043333Y-122363809D01*
X155995714Y-122554285D01*
X155948095Y-122649523D01*
X155852857Y-122744761D01*
X155710000Y-122792380D01*
X155471904Y-122792380D01*
X156900476Y-122125714D02*
X156900476Y-122792380D01*
X156662380Y-121744761D02*
X156424285Y-122459047D01*
X157043333Y-122459047D01*
X169441904Y-122792380D02*
X169441904Y-121792380D01*
X169680000Y-121792380D01*
X169822857Y-121840000D01*
X169918095Y-121935238D01*
X169965714Y-122030476D01*
X170013333Y-122220952D01*
X170013333Y-122363809D01*
X169965714Y-122554285D01*
X169918095Y-122649523D01*
X169822857Y-122744761D01*
X169680000Y-122792380D01*
X169441904Y-122792380D01*
X170918095Y-121792380D02*
X170441904Y-121792380D01*
X170394285Y-122268571D01*
X170441904Y-122220952D01*
X170537142Y-122173333D01*
X170775238Y-122173333D01*
X170870476Y-122220952D01*
X170918095Y-122268571D01*
X170965714Y-122363809D01*
X170965714Y-122601904D01*
X170918095Y-122697142D01*
X170870476Y-122744761D01*
X170775238Y-122792380D01*
X170537142Y-122792380D01*
X170441904Y-122744761D01*
X170394285Y-122697142D01*
X183411904Y-122792380D02*
X183411904Y-121792380D01*
X183650000Y-121792380D01*
X183792857Y-121840000D01*
X183888095Y-121935238D01*
X183935714Y-122030476D01*
X183983333Y-122220952D01*
X183983333Y-122363809D01*
X183935714Y-122554285D01*
X183888095Y-122649523D01*
X183792857Y-122744761D01*
X183650000Y-122792380D01*
X183411904Y-122792380D01*
X184840476Y-121792380D02*
X184650000Y-121792380D01*
X184554761Y-121840000D01*
X184507142Y-121887619D01*
X184411904Y-122030476D01*
X184364285Y-122220952D01*
X184364285Y-122601904D01*
X184411904Y-122697142D01*
X184459523Y-122744761D01*
X184554761Y-122792380D01*
X184745238Y-122792380D01*
X184840476Y-122744761D01*
X184888095Y-122697142D01*
X184935714Y-122601904D01*
X184935714Y-122363809D01*
X184888095Y-122268571D01*
X184840476Y-122220952D01*
X184745238Y-122173333D01*
X184554761Y-122173333D01*
X184459523Y-122220952D01*
X184411904Y-122268571D01*
X184364285Y-122363809D01*
X197381904Y-122792380D02*
X197381904Y-121792380D01*
X197620000Y-121792380D01*
X197762857Y-121840000D01*
X197858095Y-121935238D01*
X197905714Y-122030476D01*
X197953333Y-122220952D01*
X197953333Y-122363809D01*
X197905714Y-122554285D01*
X197858095Y-122649523D01*
X197762857Y-122744761D01*
X197620000Y-122792380D01*
X197381904Y-122792380D01*
X198286666Y-121792380D02*
X198953333Y-121792380D01*
X198524761Y-122792380D01*
X188896666Y-80422380D02*
X188896666Y-81136666D01*
X188849047Y-81279523D01*
X188753809Y-81374761D01*
X188610952Y-81422380D01*
X188515714Y-81422380D01*
X189896666Y-81422380D02*
X189325238Y-81422380D01*
X189610952Y-81422380D02*
X189610952Y-80422380D01*
X189515714Y-80565238D01*
X189420476Y-80660476D01*
X189325238Y-80708095D01*
X177466666Y-80422380D02*
X177466666Y-81136666D01*
X177419047Y-81279523D01*
X177323809Y-81374761D01*
X177180952Y-81422380D01*
X177085714Y-81422380D01*
X177895238Y-80517619D02*
X177942857Y-80470000D01*
X178038095Y-80422380D01*
X178276190Y-80422380D01*
X178371428Y-80470000D01*
X178419047Y-80517619D01*
X178466666Y-80612857D01*
X178466666Y-80708095D01*
X178419047Y-80850952D01*
X177847619Y-81422380D01*
X178466666Y-81422380D01*
X199056666Y-80422380D02*
X199056666Y-81136666D01*
X199009047Y-81279523D01*
X198913809Y-81374761D01*
X198770952Y-81422380D01*
X198675714Y-81422380D01*
X199437619Y-80422380D02*
X200056666Y-80422380D01*
X199723333Y-80803333D01*
X199866190Y-80803333D01*
X199961428Y-80850952D01*
X200009047Y-80898571D01*
X200056666Y-80993809D01*
X200056666Y-81231904D01*
X200009047Y-81327142D01*
X199961428Y-81374761D01*
X199866190Y-81422380D01*
X199580476Y-81422380D01*
X199485238Y-81374761D01*
X199437619Y-81327142D01*
X97456666Y-68242380D02*
X97456666Y-68956666D01*
X97409047Y-69099523D01*
X97313809Y-69194761D01*
X97170952Y-69242380D01*
X97075714Y-69242380D01*
X98361428Y-68575714D02*
X98361428Y-69242380D01*
X98123333Y-68194761D02*
X97885238Y-68909047D01*
X98504285Y-68909047D01*
X122432380Y-72723333D02*
X123146666Y-72723333D01*
X123289523Y-72770952D01*
X123384761Y-72866190D01*
X123432380Y-73009047D01*
X123432380Y-73104285D01*
X122432380Y-71770952D02*
X122432380Y-72247142D01*
X122908571Y-72294761D01*
X122860952Y-72247142D01*
X122813333Y-72151904D01*
X122813333Y-71913809D01*
X122860952Y-71818571D01*
X122908571Y-71770952D01*
X123003809Y-71723333D01*
X123241904Y-71723333D01*
X123337142Y-71770952D01*
X123384761Y-71818571D01*
X123432380Y-71913809D01*
X123432380Y-72151904D01*
X123384761Y-72247142D01*
X123337142Y-72294761D01*
X153336666Y-68342380D02*
X153336666Y-69056666D01*
X153289047Y-69199523D01*
X153193809Y-69294761D01*
X153050952Y-69342380D01*
X152955714Y-69342380D01*
X154241428Y-68342380D02*
X154050952Y-68342380D01*
X153955714Y-68390000D01*
X153908095Y-68437619D01*
X153812857Y-68580476D01*
X153765238Y-68770952D01*
X153765238Y-69151904D01*
X153812857Y-69247142D01*
X153860476Y-69294761D01*
X153955714Y-69342380D01*
X154146190Y-69342380D01*
X154241428Y-69294761D01*
X154289047Y-69247142D01*
X154336666Y-69151904D01*
X154336666Y-68913809D01*
X154289047Y-68818571D01*
X154241428Y-68770952D01*
X154146190Y-68723333D01*
X153955714Y-68723333D01*
X153860476Y-68770952D01*
X153812857Y-68818571D01*
X153765238Y-68913809D01*
X114133333Y-113652380D02*
X113800000Y-113176190D01*
X113561904Y-113652380D02*
X113561904Y-112652380D01*
X113942857Y-112652380D01*
X114038095Y-112700000D01*
X114085714Y-112747619D01*
X114133333Y-112842857D01*
X114133333Y-112985714D01*
X114085714Y-113080952D01*
X114038095Y-113128571D01*
X113942857Y-113176190D01*
X113561904Y-113176190D01*
X115085714Y-113652380D02*
X114514285Y-113652380D01*
X114800000Y-113652380D02*
X114800000Y-112652380D01*
X114704761Y-112795238D01*
X114609523Y-112890476D01*
X114514285Y-112938095D01*
X128103333Y-113652380D02*
X127770000Y-113176190D01*
X127531904Y-113652380D02*
X127531904Y-112652380D01*
X127912857Y-112652380D01*
X128008095Y-112700000D01*
X128055714Y-112747619D01*
X128103333Y-112842857D01*
X128103333Y-112985714D01*
X128055714Y-113080952D01*
X128008095Y-113128571D01*
X127912857Y-113176190D01*
X127531904Y-113176190D01*
X128484285Y-112747619D02*
X128531904Y-112700000D01*
X128627142Y-112652380D01*
X128865238Y-112652380D01*
X128960476Y-112700000D01*
X129008095Y-112747619D01*
X129055714Y-112842857D01*
X129055714Y-112938095D01*
X129008095Y-113080952D01*
X128436666Y-113652380D01*
X129055714Y-113652380D01*
X142073333Y-113652380D02*
X141740000Y-113176190D01*
X141501904Y-113652380D02*
X141501904Y-112652380D01*
X141882857Y-112652380D01*
X141978095Y-112700000D01*
X142025714Y-112747619D01*
X142073333Y-112842857D01*
X142073333Y-112985714D01*
X142025714Y-113080952D01*
X141978095Y-113128571D01*
X141882857Y-113176190D01*
X141501904Y-113176190D01*
X142406666Y-112652380D02*
X143025714Y-112652380D01*
X142692380Y-113033333D01*
X142835238Y-113033333D01*
X142930476Y-113080952D01*
X142978095Y-113128571D01*
X143025714Y-113223809D01*
X143025714Y-113461904D01*
X142978095Y-113557142D01*
X142930476Y-113604761D01*
X142835238Y-113652380D01*
X142549523Y-113652380D01*
X142454285Y-113604761D01*
X142406666Y-113557142D01*
X156043333Y-113652380D02*
X155710000Y-113176190D01*
X155471904Y-113652380D02*
X155471904Y-112652380D01*
X155852857Y-112652380D01*
X155948095Y-112700000D01*
X155995714Y-112747619D01*
X156043333Y-112842857D01*
X156043333Y-112985714D01*
X155995714Y-113080952D01*
X155948095Y-113128571D01*
X155852857Y-113176190D01*
X155471904Y-113176190D01*
X156900476Y-112985714D02*
X156900476Y-113652380D01*
X156662380Y-112604761D02*
X156424285Y-113319047D01*
X157043333Y-113319047D01*
X170013333Y-113652380D02*
X169680000Y-113176190D01*
X169441904Y-113652380D02*
X169441904Y-112652380D01*
X169822857Y-112652380D01*
X169918095Y-112700000D01*
X169965714Y-112747619D01*
X170013333Y-112842857D01*
X170013333Y-112985714D01*
X169965714Y-113080952D01*
X169918095Y-113128571D01*
X169822857Y-113176190D01*
X169441904Y-113176190D01*
X170918095Y-112652380D02*
X170441904Y-112652380D01*
X170394285Y-113128571D01*
X170441904Y-113080952D01*
X170537142Y-113033333D01*
X170775238Y-113033333D01*
X170870476Y-113080952D01*
X170918095Y-113128571D01*
X170965714Y-113223809D01*
X170965714Y-113461904D01*
X170918095Y-113557142D01*
X170870476Y-113604761D01*
X170775238Y-113652380D01*
X170537142Y-113652380D01*
X170441904Y-113604761D01*
X170394285Y-113557142D01*
X183983333Y-113652380D02*
X183650000Y-113176190D01*
X183411904Y-113652380D02*
X183411904Y-112652380D01*
X183792857Y-112652380D01*
X183888095Y-112700000D01*
X183935714Y-112747619D01*
X183983333Y-112842857D01*
X183983333Y-112985714D01*
X183935714Y-113080952D01*
X183888095Y-113128571D01*
X183792857Y-113176190D01*
X183411904Y-113176190D01*
X184840476Y-112652380D02*
X184650000Y-112652380D01*
X184554761Y-112700000D01*
X184507142Y-112747619D01*
X184411904Y-112890476D01*
X184364285Y-113080952D01*
X184364285Y-113461904D01*
X184411904Y-113557142D01*
X184459523Y-113604761D01*
X184554761Y-113652380D01*
X184745238Y-113652380D01*
X184840476Y-113604761D01*
X184888095Y-113557142D01*
X184935714Y-113461904D01*
X184935714Y-113223809D01*
X184888095Y-113128571D01*
X184840476Y-113080952D01*
X184745238Y-113033333D01*
X184554761Y-113033333D01*
X184459523Y-113080952D01*
X184411904Y-113128571D01*
X184364285Y-113223809D01*
X197953333Y-113652380D02*
X197620000Y-113176190D01*
X197381904Y-113652380D02*
X197381904Y-112652380D01*
X197762857Y-112652380D01*
X197858095Y-112700000D01*
X197905714Y-112747619D01*
X197953333Y-112842857D01*
X197953333Y-112985714D01*
X197905714Y-113080952D01*
X197858095Y-113128571D01*
X197762857Y-113176190D01*
X197381904Y-113176190D01*
X198286666Y-112652380D02*
X198953333Y-112652380D01*
X198524761Y-113652380D01*
X160952380Y-66635238D02*
X160476190Y-66968571D01*
X160952380Y-67206666D02*
X159952380Y-67206666D01*
X159952380Y-66825714D01*
X160000000Y-66730476D01*
X160047619Y-66682857D01*
X160142857Y-66635238D01*
X160285714Y-66635238D01*
X160380952Y-66682857D01*
X160428571Y-66730476D01*
X160476190Y-66825714D01*
X160476190Y-67206666D01*
X159952380Y-66349523D02*
X160952380Y-66016190D01*
X159952380Y-65682857D01*
X160952380Y-64825714D02*
X160952380Y-65397142D01*
X160952380Y-65111428D02*
X159952380Y-65111428D01*
X160095238Y-65206666D01*
X160190476Y-65301904D01*
X160238095Y-65397142D01*
X113538095Y-92372380D02*
X113538095Y-93181904D01*
X113585714Y-93277142D01*
X113633333Y-93324761D01*
X113728571Y-93372380D01*
X113919047Y-93372380D01*
X114014285Y-93324761D01*
X114061904Y-93277142D01*
X114109523Y-93181904D01*
X114109523Y-92372380D01*
X115109523Y-93372380D02*
X114538095Y-93372380D01*
X114823809Y-93372380D02*
X114823809Y-92372380D01*
X114728571Y-92515238D01*
X114633333Y-92610476D01*
X114538095Y-92658095D01*
X127508095Y-92372380D02*
X127508095Y-93181904D01*
X127555714Y-93277142D01*
X127603333Y-93324761D01*
X127698571Y-93372380D01*
X127889047Y-93372380D01*
X127984285Y-93324761D01*
X128031904Y-93277142D01*
X128079523Y-93181904D01*
X128079523Y-92372380D01*
X128508095Y-92467619D02*
X128555714Y-92420000D01*
X128650952Y-92372380D01*
X128889047Y-92372380D01*
X128984285Y-92420000D01*
X129031904Y-92467619D01*
X129079523Y-92562857D01*
X129079523Y-92658095D01*
X129031904Y-92800952D01*
X128460476Y-93372380D01*
X129079523Y-93372380D01*
X141478095Y-92372380D02*
X141478095Y-93181904D01*
X141525714Y-93277142D01*
X141573333Y-93324761D01*
X141668571Y-93372380D01*
X141859047Y-93372380D01*
X141954285Y-93324761D01*
X142001904Y-93277142D01*
X142049523Y-93181904D01*
X142049523Y-92372380D01*
X142430476Y-92372380D02*
X143049523Y-92372380D01*
X142716190Y-92753333D01*
X142859047Y-92753333D01*
X142954285Y-92800952D01*
X143001904Y-92848571D01*
X143049523Y-92943809D01*
X143049523Y-93181904D01*
X143001904Y-93277142D01*
X142954285Y-93324761D01*
X142859047Y-93372380D01*
X142573333Y-93372380D01*
X142478095Y-93324761D01*
X142430476Y-93277142D01*
X155448095Y-92372380D02*
X155448095Y-93181904D01*
X155495714Y-93277142D01*
X155543333Y-93324761D01*
X155638571Y-93372380D01*
X155829047Y-93372380D01*
X155924285Y-93324761D01*
X155971904Y-93277142D01*
X156019523Y-93181904D01*
X156019523Y-92372380D01*
X156924285Y-92705714D02*
X156924285Y-93372380D01*
X156686190Y-92324761D02*
X156448095Y-93039047D01*
X157067142Y-93039047D01*
X169418095Y-92372380D02*
X169418095Y-93181904D01*
X169465714Y-93277142D01*
X169513333Y-93324761D01*
X169608571Y-93372380D01*
X169799047Y-93372380D01*
X169894285Y-93324761D01*
X169941904Y-93277142D01*
X169989523Y-93181904D01*
X169989523Y-92372380D01*
X170941904Y-92372380D02*
X170465714Y-92372380D01*
X170418095Y-92848571D01*
X170465714Y-92800952D01*
X170560952Y-92753333D01*
X170799047Y-92753333D01*
X170894285Y-92800952D01*
X170941904Y-92848571D01*
X170989523Y-92943809D01*
X170989523Y-93181904D01*
X170941904Y-93277142D01*
X170894285Y-93324761D01*
X170799047Y-93372380D01*
X170560952Y-93372380D01*
X170465714Y-93324761D01*
X170418095Y-93277142D01*
X183388095Y-92372380D02*
X183388095Y-93181904D01*
X183435714Y-93277142D01*
X183483333Y-93324761D01*
X183578571Y-93372380D01*
X183769047Y-93372380D01*
X183864285Y-93324761D01*
X183911904Y-93277142D01*
X183959523Y-93181904D01*
X183959523Y-92372380D01*
X184864285Y-92372380D02*
X184673809Y-92372380D01*
X184578571Y-92420000D01*
X184530952Y-92467619D01*
X184435714Y-92610476D01*
X184388095Y-92800952D01*
X184388095Y-93181904D01*
X184435714Y-93277142D01*
X184483333Y-93324761D01*
X184578571Y-93372380D01*
X184769047Y-93372380D01*
X184864285Y-93324761D01*
X184911904Y-93277142D01*
X184959523Y-93181904D01*
X184959523Y-92943809D01*
X184911904Y-92848571D01*
X184864285Y-92800952D01*
X184769047Y-92753333D01*
X184578571Y-92753333D01*
X184483333Y-92800952D01*
X184435714Y-92848571D01*
X184388095Y-92943809D01*
X197358095Y-92372380D02*
X197358095Y-93181904D01*
X197405714Y-93277142D01*
X197453333Y-93324761D01*
X197548571Y-93372380D01*
X197739047Y-93372380D01*
X197834285Y-93324761D01*
X197881904Y-93277142D01*
X197929523Y-93181904D01*
X197929523Y-92372380D01*
X198310476Y-92372380D02*
X198977142Y-92372380D01*
X198548571Y-93372380D01*
X130762380Y-88391904D02*
X131571904Y-88391904D01*
X131667142Y-88344285D01*
X131714761Y-88296666D01*
X131762380Y-88201428D01*
X131762380Y-88010952D01*
X131714761Y-87915714D01*
X131667142Y-87868095D01*
X131571904Y-87820476D01*
X130762380Y-87820476D01*
X131190952Y-87201428D02*
X131143333Y-87296666D01*
X131095714Y-87344285D01*
X131000476Y-87391904D01*
X130952857Y-87391904D01*
X130857619Y-87344285D01*
X130810000Y-87296666D01*
X130762380Y-87201428D01*
X130762380Y-87010952D01*
X130810000Y-86915714D01*
X130857619Y-86868095D01*
X130952857Y-86820476D01*
X131000476Y-86820476D01*
X131095714Y-86868095D01*
X131143333Y-86915714D01*
X131190952Y-87010952D01*
X131190952Y-87201428D01*
X131238571Y-87296666D01*
X131286190Y-87344285D01*
X131381428Y-87391904D01*
X131571904Y-87391904D01*
X131667142Y-87344285D01*
X131714761Y-87296666D01*
X131762380Y-87201428D01*
X131762380Y-87010952D01*
X131714761Y-86915714D01*
X131667142Y-86868095D01*
X131571904Y-86820476D01*
X131381428Y-86820476D01*
X131286190Y-86868095D01*
X131238571Y-86915714D01*
X131190952Y-87010952D01*
%LPC*%
D12*
X113030000Y-119380000D03*
D13*
X115570000Y-119380000D03*
X129540000Y-119380000D03*
D12*
X127000000Y-119380000D03*
X140970000Y-119380000D03*
D13*
X143510000Y-119380000D03*
X157480000Y-119380000D03*
D12*
X154940000Y-119380000D03*
X168910000Y-119380000D03*
D13*
X171450000Y-119380000D03*
X185420000Y-119380000D03*
D12*
X182880000Y-119380000D03*
D13*
X199390000Y-119380000D03*
D12*
X196850000Y-119380000D03*
D14*
X191770000Y-85090000D03*
X189230000Y-85090000D03*
D15*
G36*
X187372287Y-83940274D02*
G01*
X187397977Y-83944085D01*
X187423171Y-83950396D01*
X187447625Y-83959146D01*
X187471103Y-83970250D01*
X187493380Y-83983602D01*
X187514241Y-83999074D01*
X187533485Y-84016515D01*
X187550926Y-84035759D01*
X187566398Y-84056620D01*
X187579750Y-84078897D01*
X187590854Y-84102375D01*
X187599604Y-84126829D01*
X187605915Y-84152023D01*
X187609726Y-84177713D01*
X187611000Y-84203654D01*
X187611000Y-85976346D01*
X187609726Y-86002287D01*
X187605915Y-86027977D01*
X187599604Y-86053171D01*
X187590854Y-86077625D01*
X187579750Y-86101103D01*
X187566398Y-86123380D01*
X187550926Y-86144241D01*
X187533485Y-86163485D01*
X187514241Y-86180926D01*
X187493380Y-86196398D01*
X187471103Y-86209750D01*
X187447625Y-86220854D01*
X187423171Y-86229604D01*
X187397977Y-86235915D01*
X187372287Y-86239726D01*
X187346346Y-86241000D01*
X186033654Y-86241000D01*
X186007713Y-86239726D01*
X185982023Y-86235915D01*
X185956829Y-86229604D01*
X185932375Y-86220854D01*
X185908897Y-86209750D01*
X185886620Y-86196398D01*
X185865759Y-86180926D01*
X185846515Y-86163485D01*
X185829074Y-86144241D01*
X185813602Y-86123380D01*
X185800250Y-86101103D01*
X185789146Y-86077625D01*
X185780396Y-86053171D01*
X185774085Y-86027977D01*
X185770274Y-86002287D01*
X185769000Y-85976346D01*
X185769000Y-84203654D01*
X185770274Y-84177713D01*
X185774085Y-84152023D01*
X185780396Y-84126829D01*
X185789146Y-84102375D01*
X185800250Y-84078897D01*
X185813602Y-84056620D01*
X185829074Y-84035759D01*
X185846515Y-84016515D01*
X185865759Y-83999074D01*
X185886620Y-83983602D01*
X185908897Y-83970250D01*
X185932375Y-83959146D01*
X185956829Y-83950396D01*
X185982023Y-83944085D01*
X186007713Y-83940274D01*
X186033654Y-83939000D01*
X187346346Y-83939000D01*
X187372287Y-83940274D01*
G37*
G36*
X175942287Y-83940274D02*
G01*
X175967977Y-83944085D01*
X175993171Y-83950396D01*
X176017625Y-83959146D01*
X176041103Y-83970250D01*
X176063380Y-83983602D01*
X176084241Y-83999074D01*
X176103485Y-84016515D01*
X176120926Y-84035759D01*
X176136398Y-84056620D01*
X176149750Y-84078897D01*
X176160854Y-84102375D01*
X176169604Y-84126829D01*
X176175915Y-84152023D01*
X176179726Y-84177713D01*
X176181000Y-84203654D01*
X176181000Y-85976346D01*
X176179726Y-86002287D01*
X176175915Y-86027977D01*
X176169604Y-86053171D01*
X176160854Y-86077625D01*
X176149750Y-86101103D01*
X176136398Y-86123380D01*
X176120926Y-86144241D01*
X176103485Y-86163485D01*
X176084241Y-86180926D01*
X176063380Y-86196398D01*
X176041103Y-86209750D01*
X176017625Y-86220854D01*
X175993171Y-86229604D01*
X175967977Y-86235915D01*
X175942287Y-86239726D01*
X175916346Y-86241000D01*
X174603654Y-86241000D01*
X174577713Y-86239726D01*
X174552023Y-86235915D01*
X174526829Y-86229604D01*
X174502375Y-86220854D01*
X174478897Y-86209750D01*
X174456620Y-86196398D01*
X174435759Y-86180926D01*
X174416515Y-86163485D01*
X174399074Y-86144241D01*
X174383602Y-86123380D01*
X174370250Y-86101103D01*
X174359146Y-86077625D01*
X174350396Y-86053171D01*
X174344085Y-86027977D01*
X174340274Y-86002287D01*
X174339000Y-85976346D01*
X174339000Y-84203654D01*
X174340274Y-84177713D01*
X174344085Y-84152023D01*
X174350396Y-84126829D01*
X174359146Y-84102375D01*
X174370250Y-84078897D01*
X174383602Y-84056620D01*
X174399074Y-84035759D01*
X174416515Y-84016515D01*
X174435759Y-83999074D01*
X174456620Y-83983602D01*
X174478897Y-83970250D01*
X174502375Y-83959146D01*
X174526829Y-83950396D01*
X174552023Y-83944085D01*
X174577713Y-83940274D01*
X174603654Y-83939000D01*
X175916346Y-83939000D01*
X175942287Y-83940274D01*
G37*
D14*
X177800000Y-85090000D03*
X180340000Y-85090000D03*
D15*
G36*
X198802287Y-83940274D02*
G01*
X198827977Y-83944085D01*
X198853171Y-83950396D01*
X198877625Y-83959146D01*
X198901103Y-83970250D01*
X198923380Y-83983602D01*
X198944241Y-83999074D01*
X198963485Y-84016515D01*
X198980926Y-84035759D01*
X198996398Y-84056620D01*
X199009750Y-84078897D01*
X199020854Y-84102375D01*
X199029604Y-84126829D01*
X199035915Y-84152023D01*
X199039726Y-84177713D01*
X199041000Y-84203654D01*
X199041000Y-85976346D01*
X199039726Y-86002287D01*
X199035915Y-86027977D01*
X199029604Y-86053171D01*
X199020854Y-86077625D01*
X199009750Y-86101103D01*
X198996398Y-86123380D01*
X198980926Y-86144241D01*
X198963485Y-86163485D01*
X198944241Y-86180926D01*
X198923380Y-86196398D01*
X198901103Y-86209750D01*
X198877625Y-86220854D01*
X198853171Y-86229604D01*
X198827977Y-86235915D01*
X198802287Y-86239726D01*
X198776346Y-86241000D01*
X197463654Y-86241000D01*
X197437713Y-86239726D01*
X197412023Y-86235915D01*
X197386829Y-86229604D01*
X197362375Y-86220854D01*
X197338897Y-86209750D01*
X197316620Y-86196398D01*
X197295759Y-86180926D01*
X197276515Y-86163485D01*
X197259074Y-86144241D01*
X197243602Y-86123380D01*
X197230250Y-86101103D01*
X197219146Y-86077625D01*
X197210396Y-86053171D01*
X197204085Y-86027977D01*
X197200274Y-86002287D01*
X197199000Y-85976346D01*
X197199000Y-84203654D01*
X197200274Y-84177713D01*
X197204085Y-84152023D01*
X197210396Y-84126829D01*
X197219146Y-84102375D01*
X197230250Y-84078897D01*
X197243602Y-84056620D01*
X197259074Y-84035759D01*
X197276515Y-84016515D01*
X197295759Y-83999074D01*
X197316620Y-83983602D01*
X197338897Y-83970250D01*
X197362375Y-83959146D01*
X197386829Y-83950396D01*
X197412023Y-83944085D01*
X197437713Y-83940274D01*
X197463654Y-83939000D01*
X198776346Y-83939000D01*
X198802287Y-83940274D01*
G37*
D14*
X200660000Y-85090000D03*
D16*
X96520000Y-71120000D03*
D17*
X99060000Y-71120000D03*
X96520000Y-73660000D03*
X99060000Y-73660000D03*
X96520000Y-76200000D03*
X99060000Y-76200000D03*
X96520000Y-78740000D03*
X99060000Y-78740000D03*
X96520000Y-81280000D03*
X99060000Y-81280000D03*
X96520000Y-83820000D03*
X99060000Y-83820000D03*
X96520000Y-86360000D03*
X99060000Y-86360000D03*
X96520000Y-88900000D03*
X99060000Y-88900000D03*
X96520000Y-91440000D03*
X99060000Y-91440000D03*
X96520000Y-93980000D03*
X99060000Y-93980000D03*
X96520000Y-96520000D03*
X99060000Y-96520000D03*
X96520000Y-99060000D03*
X99060000Y-99060000D03*
X96520000Y-101600000D03*
X99060000Y-101600000D03*
X96520000Y-104140000D03*
X99060000Y-104140000D03*
X96520000Y-106680000D03*
X99060000Y-106680000D03*
X96520000Y-109220000D03*
X99060000Y-109220000D03*
X96520000Y-111760000D03*
X99060000Y-111760000D03*
X96520000Y-114300000D03*
X99060000Y-114300000D03*
X96520000Y-116840000D03*
X99060000Y-116840000D03*
X96520000Y-119380000D03*
X99060000Y-119380000D03*
D16*
X120650000Y-71120000D03*
D17*
X120650000Y-73660000D03*
X118110000Y-71120000D03*
X118110000Y-73660000D03*
X115570000Y-71120000D03*
X115570000Y-73660000D03*
X113030000Y-71120000D03*
X113030000Y-73660000D03*
X110490000Y-71120000D03*
X110490000Y-73660000D03*
X107950000Y-71120000D03*
X107950000Y-73660000D03*
D15*
G36*
X156892287Y-63620274D02*
G01*
X156917977Y-63624085D01*
X156943171Y-63630396D01*
X156967625Y-63639146D01*
X156991103Y-63650250D01*
X157013380Y-63663602D01*
X157034241Y-63679074D01*
X157053485Y-63696515D01*
X157070926Y-63715759D01*
X157086398Y-63736620D01*
X157099750Y-63758897D01*
X157110854Y-63782375D01*
X157119604Y-63806829D01*
X157125915Y-63832023D01*
X157129726Y-63857713D01*
X157131000Y-63883654D01*
X157131000Y-65656346D01*
X157129726Y-65682287D01*
X157125915Y-65707977D01*
X157119604Y-65733171D01*
X157110854Y-65757625D01*
X157099750Y-65781103D01*
X157086398Y-65803380D01*
X157070926Y-65824241D01*
X157053485Y-65843485D01*
X157034241Y-65860926D01*
X157013380Y-65876398D01*
X156991103Y-65889750D01*
X156967625Y-65900854D01*
X156943171Y-65909604D01*
X156917977Y-65915915D01*
X156892287Y-65919726D01*
X156866346Y-65921000D01*
X155553654Y-65921000D01*
X155527713Y-65919726D01*
X155502023Y-65915915D01*
X155476829Y-65909604D01*
X155452375Y-65900854D01*
X155428897Y-65889750D01*
X155406620Y-65876398D01*
X155385759Y-65860926D01*
X155366515Y-65843485D01*
X155349074Y-65824241D01*
X155333602Y-65803380D01*
X155320250Y-65781103D01*
X155309146Y-65757625D01*
X155300396Y-65733171D01*
X155294085Y-65707977D01*
X155290274Y-65682287D01*
X155289000Y-65656346D01*
X155289000Y-63883654D01*
X155290274Y-63857713D01*
X155294085Y-63832023D01*
X155300396Y-63806829D01*
X155309146Y-63782375D01*
X155320250Y-63758897D01*
X155333602Y-63736620D01*
X155349074Y-63715759D01*
X155366515Y-63696515D01*
X155385759Y-63679074D01*
X155406620Y-63663602D01*
X155428897Y-63650250D01*
X155452375Y-63639146D01*
X155476829Y-63630396D01*
X155502023Y-63624085D01*
X155527713Y-63620274D01*
X155553654Y-63619000D01*
X156866346Y-63619000D01*
X156892287Y-63620274D01*
G37*
D14*
X153670000Y-64770000D03*
X151130000Y-64770000D03*
D18*
X109220000Y-115570000D03*
D19*
X119380000Y-115570000D03*
D18*
X123190000Y-115570000D03*
D19*
X133350000Y-115570000D03*
D18*
X137160000Y-115570000D03*
D19*
X147320000Y-115570000D03*
X161290000Y-115570000D03*
D18*
X151130000Y-115570000D03*
D19*
X175260000Y-115570000D03*
D18*
X165100000Y-115570000D03*
D19*
X189230000Y-115570000D03*
D18*
X179070000Y-115570000D03*
X193040000Y-115570000D03*
D19*
X203200000Y-115570000D03*
D20*
X167560000Y-66040000D03*
X165060000Y-63540000D03*
X162560000Y-66040000D03*
D21*
X110490000Y-95250000D03*
D19*
X118110000Y-110490000D03*
X110490000Y-97790000D03*
X118110000Y-107950000D03*
X110490000Y-100330000D03*
X118110000Y-105410000D03*
X110490000Y-102870000D03*
X118110000Y-102870000D03*
X110490000Y-105410000D03*
X118110000Y-100330000D03*
X110490000Y-107950000D03*
X118110000Y-97790000D03*
X110490000Y-110490000D03*
X118110000Y-95250000D03*
X132080000Y-95250000D03*
X124460000Y-110490000D03*
X132080000Y-97790000D03*
X124460000Y-107950000D03*
X132080000Y-100330000D03*
X124460000Y-105410000D03*
X132080000Y-102870000D03*
X124460000Y-102870000D03*
X132080000Y-105410000D03*
X124460000Y-100330000D03*
X132080000Y-107950000D03*
X124460000Y-97790000D03*
X132080000Y-110490000D03*
D21*
X124460000Y-95250000D03*
X138430000Y-95250000D03*
D19*
X146050000Y-110490000D03*
X138430000Y-97790000D03*
X146050000Y-107950000D03*
X138430000Y-100330000D03*
X146050000Y-105410000D03*
X138430000Y-102870000D03*
X146050000Y-102870000D03*
X138430000Y-105410000D03*
X146050000Y-100330000D03*
X138430000Y-107950000D03*
X146050000Y-97790000D03*
X138430000Y-110490000D03*
X146050000Y-95250000D03*
X160020000Y-95250000D03*
X152400000Y-110490000D03*
X160020000Y-97790000D03*
X152400000Y-107950000D03*
X160020000Y-100330000D03*
X152400000Y-105410000D03*
X160020000Y-102870000D03*
X152400000Y-102870000D03*
X160020000Y-105410000D03*
X152400000Y-100330000D03*
X160020000Y-107950000D03*
X152400000Y-97790000D03*
X160020000Y-110490000D03*
D21*
X152400000Y-95250000D03*
X166370000Y-95250000D03*
D19*
X173990000Y-110490000D03*
X166370000Y-97790000D03*
X173990000Y-107950000D03*
X166370000Y-100330000D03*
X173990000Y-105410000D03*
X166370000Y-102870000D03*
X173990000Y-102870000D03*
X166370000Y-105410000D03*
X173990000Y-100330000D03*
X166370000Y-107950000D03*
X173990000Y-97790000D03*
X166370000Y-110490000D03*
X173990000Y-95250000D03*
D21*
X180340000Y-95250000D03*
D19*
X187960000Y-110490000D03*
X180340000Y-97790000D03*
X187960000Y-107950000D03*
X180340000Y-100330000D03*
X187960000Y-105410000D03*
X180340000Y-102870000D03*
X187960000Y-102870000D03*
X180340000Y-105410000D03*
X187960000Y-100330000D03*
X180340000Y-107950000D03*
X187960000Y-97790000D03*
X180340000Y-110490000D03*
X187960000Y-95250000D03*
X201930000Y-95250000D03*
X194310000Y-110490000D03*
X201930000Y-97790000D03*
X194310000Y-107950000D03*
X201930000Y-100330000D03*
X194310000Y-105410000D03*
X201930000Y-102870000D03*
X194310000Y-102870000D03*
X201930000Y-105410000D03*
X194310000Y-100330000D03*
X201930000Y-107950000D03*
X194310000Y-97790000D03*
X201930000Y-110490000D03*
D21*
X194310000Y-95250000D03*
D22*
X130810000Y-87630000D03*
X133350000Y-87630000D03*
X135890000Y-87630000D03*
X138430000Y-87630000D03*
X140970000Y-87630000D03*
X143510000Y-87630000D03*
X146050000Y-87630000D03*
X148590000Y-87630000D03*
X151130000Y-87630000D03*
X153670000Y-87630000D03*
X156210000Y-87630000D03*
X158750000Y-87630000D03*
X161290000Y-87630000D03*
X163830000Y-87630000D03*
X163830000Y-72390000D03*
X161290000Y-72390000D03*
X158750000Y-72390000D03*
X156210000Y-72390000D03*
X153670000Y-72390000D03*
X151130000Y-72390000D03*
X148590000Y-72390000D03*
X146050000Y-72390000D03*
X143510000Y-72390000D03*
X140970000Y-72390000D03*
X138430000Y-72390000D03*
X135890000Y-72390000D03*
X133350000Y-72390000D03*
X130810000Y-72390000D03*
M02*
