<?xml version="1.0" encoding="UTF-8" standalone="no"?>
<!-- Created with Inkscape (http://www.inkscape.org/) -->

<svg
   xmlns:dc="http://purl.org/dc/elements/1.1/"
   xmlns:cc="http://creativecommons.org/ns#"
   xmlns:rdf="http://www.w3.org/1999/02/22-rdf-syntax-ns#"
   xmlns:svg="http://www.w3.org/2000/svg"
   xmlns="http://www.w3.org/2000/svg"
   xmlns:sodipodi="http://sodipodi.sourceforge.net/DTD/sodipodi-0.dtd"
   xmlns:inkscape="http://www.inkscape.org/namespaces/inkscape"
   width="24in"
   height="12in"
   viewBox="0 0 609.60001 304.80001"
   version="1.1"
   id="svg8"
   inkscape:version="0.92.4 (5da689c313, 2019-01-14)"
   sodipodi:docname="smm-board-template.svg">
  <defs
     id="defs2" />
  <sodipodi:namedview
     id="base"
     pagecolor="#ffffff"
     bordercolor="#666666"
     borderopacity="1.0"
     inkscape:pageopacity="0.0"
     inkscape:pageshadow="2"
     inkscape:zoom="3.2459895"
     inkscape:cx="360.27827"
     inkscape:cy="818.5297"
     inkscape:document-units="in"
     inkscape:current-layer="g131"
     showgrid="false"
     units="in"
     inkscape:window-width="2560"
     inkscape:window-height="1377"
     inkscape:window-x="-8"
     inkscape:window-y="-8"
     inkscape:window-maximized="1"
     inkscape:snap-bbox="true"
     inkscape:bbox-nodes="true"
     inkscape:snap-bbox-midpoints="false"
     inkscape:bbox-paths="false"
     showguides="false"
     inkscape:object-paths="true"
     inkscape:snap-intersection-paths="true"
     inkscape:snap-bbox-edge-midpoints="true"
     inkscape:snap-smooth-nodes="true" />
  <metadata
     id="metadata5">
    <rdf:RDF>
      <cc:Work
         rdf:about="">
        <dc:format>image/svg+xml</dc:format>
        <dc:type
           rdf:resource="http://purl.org/dc/dcmitype/StillImage" />
        <dc:title />
      </cc:Work>
    </rdf:RDF>
  </metadata>
  <g
     inkscape:label="Layer 1"
     inkscape:groupmode="layer"
     id="layer1"
     transform="translate(0,7.800017)">
    <g
       id="g907">
      <rect
         y="54.586521"
         x="206.33208"
         height="182.88"
         width="63.5"
         id="rect822"
         style="fill:none;stroke:#0000ff;stroke-width:0.25400001;stroke-miterlimit:4;stroke-dasharray:none;stroke-opacity:1" />
      <circle
         r="1.524"
         cy="59.822544"
         cx="211.54884"
         id="circle832"
         style="fill:none;stroke:#0000ff;stroke-width:0.03527778;stroke-miterlimit:4;stroke-dasharray:none;stroke-opacity:1" />
      <circle
         style="fill:none;stroke:#0000ff;stroke-width:0.03527778;stroke-miterlimit:4;stroke-dasharray:none;stroke-opacity:1"
         id="circle834"
         cx="264.88885"
         cy="59.822544"
         r="1.524" />
      <circle
         style="fill:none;stroke:#0000ff;stroke-width:0.03527778;stroke-miterlimit:4;stroke-dasharray:none;stroke-opacity:1"
         id="circle836"
         cx="211.54884"
         cy="146.18254"
         r="1.524" />
      <circle
         r="1.524"
         cy="146.18254"
         cx="264.88885"
         id="circle838"
         style="fill:none;stroke:#0000ff;stroke-width:0.03527778;stroke-miterlimit:4;stroke-dasharray:none;stroke-opacity:1" />
      <circle
         r="1.524"
         cy="232.54256"
         cx="211.54884"
         id="circle840"
         style="fill:none;stroke:#0000ff;stroke-width:0.03527778;stroke-miterlimit:4;stroke-dasharray:none;stroke-opacity:1" />
      <circle
         style="fill:none;stroke:#0000ff;stroke-width:0.03527778;stroke-miterlimit:4;stroke-dasharray:none;stroke-opacity:1"
         id="circle842"
         cx="264.88885"
         cy="232.54256"
         r="1.524" />
      <rect
         ry="1.889881"
         y="67.794525"
         x="214.58708"
         height="156.464"
         width="46.990002"
         id="rect844"
         style="fill:none;stroke:#0000ff;stroke-width:0.03527778;stroke-miterlimit:4;stroke-dasharray:none;stroke-opacity:1" />
    </g>
    <g
       id="g131"
       transform="matrix(1,0,0,-1,-0.23054748,171.64633)">
      <rect
         y="46.568436"
         x="79.646317"
         height="78.740005"
         width="57.150002"
         id="rect12"
         style="fill:none;stroke:#0000ff;stroke-width:0.25400001;stroke-miterlimit:4;stroke-dasharray:none;stroke-opacity:1" />
      <circle
         r="1.524"
         cy="121.59534"
         cx="83.355042"
         id="path824"
         style="fill:none;stroke:#0000ff;stroke-width:0.03527778;stroke-miterlimit:4;stroke-dasharray:none;stroke-opacity:1" />
      <circle
         style="fill:none;stroke:#0000ff;stroke-width:0.03527778;stroke-miterlimit:4;stroke-dasharray:none;stroke-opacity:1"
         id="circle826"
         cx="83.355042"
         cy="50.475346"
         r="1.524" />
      <circle
         style="fill:none;stroke:#0000ff;stroke-width:0.03527778;stroke-miterlimit:4;stroke-dasharray:none;stroke-opacity:1"
         id="circle828"
         cx="132.63104"
         cy="121.59534"
         r="1.524" />
      <circle
         r="1.524"
         cy="50.475346"
         cx="132.63104"
         id="circle830"
         style="fill:none;stroke:#0000ff;stroke-width:0.03527778;stroke-miterlimit:4;stroke-dasharray:none;stroke-opacity:1" />
      <path
         sodipodi:nodetypes="ccccccsccscccccccccccccccccccsssscccccccccccccccccccsssscccc"
         inkscape:connector-curvature="0"
         id="circle82"
         d="m 83.738937,114.46571 3.12e-4,-8.26396 c 3.11e-4,-1.07619 0.872841,-1.94872 1.946351,-1.9492 l 0.926031,-0.001 c 1.076735,-10e-4 1.949265,-0.87365 1.949837,-1.94774 l 6.05e-4,-47.783257 v -4.791956 c 0,-1.046996 0.842815,-1.889808 1.889805,-1.889808 l 36.859632,-7e-5 c 1.04699,0 1.88981,0.842812 1.88981,1.889808 v 1.132228 h 0.0114 c 0,0.06298 0.003,0.125922 0.009,0.188622 0.007,0.06851 0.0173,0.136641 0.031,0.204121 0.0137,0.06747 0.0308,0.134218 0.0512,0.199988 0.0204,0.06573 0.044,0.130406 0.0708,0.193786 0.0269,0.06347 0.0569,0.125566 0.0899,0.186036 0.033,0.0605 0.0691,0.119315 0.10801,0.176215 0.0387,0.05682 0.0803,0.111663 0.12454,0.164333 0.0445,0.05262 0.0916,0.102985 0.14107,0.150895 0.0494,0.04803 0.10113,0.09356 0.15503,0.136424 0.0539,0.04291 0.10995,0.0831 0.16795,0.120407 0.058,0.03707 0.11792,0.07122 0.17932,0.102319 0.0614,0.03138 0.12432,0.05967 0.18862,0.08475 0.0642,0.02495 0.12955,0.04668 0.19585,0.06511 0.0664,0.01834 0.13364,0.03334 0.20154,0.04496 0.0678,0.01167 0.13604,0.01991 0.20464,0.02481 0.0429,0.0031 0.0858,0.0048 0.12867,0.0052 v 0.0052 h 1.41542 c 0.88995,0 1.60662,0.716675 1.60662,1.606622 V 117.3472 c 0,0.88994 -0.71667,1.60662 -1.60662,1.60662 h -1.42317 v 0.004 c -0.043,0 -0.0859,0.002 -0.12868,0.005 -0.0686,0.005 -0.13683,0.0131 -0.20463,0.0248 -0.0679,0.0116 -0.13514,0.0267 -0.20154,0.045 -0.0663,0.0184 -0.13166,0.0402 -0.19586,0.0651 -0.0642,0.0251 -0.12721,0.0533 -0.18861,0.0847 -0.0614,0.0311 -0.12132,0.0652 -0.17932,0.10231 -0.058,0.0373 -0.11405,0.0775 -0.16795,0.12041 -0.0539,0.0428 -0.10563,0.0884 -0.15503,0.13643 -0.0495,0.0479 -0.0966,0.0983 -0.14108,0.15089 -0.0442,0.0527 -0.0858,0.10753 -0.12454,0.16433 -0.0389,0.0569 -0.075,0.11572 -0.108,0.17622 -0.0331,0.0605 -0.0631,0.12253 -0.0899,0.18603 -0.0268,0.0634 -0.0504,0.12809 -0.0708,0.19379 -0.0204,0.0658 -0.0375,0.13249 -0.0512,0.19999 -0.0137,0.0675 -0.024,0.13562 -0.031,0.20412 -0.006,0.0627 -0.009,0.12562 -0.009,0.18862 h -0.003 v 1.14308 c 0,1.04699 -0.84282,1.88981 -1.88981,1.88981 H 90.451844 c -1.04699,0 -1.88988,-0.84282 -1.889805,-1.88981 l 2.71e-4,-3.78352 c 2.7e-4,-1.07659 -0.872255,-1.94912 -1.946618,-1.94747 l -0.925588,-5.5e-4 c -1.078014,-0.002 -1.950544,-0.87409 -1.950544,-1.9504"
         style="fill:none;stroke:#0000ff;stroke-width:0.0254;stroke-miterlimit:4;stroke-dasharray:none;stroke-opacity:1" />
    </g>
    <path
       sodipodi:nodetypes="cc"
       inkscape:connector-curvature="0"
       id="path102"
       d="m 53.774602,57.040579 c 0,-1.07631 -0.87253,-1.94884 -1.94884,-1.94884"
       style="fill:none;stroke:#0000ff;stroke-width:0.0254;stroke-miterlimit:4;stroke-dasharray:none;stroke-opacity:1" />
  </g>
</svg>
