G04 #@! TF.GenerationSoftware,KiCad,Pcbnew,5.1.5+dfsg1-2build2*
G04 #@! TF.CreationDate,2021-12-17T12:38:29-06:00*
G04 #@! TF.ProjectId,programming-board,70726f67-7261-46d6-9d69-6e672d626f61,rev?*
G04 #@! TF.SameCoordinates,Original*
G04 #@! TF.FileFunction,Copper,L1,Top*
G04 #@! TF.FilePolarity,Positive*
%FSLAX46Y46*%
G04 Gerber Fmt 4.6, Leading zero omitted, Abs format (unit mm)*
G04 Created by KiCad (PCBNEW 5.1.5+dfsg1-2build2) date 2021-12-17 12:38:29*
%MOMM*%
%LPD*%
G04 APERTURE LIST*
%ADD10C,1.524000*%
%ADD11R,1.800000X1.800000*%
%ADD12C,1.800000*%
%ADD13R,1.700000X1.700000*%
%ADD14O,1.700000X1.700000*%
%ADD15C,1.600000*%
%ADD16O,1.600000X1.600000*%
%ADD17C,2.000000*%
%ADD18C,0.250000*%
G04 APERTURE END LIST*
D10*
X75170000Y-73820000D03*
X75170000Y-77820000D03*
X75170000Y-79820000D03*
X75170000Y-81820000D03*
X75170000Y-83820000D03*
X75170000Y-85820000D03*
X90170000Y-85820000D03*
X90170000Y-83820000D03*
X90170000Y-81820000D03*
X90170000Y-79820000D03*
X90170000Y-77820000D03*
D11*
X110490000Y-73660000D03*
D12*
X113030000Y-73660000D03*
X134620000Y-73660000D03*
D11*
X132080000Y-73660000D03*
X153670000Y-73660000D03*
D12*
X156210000Y-73660000D03*
X179070000Y-73660000D03*
D11*
X176530000Y-73660000D03*
D13*
X209550000Y-77470000D03*
D14*
X212090000Y-77470000D03*
X209550000Y-80010000D03*
X212090000Y-80010000D03*
X209550000Y-82550000D03*
X212090000Y-82550000D03*
X209550000Y-85090000D03*
X212090000Y-85090000D03*
X209550000Y-87630000D03*
X212090000Y-87630000D03*
X209550000Y-90170000D03*
X212090000Y-90170000D03*
D15*
X99060000Y-88900000D03*
D16*
X99060000Y-78740000D03*
X120650000Y-78740000D03*
D15*
X120650000Y-88900000D03*
X142240000Y-88900000D03*
D16*
X142240000Y-78740000D03*
X163830000Y-78740000D03*
D15*
X163830000Y-88900000D03*
X104140000Y-88900000D03*
D16*
X104140000Y-78740000D03*
D15*
X125730000Y-88900000D03*
D16*
X125730000Y-78740000D03*
X147320000Y-78740000D03*
D15*
X147320000Y-88900000D03*
D16*
X170180000Y-78740000D03*
D15*
X170180000Y-88900000D03*
X191770000Y-88900000D03*
D16*
X191770000Y-78740000D03*
D17*
X115570000Y-81280000D03*
X115570000Y-85780000D03*
X109070000Y-81280000D03*
X109070000Y-85780000D03*
X130660000Y-85780000D03*
X130660000Y-81280000D03*
X137160000Y-85780000D03*
X137160000Y-81280000D03*
X158750000Y-81280000D03*
X158750000Y-85780000D03*
X152250000Y-81280000D03*
X152250000Y-85780000D03*
X175110000Y-85780000D03*
X175110000Y-81280000D03*
X181610000Y-85780000D03*
X181610000Y-81280000D03*
X195580000Y-85780000D03*
X195580000Y-81280000D03*
X202080000Y-85780000D03*
X202080000Y-81280000D03*
D18*
X109340000Y-73660000D02*
X110490000Y-73660000D01*
X107554998Y-73660000D02*
X109340000Y-73660000D01*
X102474998Y-78740000D02*
X107554998Y-73660000D01*
X99060000Y-78740000D02*
X102474998Y-78740000D01*
X209550000Y-82550000D02*
X208280000Y-82550000D01*
X113929999Y-72760001D02*
X113030000Y-73660000D01*
X115155021Y-71534979D02*
X113929999Y-72760001D01*
X197264979Y-71534979D02*
X115155021Y-71534979D01*
X208280000Y-82550000D02*
X197264979Y-71534979D01*
X135519999Y-72760001D02*
X134620000Y-73660000D01*
X136295011Y-71984989D02*
X135519999Y-72760001D01*
X196444989Y-71984989D02*
X136295011Y-71984989D01*
X209550000Y-85090000D02*
X196444989Y-71984989D01*
X130930000Y-73660000D02*
X132080000Y-73660000D01*
X129144998Y-73660000D02*
X130930000Y-73660000D01*
X124064998Y-78740000D02*
X129144998Y-73660000D01*
X120650000Y-78740000D02*
X124064998Y-78740000D01*
X152520000Y-73660000D02*
X153670000Y-73660000D01*
X150734998Y-73660000D02*
X152520000Y-73660000D01*
X145654998Y-78740000D02*
X150734998Y-73660000D01*
X142240000Y-78740000D02*
X145654998Y-78740000D01*
X157109999Y-72760001D02*
X156210000Y-73660000D01*
X157435001Y-72434999D02*
X157109999Y-72760001D01*
X195832411Y-72434999D02*
X157435001Y-72434999D01*
X207460009Y-84062597D02*
X195832411Y-72434999D01*
X207460009Y-85540009D02*
X207460009Y-84062597D01*
X209550000Y-87630000D02*
X207460009Y-85540009D01*
X180342792Y-73660000D02*
X179070000Y-73660000D01*
X196421002Y-73660000D02*
X180342792Y-73660000D01*
X203405001Y-80643999D02*
X196421002Y-73660000D01*
X203405001Y-85227082D02*
X203405001Y-80643999D01*
X208347919Y-90170000D02*
X203405001Y-85227082D01*
X209550000Y-90170000D02*
X208347919Y-90170000D01*
X175380000Y-73660000D02*
X176530000Y-73660000D01*
X173594998Y-73660000D02*
X175380000Y-73660000D01*
X168514998Y-78740000D02*
X173594998Y-73660000D01*
X163830000Y-78740000D02*
X168514998Y-78740000D01*
X106530000Y-78740000D02*
X109070000Y-81280000D01*
X104140000Y-78740000D02*
X106530000Y-78740000D01*
X109070000Y-81280000D02*
X115570000Y-81280000D01*
X191770000Y-88900000D02*
X170180000Y-88900000D01*
X148119999Y-88100001D02*
X147320000Y-88900000D01*
X148445001Y-87774999D02*
X148119999Y-88100001D01*
X169054999Y-87774999D02*
X148445001Y-87774999D01*
X170180000Y-88900000D02*
X169054999Y-87774999D01*
X126529999Y-88100001D02*
X125730000Y-88900000D01*
X126855001Y-87774999D02*
X126529999Y-88100001D01*
X146194999Y-87774999D02*
X126855001Y-87774999D01*
X147320000Y-88900000D02*
X146194999Y-87774999D01*
X104939999Y-88100001D02*
X104140000Y-88900000D01*
X105265001Y-87774999D02*
X104939999Y-88100001D01*
X124604999Y-87774999D02*
X105265001Y-87774999D01*
X125730000Y-88900000D02*
X124604999Y-87774999D01*
X95060000Y-79820000D02*
X90170000Y-79820000D01*
X104140000Y-88900000D02*
X95060000Y-79820000D01*
X81170000Y-79820000D02*
X75170000Y-73820000D01*
X90170000Y-79820000D02*
X81170000Y-79820000D01*
X192569999Y-89699999D02*
X191770000Y-88900000D01*
X194215001Y-91345001D02*
X192569999Y-89699999D01*
X210114001Y-91345001D02*
X194215001Y-91345001D01*
X210725001Y-90734001D02*
X210114001Y-91345001D01*
X210725001Y-81185001D02*
X210725001Y-90734001D01*
X209550000Y-80010000D02*
X210725001Y-81185001D01*
X128120000Y-78740000D02*
X130660000Y-81280000D01*
X125730000Y-78740000D02*
X128120000Y-78740000D01*
X130660000Y-81280000D02*
X137160000Y-81280000D01*
X149710000Y-78740000D02*
X152250000Y-81280000D01*
X147320000Y-78740000D02*
X149710000Y-78740000D01*
X152250000Y-81280000D02*
X158750000Y-81280000D01*
X172570000Y-78740000D02*
X175110000Y-81280000D01*
X170180000Y-78740000D02*
X172570000Y-78740000D01*
X175110000Y-81280000D02*
X181610000Y-81280000D01*
X193040000Y-78740000D02*
X195580000Y-81280000D01*
X191770000Y-78740000D02*
X193040000Y-78740000D01*
X195580000Y-81280000D02*
X202080000Y-81280000D01*
M02*
