%FSLAX45Y45*%
G04 Gerber Fmt 4.5, Leading zero omitted, Abs format (unit mm)*
G04 Created by KiCad (PCBNEW 5.1.5+dfsg1-2build2) date 2021-12-17 12:38:36*
%MOMM*%
%LPD*%
G04 APERTURE LIST*
%TA.AperFunction,Profile*%
%ADD10C,0.100000*%
%TD*%
%ADD11C,0.200000*%
%ADD12C,0.300000*%
G04 APERTURE END LIST*
D10*
X6731000Y-6731000D02*
X6731000Y-9398000D01*
X6985000Y-6477000D02*
X6731000Y-6731000D01*
X21590000Y-6477000D02*
X6985000Y-6477000D01*
X21844000Y-6731000D02*
X21590000Y-6477000D01*
X21844000Y-9398000D02*
X21844000Y-6731000D01*
X21590000Y-9652000D02*
X21844000Y-9398000D01*
X6985000Y-9652000D02*
X21590000Y-9652000D01*
X6731000Y-9398000D02*
X6985000Y-9652000D01*
D11*
X7478900Y-7343900D02*
X7555100Y-7420100D01*
X7555100Y-7343900D02*
X7478900Y-7420100D01*
X7478900Y-7743900D02*
X7555100Y-7820100D01*
X7555100Y-7743900D02*
X7478900Y-7820100D01*
X7478900Y-7943900D02*
X7555100Y-8020100D01*
X7555100Y-7943900D02*
X7478900Y-8020100D01*
X7478900Y-8143900D02*
X7555100Y-8220100D01*
X7555100Y-8143900D02*
X7478900Y-8220100D01*
X7478900Y-8343900D02*
X7555100Y-8420100D01*
X7555100Y-8343900D02*
X7478900Y-8420100D01*
X7478900Y-8543900D02*
X7555100Y-8620100D01*
X7555100Y-8543900D02*
X7478900Y-8620100D01*
X8978900Y-7743900D02*
X9055100Y-7820100D01*
X9055100Y-7743900D02*
X8978900Y-7820100D01*
X8978900Y-7943900D02*
X9055100Y-8020100D01*
X9055100Y-7943900D02*
X8978900Y-8020100D01*
X8978900Y-8143900D02*
X9055100Y-8220100D01*
X9055100Y-8143900D02*
X8978900Y-8220100D01*
X8978900Y-8343900D02*
X9055100Y-8420100D01*
X9055100Y-8343900D02*
X8978900Y-8420100D01*
X8978900Y-8543900D02*
X9055100Y-8620100D01*
X9055100Y-8543900D02*
X8978900Y-8620100D01*
X10454000Y-7874000D02*
G75*
G03X10454000Y-7874000I-40000J0D01*
G01*
X10454000Y-8890000D02*
G75*
G03X10454000Y-8890000I-40000J0D01*
G01*
X16423000Y-7874000D02*
G75*
G03X16423000Y-7874000I-40000J0D01*
G01*
X16423000Y-8890000D02*
G75*
G03X16423000Y-8890000I-40000J0D01*
G01*
X12613000Y-7874000D02*
G75*
G03X12613000Y-7874000I-40000J0D01*
G01*
X12613000Y-8890000D02*
G75*
G03X12613000Y-8890000I-40000J0D01*
G01*
X14264000Y-7874000D02*
G75*
G03X14264000Y-7874000I-40000J0D01*
G01*
X14264000Y-8890000D02*
G75*
G03X14264000Y-8890000I-40000J0D01*
G01*
X17058000Y-7874000D02*
G75*
G03X17058000Y-7874000I-40000J0D01*
G01*
X17058000Y-8890000D02*
G75*
G03X17058000Y-8890000I-40000J0D01*
G01*
X19217000Y-7874000D02*
G75*
G03X19217000Y-7874000I-40000J0D01*
G01*
X19217000Y-8890000D02*
G75*
G03X19217000Y-8890000I-40000J0D01*
G01*
X12105000Y-7874000D02*
G75*
G03X12105000Y-7874000I-40000J0D01*
G01*
X12105000Y-8890000D02*
G75*
G03X12105000Y-8890000I-40000J0D01*
G01*
X9946000Y-7874000D02*
G75*
G03X9946000Y-7874000I-40000J0D01*
G01*
X9946000Y-8890000D02*
G75*
G03X9946000Y-8890000I-40000J0D01*
G01*
X14772000Y-7874000D02*
G75*
G03X14772000Y-7874000I-40000J0D01*
G01*
X14772000Y-8890000D02*
G75*
G03X14772000Y-8890000I-40000J0D01*
G01*
X13208000Y-7321000D02*
X13208000Y-7411000D01*
X13163000Y-7366000D02*
X13253000Y-7366000D01*
X13462000Y-7321000D02*
X13462000Y-7411000D01*
X13417000Y-7366000D02*
X13507000Y-7366000D01*
X17653000Y-7321000D02*
X17653000Y-7411000D01*
X17608000Y-7366000D02*
X17698000Y-7366000D01*
X17907000Y-7321000D02*
X17907000Y-7411000D01*
X17862000Y-7366000D02*
X17952000Y-7366000D01*
X11049000Y-7321000D02*
X11049000Y-7411000D01*
X11004000Y-7366000D02*
X11094000Y-7366000D01*
X11303000Y-7321000D02*
X11303000Y-7411000D01*
X11258000Y-7366000D02*
X11348000Y-7366000D01*
X15367000Y-7321000D02*
X15367000Y-7411000D01*
X15322000Y-7366000D02*
X15412000Y-7366000D01*
X15621000Y-7321000D02*
X15621000Y-7411000D01*
X15576000Y-7366000D02*
X15666000Y-7366000D01*
X20990356Y-7782356D02*
X20990356Y-7711644D01*
X20919644Y-7711644D01*
X20919644Y-7782356D01*
X20990356Y-7782356D01*
X20990356Y-8036356D02*
X20990356Y-7965644D01*
X20919644Y-7965644D01*
X20919644Y-8036356D01*
X20990356Y-8036356D01*
X20990356Y-8290356D02*
X20990356Y-8219644D01*
X20919644Y-8219644D01*
X20919644Y-8290356D01*
X20990356Y-8290356D01*
X20990356Y-8544356D02*
X20990356Y-8473644D01*
X20919644Y-8473644D01*
X20919644Y-8544356D01*
X20990356Y-8544356D01*
X20990356Y-8798356D02*
X20990356Y-8727644D01*
X20919644Y-8727644D01*
X20919644Y-8798356D01*
X20990356Y-8798356D01*
X20990356Y-9052356D02*
X20990356Y-8981644D01*
X20919644Y-8981644D01*
X20919644Y-9052356D01*
X20990356Y-9052356D01*
X21244356Y-7782356D02*
X21244356Y-7711644D01*
X21173644Y-7711644D01*
X21173644Y-7782356D01*
X21244356Y-7782356D01*
X21244356Y-8036356D02*
X21244356Y-7965644D01*
X21173644Y-7965644D01*
X21173644Y-8036356D01*
X21244356Y-8036356D01*
X21244356Y-8290356D02*
X21244356Y-8219644D01*
X21173644Y-8219644D01*
X21173644Y-8290356D01*
X21244356Y-8290356D01*
X21244356Y-8544356D02*
X21244356Y-8473644D01*
X21173644Y-8473644D01*
X21173644Y-8544356D01*
X21244356Y-8544356D01*
X21244356Y-8798356D02*
X21244356Y-8727644D01*
X21173644Y-8727644D01*
X21173644Y-8798356D01*
X21244356Y-8798356D01*
X21244356Y-9052356D02*
X21244356Y-8981644D01*
X21173644Y-8981644D01*
X21173644Y-9052356D01*
X21244356Y-9052356D01*
X19558000Y-8183000D02*
X19613000Y-8128000D01*
X19558000Y-8073000D01*
X19503000Y-8128000D01*
X19558000Y-8183000D01*
X19558000Y-8633000D02*
X19613000Y-8578000D01*
X19558000Y-8523000D01*
X19503000Y-8578000D01*
X19558000Y-8633000D01*
X20208000Y-8183000D02*
X20263000Y-8128000D01*
X20208000Y-8073000D01*
X20153000Y-8128000D01*
X20208000Y-8183000D01*
X20208000Y-8633000D02*
X20263000Y-8578000D01*
X20208000Y-8523000D01*
X20153000Y-8578000D01*
X20208000Y-8633000D01*
X13066000Y-8183000D02*
X13121000Y-8128000D01*
X13066000Y-8073000D01*
X13011000Y-8128000D01*
X13066000Y-8183000D01*
X13066000Y-8633000D02*
X13121000Y-8578000D01*
X13066000Y-8523000D01*
X13011000Y-8578000D01*
X13066000Y-8633000D01*
X13716000Y-8183000D02*
X13771000Y-8128000D01*
X13716000Y-8073000D01*
X13661000Y-8128000D01*
X13716000Y-8183000D01*
X13716000Y-8633000D02*
X13771000Y-8578000D01*
X13716000Y-8523000D01*
X13661000Y-8578000D01*
X13716000Y-8633000D01*
X17511000Y-8183000D02*
X17566000Y-8128000D01*
X17511000Y-8073000D01*
X17456000Y-8128000D01*
X17511000Y-8183000D01*
X17511000Y-8633000D02*
X17566000Y-8578000D01*
X17511000Y-8523000D01*
X17456000Y-8578000D01*
X17511000Y-8633000D01*
X18161000Y-8183000D02*
X18216000Y-8128000D01*
X18161000Y-8073000D01*
X18106000Y-8128000D01*
X18161000Y-8183000D01*
X18161000Y-8633000D02*
X18216000Y-8578000D01*
X18161000Y-8523000D01*
X18106000Y-8578000D01*
X18161000Y-8633000D01*
X15225000Y-8183000D02*
X15280000Y-8128000D01*
X15225000Y-8073000D01*
X15170000Y-8128000D01*
X15225000Y-8183000D01*
X15225000Y-8633000D02*
X15280000Y-8578000D01*
X15225000Y-8523000D01*
X15170000Y-8578000D01*
X15225000Y-8633000D01*
X15875000Y-8183000D02*
X15930000Y-8128000D01*
X15875000Y-8073000D01*
X15820000Y-8128000D01*
X15875000Y-8183000D01*
X15875000Y-8633000D02*
X15930000Y-8578000D01*
X15875000Y-8523000D01*
X15820000Y-8578000D01*
X15875000Y-8633000D01*
X10907000Y-8183000D02*
X10962000Y-8128000D01*
X10907000Y-8073000D01*
X10852000Y-8128000D01*
X10907000Y-8183000D01*
X10907000Y-8633000D02*
X10962000Y-8578000D01*
X10907000Y-8523000D01*
X10852000Y-8578000D01*
X10907000Y-8633000D01*
X11557000Y-8183000D02*
X11612000Y-8128000D01*
X11557000Y-8073000D01*
X11502000Y-8128000D01*
X11557000Y-8183000D01*
X11557000Y-8633000D02*
X11612000Y-8578000D01*
X11557000Y-8523000D01*
X11502000Y-8578000D01*
X11557000Y-8633000D01*
D12*
X7012428Y-10122714D02*
X7012428Y-9822714D01*
X7083857Y-9822714D01*
X7126714Y-9837000D01*
X7155286Y-9865572D01*
X7169571Y-9894143D01*
X7183857Y-9951286D01*
X7183857Y-9994143D01*
X7169571Y-10051286D01*
X7155286Y-10079857D01*
X7126714Y-10108429D01*
X7083857Y-10122714D01*
X7012428Y-10122714D01*
X7312428Y-10122714D02*
X7312428Y-9922714D01*
X7312428Y-9979857D02*
X7326714Y-9951286D01*
X7341000Y-9937000D01*
X7369571Y-9922714D01*
X7398143Y-9922714D01*
X7498143Y-10122714D02*
X7498143Y-9922714D01*
X7498143Y-9822714D02*
X7483857Y-9837000D01*
X7498143Y-9851286D01*
X7512428Y-9837000D01*
X7498143Y-9822714D01*
X7498143Y-9851286D01*
X7683857Y-10122714D02*
X7655286Y-10108429D01*
X7641000Y-10079857D01*
X7641000Y-9822714D01*
X7841000Y-10122714D02*
X7812428Y-10108429D01*
X7798143Y-10079857D01*
X7798143Y-9822714D01*
X8183857Y-10122714D02*
X8183857Y-9822714D01*
X8283857Y-10037000D01*
X8383857Y-9822714D01*
X8383857Y-10122714D01*
X8655286Y-10122714D02*
X8655286Y-9965572D01*
X8641000Y-9937000D01*
X8612428Y-9922714D01*
X8555286Y-9922714D01*
X8526714Y-9937000D01*
X8655286Y-10108429D02*
X8626714Y-10122714D01*
X8555286Y-10122714D01*
X8526714Y-10108429D01*
X8512428Y-10079857D01*
X8512428Y-10051286D01*
X8526714Y-10022714D01*
X8555286Y-10008429D01*
X8626714Y-10008429D01*
X8655286Y-9994143D01*
X8798143Y-9922714D02*
X8798143Y-10222714D01*
X8798143Y-9937000D02*
X8826714Y-9922714D01*
X8883857Y-9922714D01*
X8912428Y-9937000D01*
X8926714Y-9951286D01*
X8941000Y-9979857D01*
X8941000Y-10065572D01*
X8926714Y-10094143D01*
X8912428Y-10108429D01*
X8883857Y-10122714D01*
X8826714Y-10122714D01*
X8798143Y-10108429D01*
X9069571Y-10094143D02*
X9083857Y-10108429D01*
X9069571Y-10122714D01*
X9055286Y-10108429D01*
X9069571Y-10094143D01*
X9069571Y-10122714D01*
X9069571Y-9937000D02*
X9083857Y-9951286D01*
X9069571Y-9965572D01*
X9055286Y-9951286D01*
X9069571Y-9937000D01*
X9069571Y-9965572D01*
X6649800Y-10578900D02*
X6726000Y-10655100D01*
X6726000Y-10578900D02*
X6649800Y-10655100D01*
X7069571Y-10452714D02*
X7098143Y-10452714D01*
X7126714Y-10467000D01*
X7141000Y-10481286D01*
X7155286Y-10509857D01*
X7169571Y-10567000D01*
X7169571Y-10638429D01*
X7155286Y-10695572D01*
X7141000Y-10724143D01*
X7126714Y-10738429D01*
X7098143Y-10752714D01*
X7069571Y-10752714D01*
X7041000Y-10738429D01*
X7026714Y-10724143D01*
X7012428Y-10695572D01*
X6998143Y-10638429D01*
X6998143Y-10567000D01*
X7012428Y-10509857D01*
X7026714Y-10481286D01*
X7041000Y-10467000D01*
X7069571Y-10452714D01*
X7298143Y-10724143D02*
X7312428Y-10738429D01*
X7298143Y-10752714D01*
X7283857Y-10738429D01*
X7298143Y-10724143D01*
X7298143Y-10752714D01*
X7412428Y-10452714D02*
X7612428Y-10452714D01*
X7483857Y-10752714D01*
X7855286Y-10452714D02*
X7798143Y-10452714D01*
X7769571Y-10467000D01*
X7755286Y-10481286D01*
X7726714Y-10524143D01*
X7712428Y-10581286D01*
X7712428Y-10695572D01*
X7726714Y-10724143D01*
X7741000Y-10738429D01*
X7769571Y-10752714D01*
X7826714Y-10752714D01*
X7855286Y-10738429D01*
X7869571Y-10724143D01*
X7883857Y-10695572D01*
X7883857Y-10624143D01*
X7869571Y-10595572D01*
X7855286Y-10581286D01*
X7826714Y-10567000D01*
X7769571Y-10567000D01*
X7741000Y-10581286D01*
X7726714Y-10595572D01*
X7712428Y-10624143D01*
X8012428Y-10752714D02*
X8012428Y-10552714D01*
X8012428Y-10581286D02*
X8026714Y-10567000D01*
X8055286Y-10552714D01*
X8098143Y-10552714D01*
X8126714Y-10567000D01*
X8141000Y-10595572D01*
X8141000Y-10752714D01*
X8141000Y-10595572D02*
X8155286Y-10567000D01*
X8183857Y-10552714D01*
X8226714Y-10552714D01*
X8255286Y-10567000D01*
X8269571Y-10595572D01*
X8269571Y-10752714D01*
X8412428Y-10752714D02*
X8412428Y-10552714D01*
X8412428Y-10581286D02*
X8426714Y-10567000D01*
X8455286Y-10552714D01*
X8498143Y-10552714D01*
X8526714Y-10567000D01*
X8541000Y-10595572D01*
X8541000Y-10752714D01*
X8541000Y-10595572D02*
X8555286Y-10567000D01*
X8583857Y-10552714D01*
X8626714Y-10552714D01*
X8655286Y-10567000D01*
X8669571Y-10595572D01*
X8669571Y-10752714D01*
X9255286Y-10438429D02*
X8998143Y-10824143D01*
X9641000Y-10452714D02*
X9669571Y-10452714D01*
X9698143Y-10467000D01*
X9712428Y-10481286D01*
X9726714Y-10509857D01*
X9741000Y-10567000D01*
X9741000Y-10638429D01*
X9726714Y-10695572D01*
X9712428Y-10724143D01*
X9698143Y-10738429D01*
X9669571Y-10752714D01*
X9641000Y-10752714D01*
X9612428Y-10738429D01*
X9598143Y-10724143D01*
X9583857Y-10695572D01*
X9569571Y-10638429D01*
X9569571Y-10567000D01*
X9583857Y-10509857D01*
X9598143Y-10481286D01*
X9612428Y-10467000D01*
X9641000Y-10452714D01*
X9869571Y-10724143D02*
X9883857Y-10738429D01*
X9869571Y-10752714D01*
X9855286Y-10738429D01*
X9869571Y-10724143D01*
X9869571Y-10752714D01*
X10069571Y-10452714D02*
X10098143Y-10452714D01*
X10126714Y-10467000D01*
X10141000Y-10481286D01*
X10155286Y-10509857D01*
X10169571Y-10567000D01*
X10169571Y-10638429D01*
X10155286Y-10695572D01*
X10141000Y-10724143D01*
X10126714Y-10738429D01*
X10098143Y-10752714D01*
X10069571Y-10752714D01*
X10041000Y-10738429D01*
X10026714Y-10724143D01*
X10012428Y-10695572D01*
X9998143Y-10638429D01*
X9998143Y-10567000D01*
X10012428Y-10509857D01*
X10026714Y-10481286D01*
X10041000Y-10467000D01*
X10069571Y-10452714D01*
X10269571Y-10452714D02*
X10455286Y-10452714D01*
X10355286Y-10567000D01*
X10398143Y-10567000D01*
X10426714Y-10581286D01*
X10441000Y-10595572D01*
X10455286Y-10624143D01*
X10455286Y-10695572D01*
X10441000Y-10724143D01*
X10426714Y-10738429D01*
X10398143Y-10752714D01*
X10312428Y-10752714D01*
X10283857Y-10738429D01*
X10269571Y-10724143D01*
X10641000Y-10452714D02*
X10669571Y-10452714D01*
X10698143Y-10467000D01*
X10712428Y-10481286D01*
X10726714Y-10509857D01*
X10741000Y-10567000D01*
X10741000Y-10638429D01*
X10726714Y-10695572D01*
X10712428Y-10724143D01*
X10698143Y-10738429D01*
X10669571Y-10752714D01*
X10641000Y-10752714D01*
X10612428Y-10738429D01*
X10598143Y-10724143D01*
X10583857Y-10695572D01*
X10569571Y-10638429D01*
X10569571Y-10567000D01*
X10583857Y-10509857D01*
X10598143Y-10481286D01*
X10612428Y-10467000D01*
X10641000Y-10452714D01*
X10855286Y-10452714D02*
X10855286Y-10509857D01*
X10969571Y-10452714D02*
X10969571Y-10509857D01*
X11412428Y-10867000D02*
X11398143Y-10852714D01*
X11369571Y-10809857D01*
X11355286Y-10781286D01*
X11341000Y-10738429D01*
X11326714Y-10667000D01*
X11326714Y-10609857D01*
X11341000Y-10538429D01*
X11355286Y-10495572D01*
X11369571Y-10467000D01*
X11398143Y-10424143D01*
X11412428Y-10409857D01*
X11683857Y-10752714D02*
X11512428Y-10752714D01*
X11598143Y-10752714D02*
X11598143Y-10452714D01*
X11569571Y-10495572D01*
X11541000Y-10524143D01*
X11512428Y-10538429D01*
X11969571Y-10752714D02*
X11798143Y-10752714D01*
X11883857Y-10752714D02*
X11883857Y-10452714D01*
X11855286Y-10495572D01*
X11826714Y-10524143D01*
X11798143Y-10538429D01*
X12326714Y-10752714D02*
X12326714Y-10452714D01*
X12455286Y-10752714D02*
X12455286Y-10595572D01*
X12441000Y-10567000D01*
X12412428Y-10552714D01*
X12369571Y-10552714D01*
X12341000Y-10567000D01*
X12326714Y-10581286D01*
X12641000Y-10752714D02*
X12612428Y-10738429D01*
X12598143Y-10724143D01*
X12583857Y-10695572D01*
X12583857Y-10609857D01*
X12598143Y-10581286D01*
X12612428Y-10567000D01*
X12641000Y-10552714D01*
X12683857Y-10552714D01*
X12712428Y-10567000D01*
X12726714Y-10581286D01*
X12741000Y-10609857D01*
X12741000Y-10695572D01*
X12726714Y-10724143D01*
X12712428Y-10738429D01*
X12683857Y-10752714D01*
X12641000Y-10752714D01*
X12912428Y-10752714D02*
X12883857Y-10738429D01*
X12869571Y-10709857D01*
X12869571Y-10452714D01*
X13141000Y-10738429D02*
X13112428Y-10752714D01*
X13055286Y-10752714D01*
X13026714Y-10738429D01*
X13012428Y-10709857D01*
X13012428Y-10595572D01*
X13026714Y-10567000D01*
X13055286Y-10552714D01*
X13112428Y-10552714D01*
X13141000Y-10567000D01*
X13155286Y-10595572D01*
X13155286Y-10624143D01*
X13012428Y-10652714D01*
X13269571Y-10738429D02*
X13298143Y-10752714D01*
X13355286Y-10752714D01*
X13383857Y-10738429D01*
X13398143Y-10709857D01*
X13398143Y-10695572D01*
X13383857Y-10667000D01*
X13355286Y-10652714D01*
X13312428Y-10652714D01*
X13283857Y-10638429D01*
X13269571Y-10609857D01*
X13269571Y-10595572D01*
X13283857Y-10567000D01*
X13312428Y-10552714D01*
X13355286Y-10552714D01*
X13383857Y-10567000D01*
X13498143Y-10867000D02*
X13512428Y-10852714D01*
X13541000Y-10809857D01*
X13555286Y-10781286D01*
X13569571Y-10738429D01*
X13583857Y-10667000D01*
X13583857Y-10609857D01*
X13569571Y-10538429D01*
X13555286Y-10495572D01*
X13541000Y-10467000D01*
X13512428Y-10424143D01*
X13498143Y-10409857D01*
X6726000Y-11013000D02*
G75*
G03X6726000Y-11013000I-40000J0D01*
G01*
X7069571Y-10848714D02*
X7098143Y-10848714D01*
X7126714Y-10863000D01*
X7141000Y-10877286D01*
X7155286Y-10905857D01*
X7169571Y-10963000D01*
X7169571Y-11034429D01*
X7155286Y-11091572D01*
X7141000Y-11120143D01*
X7126714Y-11134429D01*
X7098143Y-11148714D01*
X7069571Y-11148714D01*
X7041000Y-11134429D01*
X7026714Y-11120143D01*
X7012428Y-11091572D01*
X6998143Y-11034429D01*
X6998143Y-10963000D01*
X7012428Y-10905857D01*
X7026714Y-10877286D01*
X7041000Y-10863000D01*
X7069571Y-10848714D01*
X7298143Y-11120143D02*
X7312428Y-11134429D01*
X7298143Y-11148714D01*
X7283857Y-11134429D01*
X7298143Y-11120143D01*
X7298143Y-11148714D01*
X7483857Y-10977286D02*
X7455286Y-10963000D01*
X7441000Y-10948714D01*
X7426714Y-10920143D01*
X7426714Y-10905857D01*
X7441000Y-10877286D01*
X7455286Y-10863000D01*
X7483857Y-10848714D01*
X7541000Y-10848714D01*
X7569571Y-10863000D01*
X7583857Y-10877286D01*
X7598143Y-10905857D01*
X7598143Y-10920143D01*
X7583857Y-10948714D01*
X7569571Y-10963000D01*
X7541000Y-10977286D01*
X7483857Y-10977286D01*
X7455286Y-10991572D01*
X7441000Y-11005857D01*
X7426714Y-11034429D01*
X7426714Y-11091572D01*
X7441000Y-11120143D01*
X7455286Y-11134429D01*
X7483857Y-11148714D01*
X7541000Y-11148714D01*
X7569571Y-11134429D01*
X7583857Y-11120143D01*
X7598143Y-11091572D01*
X7598143Y-11034429D01*
X7583857Y-11005857D01*
X7569571Y-10991572D01*
X7541000Y-10977286D01*
X7783857Y-10848714D02*
X7812428Y-10848714D01*
X7841000Y-10863000D01*
X7855286Y-10877286D01*
X7869571Y-10905857D01*
X7883857Y-10963000D01*
X7883857Y-11034429D01*
X7869571Y-11091572D01*
X7855286Y-11120143D01*
X7841000Y-11134429D01*
X7812428Y-11148714D01*
X7783857Y-11148714D01*
X7755286Y-11134429D01*
X7741000Y-11120143D01*
X7726714Y-11091572D01*
X7712428Y-11034429D01*
X7712428Y-10963000D01*
X7726714Y-10905857D01*
X7741000Y-10877286D01*
X7755286Y-10863000D01*
X7783857Y-10848714D01*
X8012428Y-11148714D02*
X8012428Y-10948714D01*
X8012428Y-10977286D02*
X8026714Y-10963000D01*
X8055286Y-10948714D01*
X8098143Y-10948714D01*
X8126714Y-10963000D01*
X8141000Y-10991572D01*
X8141000Y-11148714D01*
X8141000Y-10991572D02*
X8155286Y-10963000D01*
X8183857Y-10948714D01*
X8226714Y-10948714D01*
X8255286Y-10963000D01*
X8269571Y-10991572D01*
X8269571Y-11148714D01*
X8412428Y-11148714D02*
X8412428Y-10948714D01*
X8412428Y-10977286D02*
X8426714Y-10963000D01*
X8455286Y-10948714D01*
X8498143Y-10948714D01*
X8526714Y-10963000D01*
X8541000Y-10991572D01*
X8541000Y-11148714D01*
X8541000Y-10991572D02*
X8555286Y-10963000D01*
X8583857Y-10948714D01*
X8626714Y-10948714D01*
X8655286Y-10963000D01*
X8669571Y-10991572D01*
X8669571Y-11148714D01*
X9255286Y-10834429D02*
X8998143Y-11220143D01*
X9641000Y-10848714D02*
X9669571Y-10848714D01*
X9698143Y-10863000D01*
X9712428Y-10877286D01*
X9726714Y-10905857D01*
X9741000Y-10963000D01*
X9741000Y-11034429D01*
X9726714Y-11091572D01*
X9712428Y-11120143D01*
X9698143Y-11134429D01*
X9669571Y-11148714D01*
X9641000Y-11148714D01*
X9612428Y-11134429D01*
X9598143Y-11120143D01*
X9583857Y-11091572D01*
X9569571Y-11034429D01*
X9569571Y-10963000D01*
X9583857Y-10905857D01*
X9598143Y-10877286D01*
X9612428Y-10863000D01*
X9641000Y-10848714D01*
X9869571Y-11120143D02*
X9883857Y-11134429D01*
X9869571Y-11148714D01*
X9855286Y-11134429D01*
X9869571Y-11120143D01*
X9869571Y-11148714D01*
X10069571Y-10848714D02*
X10098143Y-10848714D01*
X10126714Y-10863000D01*
X10141000Y-10877286D01*
X10155286Y-10905857D01*
X10169571Y-10963000D01*
X10169571Y-11034429D01*
X10155286Y-11091572D01*
X10141000Y-11120143D01*
X10126714Y-11134429D01*
X10098143Y-11148714D01*
X10069571Y-11148714D01*
X10041000Y-11134429D01*
X10026714Y-11120143D01*
X10012428Y-11091572D01*
X9998143Y-11034429D01*
X9998143Y-10963000D01*
X10012428Y-10905857D01*
X10026714Y-10877286D01*
X10041000Y-10863000D01*
X10069571Y-10848714D01*
X10269571Y-10848714D02*
X10455286Y-10848714D01*
X10355286Y-10963000D01*
X10398143Y-10963000D01*
X10426714Y-10977286D01*
X10441000Y-10991572D01*
X10455286Y-11020143D01*
X10455286Y-11091572D01*
X10441000Y-11120143D01*
X10426714Y-11134429D01*
X10398143Y-11148714D01*
X10312428Y-11148714D01*
X10283857Y-11134429D01*
X10269571Y-11120143D01*
X10741000Y-11148714D02*
X10569571Y-11148714D01*
X10655286Y-11148714D02*
X10655286Y-10848714D01*
X10626714Y-10891572D01*
X10598143Y-10920143D01*
X10569571Y-10934429D01*
X10855286Y-10848714D02*
X10855286Y-10905857D01*
X10969571Y-10848714D02*
X10969571Y-10905857D01*
X11412428Y-11263000D02*
X11398143Y-11248714D01*
X11369571Y-11205857D01*
X11355286Y-11177286D01*
X11341000Y-11134429D01*
X11326714Y-11063000D01*
X11326714Y-11005857D01*
X11341000Y-10934429D01*
X11355286Y-10891572D01*
X11369571Y-10863000D01*
X11398143Y-10820143D01*
X11412428Y-10805857D01*
X11683857Y-11148714D02*
X11512428Y-11148714D01*
X11598143Y-11148714D02*
X11598143Y-10848714D01*
X11569571Y-10891572D01*
X11541000Y-10920143D01*
X11512428Y-10934429D01*
X11855286Y-10977286D02*
X11826714Y-10963000D01*
X11812428Y-10948714D01*
X11798143Y-10920143D01*
X11798143Y-10905857D01*
X11812428Y-10877286D01*
X11826714Y-10863000D01*
X11855286Y-10848714D01*
X11912428Y-10848714D01*
X11941000Y-10863000D01*
X11955286Y-10877286D01*
X11969571Y-10905857D01*
X11969571Y-10920143D01*
X11955286Y-10948714D01*
X11941000Y-10963000D01*
X11912428Y-10977286D01*
X11855286Y-10977286D01*
X11826714Y-10991572D01*
X11812428Y-11005857D01*
X11798143Y-11034429D01*
X11798143Y-11091572D01*
X11812428Y-11120143D01*
X11826714Y-11134429D01*
X11855286Y-11148714D01*
X11912428Y-11148714D01*
X11941000Y-11134429D01*
X11955286Y-11120143D01*
X11969571Y-11091572D01*
X11969571Y-11034429D01*
X11955286Y-11005857D01*
X11941000Y-10991572D01*
X11912428Y-10977286D01*
X12326714Y-11148714D02*
X12326714Y-10848714D01*
X12455286Y-11148714D02*
X12455286Y-10991572D01*
X12441000Y-10963000D01*
X12412428Y-10948714D01*
X12369571Y-10948714D01*
X12341000Y-10963000D01*
X12326714Y-10977286D01*
X12641000Y-11148714D02*
X12612428Y-11134429D01*
X12598143Y-11120143D01*
X12583857Y-11091572D01*
X12583857Y-11005857D01*
X12598143Y-10977286D01*
X12612428Y-10963000D01*
X12641000Y-10948714D01*
X12683857Y-10948714D01*
X12712428Y-10963000D01*
X12726714Y-10977286D01*
X12741000Y-11005857D01*
X12741000Y-11091572D01*
X12726714Y-11120143D01*
X12712428Y-11134429D01*
X12683857Y-11148714D01*
X12641000Y-11148714D01*
X12912428Y-11148714D02*
X12883857Y-11134429D01*
X12869571Y-11105857D01*
X12869571Y-10848714D01*
X13141000Y-11134429D02*
X13112428Y-11148714D01*
X13055286Y-11148714D01*
X13026714Y-11134429D01*
X13012428Y-11105857D01*
X13012428Y-10991572D01*
X13026714Y-10963000D01*
X13055286Y-10948714D01*
X13112428Y-10948714D01*
X13141000Y-10963000D01*
X13155286Y-10991572D01*
X13155286Y-11020143D01*
X13012428Y-11048714D01*
X13269571Y-11134429D02*
X13298143Y-11148714D01*
X13355286Y-11148714D01*
X13383857Y-11134429D01*
X13398143Y-11105857D01*
X13398143Y-11091572D01*
X13383857Y-11063000D01*
X13355286Y-11048714D01*
X13312428Y-11048714D01*
X13283857Y-11034429D01*
X13269571Y-11005857D01*
X13269571Y-10991572D01*
X13283857Y-10963000D01*
X13312428Y-10948714D01*
X13355286Y-10948714D01*
X13383857Y-10963000D01*
X13498143Y-11263000D02*
X13512428Y-11248714D01*
X13541000Y-11205857D01*
X13555286Y-11177286D01*
X13569571Y-11134429D01*
X13583857Y-11063000D01*
X13583857Y-11005857D01*
X13569571Y-10934429D01*
X13555286Y-10891572D01*
X13541000Y-10863000D01*
X13512428Y-10820143D01*
X13498143Y-10805857D01*
X6681000Y-11364000D02*
X6681000Y-11454000D01*
X6636000Y-11409000D02*
X6726000Y-11409000D01*
X7069571Y-11244714D02*
X7098143Y-11244714D01*
X7126714Y-11259000D01*
X7141000Y-11273286D01*
X7155286Y-11301857D01*
X7169571Y-11359000D01*
X7169571Y-11430429D01*
X7155286Y-11487571D01*
X7141000Y-11516143D01*
X7126714Y-11530429D01*
X7098143Y-11544714D01*
X7069571Y-11544714D01*
X7041000Y-11530429D01*
X7026714Y-11516143D01*
X7012428Y-11487571D01*
X6998143Y-11430429D01*
X6998143Y-11359000D01*
X7012428Y-11301857D01*
X7026714Y-11273286D01*
X7041000Y-11259000D01*
X7069571Y-11244714D01*
X7298143Y-11516143D02*
X7312428Y-11530429D01*
X7298143Y-11544714D01*
X7283857Y-11530429D01*
X7298143Y-11516143D01*
X7298143Y-11544714D01*
X7455286Y-11544714D02*
X7512428Y-11544714D01*
X7541000Y-11530429D01*
X7555286Y-11516143D01*
X7583857Y-11473286D01*
X7598143Y-11416143D01*
X7598143Y-11301857D01*
X7583857Y-11273286D01*
X7569571Y-11259000D01*
X7541000Y-11244714D01*
X7483857Y-11244714D01*
X7455286Y-11259000D01*
X7441000Y-11273286D01*
X7426714Y-11301857D01*
X7426714Y-11373286D01*
X7441000Y-11401857D01*
X7455286Y-11416143D01*
X7483857Y-11430429D01*
X7541000Y-11430429D01*
X7569571Y-11416143D01*
X7583857Y-11401857D01*
X7598143Y-11373286D01*
X7783857Y-11244714D02*
X7812428Y-11244714D01*
X7841000Y-11259000D01*
X7855286Y-11273286D01*
X7869571Y-11301857D01*
X7883857Y-11359000D01*
X7883857Y-11430429D01*
X7869571Y-11487571D01*
X7855286Y-11516143D01*
X7841000Y-11530429D01*
X7812428Y-11544714D01*
X7783857Y-11544714D01*
X7755286Y-11530429D01*
X7741000Y-11516143D01*
X7726714Y-11487571D01*
X7712428Y-11430429D01*
X7712428Y-11359000D01*
X7726714Y-11301857D01*
X7741000Y-11273286D01*
X7755286Y-11259000D01*
X7783857Y-11244714D01*
X8012428Y-11544714D02*
X8012428Y-11344714D01*
X8012428Y-11373286D02*
X8026714Y-11359000D01*
X8055286Y-11344714D01*
X8098143Y-11344714D01*
X8126714Y-11359000D01*
X8141000Y-11387571D01*
X8141000Y-11544714D01*
X8141000Y-11387571D02*
X8155286Y-11359000D01*
X8183857Y-11344714D01*
X8226714Y-11344714D01*
X8255286Y-11359000D01*
X8269571Y-11387571D01*
X8269571Y-11544714D01*
X8412428Y-11544714D02*
X8412428Y-11344714D01*
X8412428Y-11373286D02*
X8426714Y-11359000D01*
X8455286Y-11344714D01*
X8498143Y-11344714D01*
X8526714Y-11359000D01*
X8541000Y-11387571D01*
X8541000Y-11544714D01*
X8541000Y-11387571D02*
X8555286Y-11359000D01*
X8583857Y-11344714D01*
X8626714Y-11344714D01*
X8655286Y-11359000D01*
X8669571Y-11387571D01*
X8669571Y-11544714D01*
X9255286Y-11230429D02*
X8998143Y-11616143D01*
X9641000Y-11244714D02*
X9669571Y-11244714D01*
X9698143Y-11259000D01*
X9712428Y-11273286D01*
X9726714Y-11301857D01*
X9741000Y-11359000D01*
X9741000Y-11430429D01*
X9726714Y-11487571D01*
X9712428Y-11516143D01*
X9698143Y-11530429D01*
X9669571Y-11544714D01*
X9641000Y-11544714D01*
X9612428Y-11530429D01*
X9598143Y-11516143D01*
X9583857Y-11487571D01*
X9569571Y-11430429D01*
X9569571Y-11359000D01*
X9583857Y-11301857D01*
X9598143Y-11273286D01*
X9612428Y-11259000D01*
X9641000Y-11244714D01*
X9869571Y-11516143D02*
X9883857Y-11530429D01*
X9869571Y-11544714D01*
X9855286Y-11530429D01*
X9869571Y-11516143D01*
X9869571Y-11544714D01*
X10069571Y-11244714D02*
X10098143Y-11244714D01*
X10126714Y-11259000D01*
X10141000Y-11273286D01*
X10155286Y-11301857D01*
X10169571Y-11359000D01*
X10169571Y-11430429D01*
X10155286Y-11487571D01*
X10141000Y-11516143D01*
X10126714Y-11530429D01*
X10098143Y-11544714D01*
X10069571Y-11544714D01*
X10041000Y-11530429D01*
X10026714Y-11516143D01*
X10012428Y-11487571D01*
X9998143Y-11430429D01*
X9998143Y-11359000D01*
X10012428Y-11301857D01*
X10026714Y-11273286D01*
X10041000Y-11259000D01*
X10069571Y-11244714D01*
X10269571Y-11244714D02*
X10455286Y-11244714D01*
X10355286Y-11359000D01*
X10398143Y-11359000D01*
X10426714Y-11373286D01*
X10441000Y-11387571D01*
X10455286Y-11416143D01*
X10455286Y-11487571D01*
X10441000Y-11516143D01*
X10426714Y-11530429D01*
X10398143Y-11544714D01*
X10312428Y-11544714D01*
X10283857Y-11530429D01*
X10269571Y-11516143D01*
X10726714Y-11244714D02*
X10583857Y-11244714D01*
X10569571Y-11387571D01*
X10583857Y-11373286D01*
X10612428Y-11359000D01*
X10683857Y-11359000D01*
X10712428Y-11373286D01*
X10726714Y-11387571D01*
X10741000Y-11416143D01*
X10741000Y-11487571D01*
X10726714Y-11516143D01*
X10712428Y-11530429D01*
X10683857Y-11544714D01*
X10612428Y-11544714D01*
X10583857Y-11530429D01*
X10569571Y-11516143D01*
X10855286Y-11244714D02*
X10855286Y-11301857D01*
X10969571Y-11244714D02*
X10969571Y-11301857D01*
X11412428Y-11659000D02*
X11398143Y-11644714D01*
X11369571Y-11601857D01*
X11355286Y-11573286D01*
X11341000Y-11530429D01*
X11326714Y-11459000D01*
X11326714Y-11401857D01*
X11341000Y-11330429D01*
X11355286Y-11287571D01*
X11369571Y-11259000D01*
X11398143Y-11216143D01*
X11412428Y-11201857D01*
X11569571Y-11373286D02*
X11541000Y-11359000D01*
X11526714Y-11344714D01*
X11512428Y-11316143D01*
X11512428Y-11301857D01*
X11526714Y-11273286D01*
X11541000Y-11259000D01*
X11569571Y-11244714D01*
X11626714Y-11244714D01*
X11655286Y-11259000D01*
X11669571Y-11273286D01*
X11683857Y-11301857D01*
X11683857Y-11316143D01*
X11669571Y-11344714D01*
X11655286Y-11359000D01*
X11626714Y-11373286D01*
X11569571Y-11373286D01*
X11541000Y-11387571D01*
X11526714Y-11401857D01*
X11512428Y-11430429D01*
X11512428Y-11487571D01*
X11526714Y-11516143D01*
X11541000Y-11530429D01*
X11569571Y-11544714D01*
X11626714Y-11544714D01*
X11655286Y-11530429D01*
X11669571Y-11516143D01*
X11683857Y-11487571D01*
X11683857Y-11430429D01*
X11669571Y-11401857D01*
X11655286Y-11387571D01*
X11626714Y-11373286D01*
X12041000Y-11544714D02*
X12041000Y-11244714D01*
X12169571Y-11544714D02*
X12169571Y-11387571D01*
X12155286Y-11359000D01*
X12126714Y-11344714D01*
X12083857Y-11344714D01*
X12055286Y-11359000D01*
X12041000Y-11373286D01*
X12355286Y-11544714D02*
X12326714Y-11530429D01*
X12312428Y-11516143D01*
X12298143Y-11487571D01*
X12298143Y-11401857D01*
X12312428Y-11373286D01*
X12326714Y-11359000D01*
X12355286Y-11344714D01*
X12398143Y-11344714D01*
X12426714Y-11359000D01*
X12441000Y-11373286D01*
X12455286Y-11401857D01*
X12455286Y-11487571D01*
X12441000Y-11516143D01*
X12426714Y-11530429D01*
X12398143Y-11544714D01*
X12355286Y-11544714D01*
X12626714Y-11544714D02*
X12598143Y-11530429D01*
X12583857Y-11501857D01*
X12583857Y-11244714D01*
X12855286Y-11530429D02*
X12826714Y-11544714D01*
X12769571Y-11544714D01*
X12741000Y-11530429D01*
X12726714Y-11501857D01*
X12726714Y-11387571D01*
X12741000Y-11359000D01*
X12769571Y-11344714D01*
X12826714Y-11344714D01*
X12855286Y-11359000D01*
X12869571Y-11387571D01*
X12869571Y-11416143D01*
X12726714Y-11444714D01*
X12983857Y-11530429D02*
X13012428Y-11544714D01*
X13069571Y-11544714D01*
X13098143Y-11530429D01*
X13112428Y-11501857D01*
X13112428Y-11487571D01*
X13098143Y-11459000D01*
X13069571Y-11444714D01*
X13026714Y-11444714D01*
X12998143Y-11430429D01*
X12983857Y-11401857D01*
X12983857Y-11387571D01*
X12998143Y-11359000D01*
X13026714Y-11344714D01*
X13069571Y-11344714D01*
X13098143Y-11359000D01*
X13212428Y-11659000D02*
X13226714Y-11644714D01*
X13255286Y-11601857D01*
X13269571Y-11573286D01*
X13283857Y-11530429D01*
X13298143Y-11459000D01*
X13298143Y-11401857D01*
X13283857Y-11330429D01*
X13269571Y-11287571D01*
X13255286Y-11259000D01*
X13226714Y-11216143D01*
X13212428Y-11201857D01*
X6711356Y-11840356D02*
X6711356Y-11769644D01*
X6640644Y-11769644D01*
X6640644Y-11840356D01*
X6711356Y-11840356D01*
X7169571Y-11940714D02*
X6998143Y-11940714D01*
X7083857Y-11940714D02*
X7083857Y-11640714D01*
X7055286Y-11683571D01*
X7026714Y-11712143D01*
X6998143Y-11726429D01*
X7298143Y-11912143D02*
X7312428Y-11926429D01*
X7298143Y-11940714D01*
X7283857Y-11926429D01*
X7298143Y-11912143D01*
X7298143Y-11940714D01*
X7498143Y-11640714D02*
X7526714Y-11640714D01*
X7555286Y-11655000D01*
X7569571Y-11669286D01*
X7583857Y-11697857D01*
X7598143Y-11755000D01*
X7598143Y-11826429D01*
X7583857Y-11883571D01*
X7569571Y-11912143D01*
X7555286Y-11926429D01*
X7526714Y-11940714D01*
X7498143Y-11940714D01*
X7469571Y-11926429D01*
X7455286Y-11912143D01*
X7441000Y-11883571D01*
X7426714Y-11826429D01*
X7426714Y-11755000D01*
X7441000Y-11697857D01*
X7455286Y-11669286D01*
X7469571Y-11655000D01*
X7498143Y-11640714D01*
X7783857Y-11640714D02*
X7812428Y-11640714D01*
X7841000Y-11655000D01*
X7855286Y-11669286D01*
X7869571Y-11697857D01*
X7883857Y-11755000D01*
X7883857Y-11826429D01*
X7869571Y-11883571D01*
X7855286Y-11912143D01*
X7841000Y-11926429D01*
X7812428Y-11940714D01*
X7783857Y-11940714D01*
X7755286Y-11926429D01*
X7741000Y-11912143D01*
X7726714Y-11883571D01*
X7712428Y-11826429D01*
X7712428Y-11755000D01*
X7726714Y-11697857D01*
X7741000Y-11669286D01*
X7755286Y-11655000D01*
X7783857Y-11640714D01*
X8012428Y-11940714D02*
X8012428Y-11740714D01*
X8012428Y-11769286D02*
X8026714Y-11755000D01*
X8055286Y-11740714D01*
X8098143Y-11740714D01*
X8126714Y-11755000D01*
X8141000Y-11783571D01*
X8141000Y-11940714D01*
X8141000Y-11783571D02*
X8155286Y-11755000D01*
X8183857Y-11740714D01*
X8226714Y-11740714D01*
X8255286Y-11755000D01*
X8269571Y-11783571D01*
X8269571Y-11940714D01*
X8412428Y-11940714D02*
X8412428Y-11740714D01*
X8412428Y-11769286D02*
X8426714Y-11755000D01*
X8455286Y-11740714D01*
X8498143Y-11740714D01*
X8526714Y-11755000D01*
X8541000Y-11783571D01*
X8541000Y-11940714D01*
X8541000Y-11783571D02*
X8555286Y-11755000D01*
X8583857Y-11740714D01*
X8626714Y-11740714D01*
X8655286Y-11755000D01*
X8669571Y-11783571D01*
X8669571Y-11940714D01*
X9255286Y-11626429D02*
X8998143Y-12012143D01*
X9641000Y-11640714D02*
X9669571Y-11640714D01*
X9698143Y-11655000D01*
X9712428Y-11669286D01*
X9726714Y-11697857D01*
X9741000Y-11755000D01*
X9741000Y-11826429D01*
X9726714Y-11883571D01*
X9712428Y-11912143D01*
X9698143Y-11926429D01*
X9669571Y-11940714D01*
X9641000Y-11940714D01*
X9612428Y-11926429D01*
X9598143Y-11912143D01*
X9583857Y-11883571D01*
X9569571Y-11826429D01*
X9569571Y-11755000D01*
X9583857Y-11697857D01*
X9598143Y-11669286D01*
X9612428Y-11655000D01*
X9641000Y-11640714D01*
X9869571Y-11912143D02*
X9883857Y-11926429D01*
X9869571Y-11940714D01*
X9855286Y-11926429D01*
X9869571Y-11912143D01*
X9869571Y-11940714D01*
X10069571Y-11640714D02*
X10098143Y-11640714D01*
X10126714Y-11655000D01*
X10141000Y-11669286D01*
X10155286Y-11697857D01*
X10169571Y-11755000D01*
X10169571Y-11826429D01*
X10155286Y-11883571D01*
X10141000Y-11912143D01*
X10126714Y-11926429D01*
X10098143Y-11940714D01*
X10069571Y-11940714D01*
X10041000Y-11926429D01*
X10026714Y-11912143D01*
X10012428Y-11883571D01*
X9998143Y-11826429D01*
X9998143Y-11755000D01*
X10012428Y-11697857D01*
X10026714Y-11669286D01*
X10041000Y-11655000D01*
X10069571Y-11640714D01*
X10269571Y-11640714D02*
X10455286Y-11640714D01*
X10355286Y-11755000D01*
X10398143Y-11755000D01*
X10426714Y-11769286D01*
X10441000Y-11783571D01*
X10455286Y-11812143D01*
X10455286Y-11883571D01*
X10441000Y-11912143D01*
X10426714Y-11926429D01*
X10398143Y-11940714D01*
X10312428Y-11940714D01*
X10283857Y-11926429D01*
X10269571Y-11912143D01*
X10598143Y-11940714D02*
X10655286Y-11940714D01*
X10683857Y-11926429D01*
X10698143Y-11912143D01*
X10726714Y-11869286D01*
X10741000Y-11812143D01*
X10741000Y-11697857D01*
X10726714Y-11669286D01*
X10712428Y-11655000D01*
X10683857Y-11640714D01*
X10626714Y-11640714D01*
X10598143Y-11655000D01*
X10583857Y-11669286D01*
X10569571Y-11697857D01*
X10569571Y-11769286D01*
X10583857Y-11797857D01*
X10598143Y-11812143D01*
X10626714Y-11826429D01*
X10683857Y-11826429D01*
X10712428Y-11812143D01*
X10726714Y-11797857D01*
X10741000Y-11769286D01*
X10855286Y-11640714D02*
X10855286Y-11697857D01*
X10969571Y-11640714D02*
X10969571Y-11697857D01*
X11412428Y-12055000D02*
X11398143Y-12040714D01*
X11369571Y-11997857D01*
X11355286Y-11969286D01*
X11341000Y-11926429D01*
X11326714Y-11855000D01*
X11326714Y-11797857D01*
X11341000Y-11726429D01*
X11355286Y-11683571D01*
X11369571Y-11655000D01*
X11398143Y-11612143D01*
X11412428Y-11597857D01*
X11683857Y-11940714D02*
X11512428Y-11940714D01*
X11598143Y-11940714D02*
X11598143Y-11640714D01*
X11569571Y-11683571D01*
X11541000Y-11712143D01*
X11512428Y-11726429D01*
X11798143Y-11669286D02*
X11812428Y-11655000D01*
X11841000Y-11640714D01*
X11912428Y-11640714D01*
X11941000Y-11655000D01*
X11955286Y-11669286D01*
X11969571Y-11697857D01*
X11969571Y-11726429D01*
X11955286Y-11769286D01*
X11783857Y-11940714D01*
X11969571Y-11940714D01*
X12326714Y-11940714D02*
X12326714Y-11640714D01*
X12455286Y-11940714D02*
X12455286Y-11783571D01*
X12441000Y-11755000D01*
X12412428Y-11740714D01*
X12369571Y-11740714D01*
X12341000Y-11755000D01*
X12326714Y-11769286D01*
X12641000Y-11940714D02*
X12612428Y-11926429D01*
X12598143Y-11912143D01*
X12583857Y-11883571D01*
X12583857Y-11797857D01*
X12598143Y-11769286D01*
X12612428Y-11755000D01*
X12641000Y-11740714D01*
X12683857Y-11740714D01*
X12712428Y-11755000D01*
X12726714Y-11769286D01*
X12741000Y-11797857D01*
X12741000Y-11883571D01*
X12726714Y-11912143D01*
X12712428Y-11926429D01*
X12683857Y-11940714D01*
X12641000Y-11940714D01*
X12912428Y-11940714D02*
X12883857Y-11926429D01*
X12869571Y-11897857D01*
X12869571Y-11640714D01*
X13141000Y-11926429D02*
X13112428Y-11940714D01*
X13055286Y-11940714D01*
X13026714Y-11926429D01*
X13012428Y-11897857D01*
X13012428Y-11783571D01*
X13026714Y-11755000D01*
X13055286Y-11740714D01*
X13112428Y-11740714D01*
X13141000Y-11755000D01*
X13155286Y-11783571D01*
X13155286Y-11812143D01*
X13012428Y-11840714D01*
X13269571Y-11926429D02*
X13298143Y-11940714D01*
X13355286Y-11940714D01*
X13383857Y-11926429D01*
X13398143Y-11897857D01*
X13398143Y-11883571D01*
X13383857Y-11855000D01*
X13355286Y-11840714D01*
X13312428Y-11840714D01*
X13283857Y-11826429D01*
X13269571Y-11797857D01*
X13269571Y-11783571D01*
X13283857Y-11755000D01*
X13312428Y-11740714D01*
X13355286Y-11740714D01*
X13383857Y-11755000D01*
X13498143Y-12055000D02*
X13512428Y-12040714D01*
X13541000Y-11997857D01*
X13555286Y-11969286D01*
X13569571Y-11926429D01*
X13583857Y-11855000D01*
X13583857Y-11797857D01*
X13569571Y-11726429D01*
X13555286Y-11683571D01*
X13541000Y-11655000D01*
X13512428Y-11612143D01*
X13498143Y-11597857D01*
X6671000Y-12256000D02*
X6726000Y-12201000D01*
X6671000Y-12146000D01*
X6616000Y-12201000D01*
X6671000Y-12256000D01*
X7169571Y-12336714D02*
X6998143Y-12336714D01*
X7083857Y-12336714D02*
X7083857Y-12036714D01*
X7055286Y-12079571D01*
X7026714Y-12108143D01*
X6998143Y-12122429D01*
X7298143Y-12308143D02*
X7312428Y-12322429D01*
X7298143Y-12336714D01*
X7283857Y-12322429D01*
X7298143Y-12308143D01*
X7298143Y-12336714D01*
X7598143Y-12336714D02*
X7426714Y-12336714D01*
X7512428Y-12336714D02*
X7512428Y-12036714D01*
X7483857Y-12079571D01*
X7455286Y-12108143D01*
X7426714Y-12122429D01*
X7783857Y-12036714D02*
X7812428Y-12036714D01*
X7841000Y-12051000D01*
X7855286Y-12065286D01*
X7869571Y-12093857D01*
X7883857Y-12151000D01*
X7883857Y-12222429D01*
X7869571Y-12279571D01*
X7855286Y-12308143D01*
X7841000Y-12322429D01*
X7812428Y-12336714D01*
X7783857Y-12336714D01*
X7755286Y-12322429D01*
X7741000Y-12308143D01*
X7726714Y-12279571D01*
X7712428Y-12222429D01*
X7712428Y-12151000D01*
X7726714Y-12093857D01*
X7741000Y-12065286D01*
X7755286Y-12051000D01*
X7783857Y-12036714D01*
X8012428Y-12336714D02*
X8012428Y-12136714D01*
X8012428Y-12165286D02*
X8026714Y-12151000D01*
X8055286Y-12136714D01*
X8098143Y-12136714D01*
X8126714Y-12151000D01*
X8141000Y-12179571D01*
X8141000Y-12336714D01*
X8141000Y-12179571D02*
X8155286Y-12151000D01*
X8183857Y-12136714D01*
X8226714Y-12136714D01*
X8255286Y-12151000D01*
X8269571Y-12179571D01*
X8269571Y-12336714D01*
X8412428Y-12336714D02*
X8412428Y-12136714D01*
X8412428Y-12165286D02*
X8426714Y-12151000D01*
X8455286Y-12136714D01*
X8498143Y-12136714D01*
X8526714Y-12151000D01*
X8541000Y-12179571D01*
X8541000Y-12336714D01*
X8541000Y-12179571D02*
X8555286Y-12151000D01*
X8583857Y-12136714D01*
X8626714Y-12136714D01*
X8655286Y-12151000D01*
X8669571Y-12179571D01*
X8669571Y-12336714D01*
X9255286Y-12022429D02*
X8998143Y-12408143D01*
X9641000Y-12036714D02*
X9669571Y-12036714D01*
X9698143Y-12051000D01*
X9712428Y-12065286D01*
X9726714Y-12093857D01*
X9741000Y-12151000D01*
X9741000Y-12222429D01*
X9726714Y-12279571D01*
X9712428Y-12308143D01*
X9698143Y-12322429D01*
X9669571Y-12336714D01*
X9641000Y-12336714D01*
X9612428Y-12322429D01*
X9598143Y-12308143D01*
X9583857Y-12279571D01*
X9569571Y-12222429D01*
X9569571Y-12151000D01*
X9583857Y-12093857D01*
X9598143Y-12065286D01*
X9612428Y-12051000D01*
X9641000Y-12036714D01*
X9869571Y-12308143D02*
X9883857Y-12322429D01*
X9869571Y-12336714D01*
X9855286Y-12322429D01*
X9869571Y-12308143D01*
X9869571Y-12336714D01*
X10069571Y-12036714D02*
X10098143Y-12036714D01*
X10126714Y-12051000D01*
X10141000Y-12065286D01*
X10155286Y-12093857D01*
X10169571Y-12151000D01*
X10169571Y-12222429D01*
X10155286Y-12279571D01*
X10141000Y-12308143D01*
X10126714Y-12322429D01*
X10098143Y-12336714D01*
X10069571Y-12336714D01*
X10041000Y-12322429D01*
X10026714Y-12308143D01*
X10012428Y-12279571D01*
X9998143Y-12222429D01*
X9998143Y-12151000D01*
X10012428Y-12093857D01*
X10026714Y-12065286D01*
X10041000Y-12051000D01*
X10069571Y-12036714D01*
X10426714Y-12136714D02*
X10426714Y-12336714D01*
X10355286Y-12022429D02*
X10283857Y-12236714D01*
X10469571Y-12236714D01*
X10555286Y-12036714D02*
X10741000Y-12036714D01*
X10641000Y-12151000D01*
X10683857Y-12151000D01*
X10712428Y-12165286D01*
X10726714Y-12179571D01*
X10741000Y-12208143D01*
X10741000Y-12279571D01*
X10726714Y-12308143D01*
X10712428Y-12322429D01*
X10683857Y-12336714D01*
X10598143Y-12336714D01*
X10569571Y-12322429D01*
X10555286Y-12308143D01*
X10855286Y-12036714D02*
X10855286Y-12093857D01*
X10969571Y-12036714D02*
X10969571Y-12093857D01*
X11412428Y-12451000D02*
X11398143Y-12436714D01*
X11369571Y-12393857D01*
X11355286Y-12365286D01*
X11341000Y-12322429D01*
X11326714Y-12251000D01*
X11326714Y-12193857D01*
X11341000Y-12122429D01*
X11355286Y-12079571D01*
X11369571Y-12051000D01*
X11398143Y-12008143D01*
X11412428Y-11993857D01*
X11512428Y-12065286D02*
X11526714Y-12051000D01*
X11555286Y-12036714D01*
X11626714Y-12036714D01*
X11655286Y-12051000D01*
X11669571Y-12065286D01*
X11683857Y-12093857D01*
X11683857Y-12122429D01*
X11669571Y-12165286D01*
X11498143Y-12336714D01*
X11683857Y-12336714D01*
X11869571Y-12036714D02*
X11898143Y-12036714D01*
X11926714Y-12051000D01*
X11941000Y-12065286D01*
X11955286Y-12093857D01*
X11969571Y-12151000D01*
X11969571Y-12222429D01*
X11955286Y-12279571D01*
X11941000Y-12308143D01*
X11926714Y-12322429D01*
X11898143Y-12336714D01*
X11869571Y-12336714D01*
X11841000Y-12322429D01*
X11826714Y-12308143D01*
X11812428Y-12279571D01*
X11798143Y-12222429D01*
X11798143Y-12151000D01*
X11812428Y-12093857D01*
X11826714Y-12065286D01*
X11841000Y-12051000D01*
X11869571Y-12036714D01*
X12326714Y-12336714D02*
X12326714Y-12036714D01*
X12455286Y-12336714D02*
X12455286Y-12179571D01*
X12441000Y-12151000D01*
X12412428Y-12136714D01*
X12369571Y-12136714D01*
X12341000Y-12151000D01*
X12326714Y-12165286D01*
X12641000Y-12336714D02*
X12612428Y-12322429D01*
X12598143Y-12308143D01*
X12583857Y-12279571D01*
X12583857Y-12193857D01*
X12598143Y-12165286D01*
X12612428Y-12151000D01*
X12641000Y-12136714D01*
X12683857Y-12136714D01*
X12712428Y-12151000D01*
X12726714Y-12165286D01*
X12741000Y-12193857D01*
X12741000Y-12279571D01*
X12726714Y-12308143D01*
X12712428Y-12322429D01*
X12683857Y-12336714D01*
X12641000Y-12336714D01*
X12912428Y-12336714D02*
X12883857Y-12322429D01*
X12869571Y-12293857D01*
X12869571Y-12036714D01*
X13141000Y-12322429D02*
X13112428Y-12336714D01*
X13055286Y-12336714D01*
X13026714Y-12322429D01*
X13012428Y-12293857D01*
X13012428Y-12179571D01*
X13026714Y-12151000D01*
X13055286Y-12136714D01*
X13112428Y-12136714D01*
X13141000Y-12151000D01*
X13155286Y-12179571D01*
X13155286Y-12208143D01*
X13012428Y-12236714D01*
X13269571Y-12322429D02*
X13298143Y-12336714D01*
X13355286Y-12336714D01*
X13383857Y-12322429D01*
X13398143Y-12293857D01*
X13398143Y-12279571D01*
X13383857Y-12251000D01*
X13355286Y-12236714D01*
X13312428Y-12236714D01*
X13283857Y-12222429D01*
X13269571Y-12193857D01*
X13269571Y-12179571D01*
X13283857Y-12151000D01*
X13312428Y-12136714D01*
X13355286Y-12136714D01*
X13383857Y-12151000D01*
X13498143Y-12451000D02*
X13512428Y-12436714D01*
X13541000Y-12393857D01*
X13555286Y-12365286D01*
X13569571Y-12322429D01*
X13583857Y-12251000D01*
X13583857Y-12193857D01*
X13569571Y-12122429D01*
X13555286Y-12079571D01*
X13541000Y-12051000D01*
X13512428Y-12008143D01*
X13498143Y-11993857D01*
M02*
