G04 #@! TF.GenerationSoftware,KiCad,Pcbnew,5.1.5+dfsg1-2build2*
G04 #@! TF.CreationDate,2021-12-17T12:38:29-06:00*
G04 #@! TF.ProjectId,programming-board,70726f67-7261-46d6-9d69-6e672d626f61,rev?*
G04 #@! TF.SameCoordinates,Original*
G04 #@! TF.FileFunction,Legend,Top*
G04 #@! TF.FilePolarity,Positive*
%FSLAX46Y46*%
G04 Gerber Fmt 4.6, Leading zero omitted, Abs format (unit mm)*
G04 Created by KiCad (PCBNEW 5.1.5+dfsg1-2build2) date 2021-12-17 12:38:29*
%MOMM*%
%LPD*%
G04 APERTURE LIST*
%ADD10C,0.150000*%
%ADD11C,0.010000*%
%ADD12C,0.120000*%
%ADD13C,1.524000*%
%ADD14R,1.800000X1.800000*%
%ADD15C,1.800000*%
%ADD16R,1.700000X1.700000*%
%ADD17O,1.700000X1.700000*%
%ADD18C,1.600000*%
%ADD19O,1.600000X1.600000*%
%ADD20C,2.000000*%
G04 APERTURE END LIST*
D10*
X193327976Y-69429761D02*
X193470833Y-69477380D01*
X193708928Y-69477380D01*
X193804166Y-69429761D01*
X193851785Y-69382142D01*
X193899404Y-69286904D01*
X193899404Y-69191666D01*
X193851785Y-69096428D01*
X193804166Y-69048809D01*
X193708928Y-69001190D01*
X193518452Y-68953571D01*
X193423214Y-68905952D01*
X193375595Y-68858333D01*
X193327976Y-68763095D01*
X193327976Y-68667857D01*
X193375595Y-68572619D01*
X193423214Y-68525000D01*
X193518452Y-68477380D01*
X193756547Y-68477380D01*
X193899404Y-68525000D01*
X194756547Y-69429761D02*
X194661309Y-69477380D01*
X194470833Y-69477380D01*
X194375595Y-69429761D01*
X194327976Y-69382142D01*
X194280357Y-69286904D01*
X194280357Y-69001190D01*
X194327976Y-68905952D01*
X194375595Y-68858333D01*
X194470833Y-68810714D01*
X194661309Y-68810714D01*
X194756547Y-68858333D01*
X195185119Y-69477380D02*
X195185119Y-68810714D01*
X195185119Y-68477380D02*
X195137500Y-68525000D01*
X195185119Y-68572619D01*
X195232738Y-68525000D01*
X195185119Y-68477380D01*
X195185119Y-68572619D01*
X196042261Y-69429761D02*
X195947023Y-69477380D01*
X195756547Y-69477380D01*
X195661309Y-69429761D01*
X195613690Y-69334523D01*
X195613690Y-68953571D01*
X195661309Y-68858333D01*
X195756547Y-68810714D01*
X195947023Y-68810714D01*
X196042261Y-68858333D01*
X196089880Y-68953571D01*
X196089880Y-69048809D01*
X195613690Y-69144047D01*
X196518452Y-68810714D02*
X196518452Y-69477380D01*
X196518452Y-68905952D02*
X196566071Y-68858333D01*
X196661309Y-68810714D01*
X196804166Y-68810714D01*
X196899404Y-68858333D01*
X196947023Y-68953571D01*
X196947023Y-69477380D01*
X197851785Y-69429761D02*
X197756547Y-69477380D01*
X197566071Y-69477380D01*
X197470833Y-69429761D01*
X197423214Y-69382142D01*
X197375595Y-69286904D01*
X197375595Y-69001190D01*
X197423214Y-68905952D01*
X197470833Y-68858333D01*
X197566071Y-68810714D01*
X197756547Y-68810714D01*
X197851785Y-68858333D01*
X198661309Y-69429761D02*
X198566071Y-69477380D01*
X198375595Y-69477380D01*
X198280357Y-69429761D01*
X198232738Y-69334523D01*
X198232738Y-68953571D01*
X198280357Y-68858333D01*
X198375595Y-68810714D01*
X198566071Y-68810714D01*
X198661309Y-68858333D01*
X198708928Y-68953571D01*
X198708928Y-69048809D01*
X198232738Y-69144047D01*
X199899404Y-69477380D02*
X199899404Y-68477380D01*
X200232738Y-69191666D01*
X200566071Y-68477380D01*
X200566071Y-69477380D01*
X201470833Y-68810714D02*
X201470833Y-69477380D01*
X201042261Y-68810714D02*
X201042261Y-69334523D01*
X201089880Y-69429761D01*
X201185119Y-69477380D01*
X201327976Y-69477380D01*
X201423214Y-69429761D01*
X201470833Y-69382142D01*
X201899404Y-69429761D02*
X201994642Y-69477380D01*
X202185119Y-69477380D01*
X202280357Y-69429761D01*
X202327976Y-69334523D01*
X202327976Y-69286904D01*
X202280357Y-69191666D01*
X202185119Y-69144047D01*
X202042261Y-69144047D01*
X201947023Y-69096428D01*
X201899404Y-69001190D01*
X201899404Y-68953571D01*
X201947023Y-68858333D01*
X202042261Y-68810714D01*
X202185119Y-68810714D01*
X202280357Y-68858333D01*
X203137500Y-69429761D02*
X203042261Y-69477380D01*
X202851785Y-69477380D01*
X202756547Y-69429761D01*
X202708928Y-69334523D01*
X202708928Y-68953571D01*
X202756547Y-68858333D01*
X202851785Y-68810714D01*
X203042261Y-68810714D01*
X203137500Y-68858333D01*
X203185119Y-68953571D01*
X203185119Y-69048809D01*
X202708928Y-69144047D01*
X204042261Y-68810714D02*
X204042261Y-69477380D01*
X203613690Y-68810714D02*
X203613690Y-69334523D01*
X203661309Y-69429761D01*
X203756547Y-69477380D01*
X203899404Y-69477380D01*
X203994642Y-69429761D01*
X204042261Y-69382142D01*
X204518452Y-69477380D02*
X204518452Y-68810714D01*
X204518452Y-68905952D02*
X204566071Y-68858333D01*
X204661309Y-68810714D01*
X204804166Y-68810714D01*
X204899404Y-68858333D01*
X204947023Y-68953571D01*
X204947023Y-69477380D01*
X204947023Y-68953571D02*
X204994642Y-68858333D01*
X205089880Y-68810714D01*
X205232738Y-68810714D01*
X205327976Y-68858333D01*
X205375595Y-68953571D01*
X205375595Y-69477380D01*
X206756547Y-69477380D02*
X206661309Y-69429761D01*
X206613690Y-69382142D01*
X206566071Y-69286904D01*
X206566071Y-69001190D01*
X206613690Y-68905952D01*
X206661309Y-68858333D01*
X206756547Y-68810714D01*
X206899404Y-68810714D01*
X206994642Y-68858333D01*
X207042261Y-68905952D01*
X207089880Y-69001190D01*
X207089880Y-69286904D01*
X207042261Y-69382142D01*
X206994642Y-69429761D01*
X206899404Y-69477380D01*
X206756547Y-69477380D01*
X207375595Y-68810714D02*
X207756547Y-68810714D01*
X207518452Y-69477380D02*
X207518452Y-68620238D01*
X207566071Y-68525000D01*
X207661309Y-68477380D01*
X207756547Y-68477380D01*
X208851785Y-69477380D02*
X208851785Y-68477380D01*
X209185119Y-69191666D01*
X209518452Y-68477380D01*
X209518452Y-69477380D01*
X209994642Y-69477380D02*
X209994642Y-68810714D01*
X209994642Y-68477380D02*
X209947023Y-68525000D01*
X209994642Y-68572619D01*
X210042261Y-68525000D01*
X209994642Y-68477380D01*
X209994642Y-68572619D01*
X210470833Y-68810714D02*
X210470833Y-69477380D01*
X210470833Y-68905952D02*
X210518452Y-68858333D01*
X210613690Y-68810714D01*
X210756547Y-68810714D01*
X210851785Y-68858333D01*
X210899404Y-68953571D01*
X210899404Y-69477380D01*
X211375595Y-68810714D02*
X211375595Y-69477380D01*
X211375595Y-68905952D02*
X211423214Y-68858333D01*
X211518452Y-68810714D01*
X211661309Y-68810714D01*
X211756547Y-68858333D01*
X211804166Y-68953571D01*
X211804166Y-69477380D01*
X212661309Y-69429761D02*
X212566071Y-69477380D01*
X212375595Y-69477380D01*
X212280357Y-69429761D01*
X212232738Y-69334523D01*
X212232738Y-68953571D01*
X212280357Y-68858333D01*
X212375595Y-68810714D01*
X212566071Y-68810714D01*
X212661309Y-68858333D01*
X212708928Y-68953571D01*
X212708928Y-69048809D01*
X212232738Y-69144047D01*
X213089880Y-69429761D02*
X213185119Y-69477380D01*
X213375595Y-69477380D01*
X213470833Y-69429761D01*
X213518452Y-69334523D01*
X213518452Y-69286904D01*
X213470833Y-69191666D01*
X213375595Y-69144047D01*
X213232738Y-69144047D01*
X213137500Y-69096428D01*
X213089880Y-69001190D01*
X213089880Y-68953571D01*
X213137500Y-68858333D01*
X213232738Y-68810714D01*
X213375595Y-68810714D01*
X213470833Y-68858333D01*
X214089880Y-69477380D02*
X213994642Y-69429761D01*
X213947023Y-69382142D01*
X213899404Y-69286904D01*
X213899404Y-69001190D01*
X213947023Y-68905952D01*
X213994642Y-68858333D01*
X214089880Y-68810714D01*
X214232738Y-68810714D01*
X214327976Y-68858333D01*
X214375595Y-68905952D01*
X214423214Y-69001190D01*
X214423214Y-69286904D01*
X214375595Y-69382142D01*
X214327976Y-69429761D01*
X214232738Y-69477380D01*
X214089880Y-69477380D01*
X214708928Y-68810714D02*
X215089880Y-68810714D01*
X214851785Y-68477380D02*
X214851785Y-69334523D01*
X214899404Y-69429761D01*
X214994642Y-69477380D01*
X215089880Y-69477380D01*
X215851785Y-69477380D02*
X215851785Y-68953571D01*
X215804166Y-68858333D01*
X215708928Y-68810714D01*
X215518452Y-68810714D01*
X215423214Y-68858333D01*
X215851785Y-69429761D02*
X215756547Y-69477380D01*
X215518452Y-69477380D01*
X215423214Y-69429761D01*
X215375595Y-69334523D01*
X215375595Y-69239285D01*
X215423214Y-69144047D01*
X215518452Y-69096428D01*
X215756547Y-69096428D01*
X215851785Y-69048809D01*
X193947023Y-71127380D02*
X193613690Y-70651190D01*
X193375595Y-71127380D02*
X193375595Y-70127380D01*
X193756547Y-70127380D01*
X193851785Y-70175000D01*
X193899404Y-70222619D01*
X193947023Y-70317857D01*
X193947023Y-70460714D01*
X193899404Y-70555952D01*
X193851785Y-70603571D01*
X193756547Y-70651190D01*
X193375595Y-70651190D01*
X194708928Y-70603571D02*
X194375595Y-70603571D01*
X194375595Y-71127380D02*
X194375595Y-70127380D01*
X194851785Y-70127380D01*
X195232738Y-71127380D02*
X195232738Y-70127380D01*
X195708928Y-71127380D02*
X195708928Y-70127380D01*
X195947023Y-70127380D01*
X196089880Y-70175000D01*
X196185119Y-70270238D01*
X196232738Y-70365476D01*
X196280357Y-70555952D01*
X196280357Y-70698809D01*
X196232738Y-70889285D01*
X196185119Y-70984523D01*
X196089880Y-71079761D01*
X195947023Y-71127380D01*
X195708928Y-71127380D01*
X197470833Y-71127380D02*
X197470833Y-70127380D01*
X197851785Y-70127380D01*
X197947023Y-70175000D01*
X197994642Y-70222619D01*
X198042261Y-70317857D01*
X198042261Y-70460714D01*
X197994642Y-70555952D01*
X197947023Y-70603571D01*
X197851785Y-70651190D01*
X197470833Y-70651190D01*
X198470833Y-71127380D02*
X198470833Y-70460714D01*
X198470833Y-70651190D02*
X198518452Y-70555952D01*
X198566071Y-70508333D01*
X198661309Y-70460714D01*
X198756547Y-70460714D01*
X199232738Y-71127380D02*
X199137500Y-71079761D01*
X199089880Y-71032142D01*
X199042261Y-70936904D01*
X199042261Y-70651190D01*
X199089880Y-70555952D01*
X199137500Y-70508333D01*
X199232738Y-70460714D01*
X199375595Y-70460714D01*
X199470833Y-70508333D01*
X199518452Y-70555952D01*
X199566071Y-70651190D01*
X199566071Y-70936904D01*
X199518452Y-71032142D01*
X199470833Y-71079761D01*
X199375595Y-71127380D01*
X199232738Y-71127380D01*
X200423214Y-70460714D02*
X200423214Y-71270238D01*
X200375595Y-71365476D01*
X200327976Y-71413095D01*
X200232738Y-71460714D01*
X200089880Y-71460714D01*
X199994642Y-71413095D01*
X200423214Y-71079761D02*
X200327976Y-71127380D01*
X200137500Y-71127380D01*
X200042261Y-71079761D01*
X199994642Y-71032142D01*
X199947023Y-70936904D01*
X199947023Y-70651190D01*
X199994642Y-70555952D01*
X200042261Y-70508333D01*
X200137500Y-70460714D01*
X200327976Y-70460714D01*
X200423214Y-70508333D01*
X200899404Y-71127380D02*
X200899404Y-70460714D01*
X200899404Y-70651190D02*
X200947023Y-70555952D01*
X200994642Y-70508333D01*
X201089880Y-70460714D01*
X201185119Y-70460714D01*
X201947023Y-71127380D02*
X201947023Y-70603571D01*
X201899404Y-70508333D01*
X201804166Y-70460714D01*
X201613690Y-70460714D01*
X201518452Y-70508333D01*
X201947023Y-71079761D02*
X201851785Y-71127380D01*
X201613690Y-71127380D01*
X201518452Y-71079761D01*
X201470833Y-70984523D01*
X201470833Y-70889285D01*
X201518452Y-70794047D01*
X201613690Y-70746428D01*
X201851785Y-70746428D01*
X201947023Y-70698809D01*
X202423214Y-71127380D02*
X202423214Y-70460714D01*
X202423214Y-70555952D02*
X202470833Y-70508333D01*
X202566071Y-70460714D01*
X202708928Y-70460714D01*
X202804166Y-70508333D01*
X202851785Y-70603571D01*
X202851785Y-71127380D01*
X202851785Y-70603571D02*
X202899404Y-70508333D01*
X202994642Y-70460714D01*
X203137500Y-70460714D01*
X203232738Y-70508333D01*
X203280357Y-70603571D01*
X203280357Y-71127380D01*
X203756547Y-71127380D02*
X203756547Y-70460714D01*
X203756547Y-70555952D02*
X203804166Y-70508333D01*
X203899404Y-70460714D01*
X204042261Y-70460714D01*
X204137500Y-70508333D01*
X204185119Y-70603571D01*
X204185119Y-71127380D01*
X204185119Y-70603571D02*
X204232738Y-70508333D01*
X204327976Y-70460714D01*
X204470833Y-70460714D01*
X204566071Y-70508333D01*
X204613690Y-70603571D01*
X204613690Y-71127380D01*
X205470833Y-71079761D02*
X205375595Y-71127380D01*
X205185119Y-71127380D01*
X205089880Y-71079761D01*
X205042261Y-70984523D01*
X205042261Y-70603571D01*
X205089880Y-70508333D01*
X205185119Y-70460714D01*
X205375595Y-70460714D01*
X205470833Y-70508333D01*
X205518452Y-70603571D01*
X205518452Y-70698809D01*
X205042261Y-70794047D01*
X205947023Y-71127380D02*
X205947023Y-70460714D01*
X205947023Y-70651190D02*
X205994642Y-70555952D01*
X206042261Y-70508333D01*
X206137500Y-70460714D01*
X206232738Y-70460714D01*
X196128095Y-89352380D02*
X195794761Y-88876190D01*
X195556666Y-89352380D02*
X195556666Y-88352380D01*
X195937619Y-88352380D01*
X196032857Y-88400000D01*
X196080476Y-88447619D01*
X196128095Y-88542857D01*
X196128095Y-88685714D01*
X196080476Y-88780952D01*
X196032857Y-88828571D01*
X195937619Y-88876190D01*
X195556666Y-88876190D01*
X196937619Y-89304761D02*
X196842380Y-89352380D01*
X196651904Y-89352380D01*
X196556666Y-89304761D01*
X196509047Y-89209523D01*
X196509047Y-88828571D01*
X196556666Y-88733333D01*
X196651904Y-88685714D01*
X196842380Y-88685714D01*
X196937619Y-88733333D01*
X196985238Y-88828571D01*
X196985238Y-88923809D01*
X196509047Y-89019047D01*
X197366190Y-89304761D02*
X197461428Y-89352380D01*
X197651904Y-89352380D01*
X197747142Y-89304761D01*
X197794761Y-89209523D01*
X197794761Y-89161904D01*
X197747142Y-89066666D01*
X197651904Y-89019047D01*
X197509047Y-89019047D01*
X197413809Y-88971428D01*
X197366190Y-88876190D01*
X197366190Y-88828571D01*
X197413809Y-88733333D01*
X197509047Y-88685714D01*
X197651904Y-88685714D01*
X197747142Y-88733333D01*
X198604285Y-89304761D02*
X198509047Y-89352380D01*
X198318571Y-89352380D01*
X198223333Y-89304761D01*
X198175714Y-89209523D01*
X198175714Y-88828571D01*
X198223333Y-88733333D01*
X198318571Y-88685714D01*
X198509047Y-88685714D01*
X198604285Y-88733333D01*
X198651904Y-88828571D01*
X198651904Y-88923809D01*
X198175714Y-89019047D01*
X198937619Y-88685714D02*
X199318571Y-88685714D01*
X199080476Y-88352380D02*
X199080476Y-89209523D01*
X199128095Y-89304761D01*
X199223333Y-89352380D01*
X199318571Y-89352380D01*
X200985238Y-89257142D02*
X200937619Y-89304761D01*
X200794761Y-89352380D01*
X200699523Y-89352380D01*
X200556666Y-89304761D01*
X200461428Y-89209523D01*
X200413809Y-89114285D01*
X200366190Y-88923809D01*
X200366190Y-88780952D01*
X200413809Y-88590476D01*
X200461428Y-88495238D01*
X200556666Y-88400000D01*
X200699523Y-88352380D01*
X200794761Y-88352380D01*
X200937619Y-88400000D01*
X200985238Y-88447619D01*
X201413809Y-89352380D02*
X201413809Y-88352380D01*
X201842380Y-89352380D02*
X201842380Y-88828571D01*
X201794761Y-88733333D01*
X201699523Y-88685714D01*
X201556666Y-88685714D01*
X201461428Y-88733333D01*
X201413809Y-88780952D01*
X202318571Y-89352380D02*
X202318571Y-88685714D01*
X202318571Y-88352380D02*
X202270952Y-88400000D01*
X202318571Y-88447619D01*
X202366190Y-88400000D01*
X202318571Y-88352380D01*
X202318571Y-88447619D01*
X202794761Y-88685714D02*
X202794761Y-89685714D01*
X202794761Y-88733333D02*
X202890000Y-88685714D01*
X203080476Y-88685714D01*
X203175714Y-88733333D01*
X203223333Y-88780952D01*
X203270952Y-88876190D01*
X203270952Y-89161904D01*
X203223333Y-89257142D01*
X203175714Y-89304761D01*
X203080476Y-89352380D01*
X202890000Y-89352380D01*
X202794761Y-89304761D01*
X175466666Y-88432142D02*
X175419047Y-88479761D01*
X175276190Y-88527380D01*
X175180952Y-88527380D01*
X175038095Y-88479761D01*
X174942857Y-88384523D01*
X174895238Y-88289285D01*
X174847619Y-88098809D01*
X174847619Y-87955952D01*
X174895238Y-87765476D01*
X174942857Y-87670238D01*
X175038095Y-87575000D01*
X175180952Y-87527380D01*
X175276190Y-87527380D01*
X175419047Y-87575000D01*
X175466666Y-87622619D01*
X175800000Y-87860714D02*
X176038095Y-88527380D01*
X176276190Y-87860714D02*
X176038095Y-88527380D01*
X175942857Y-88765476D01*
X175895238Y-88813095D01*
X175800000Y-88860714D01*
X176514285Y-87860714D02*
X176895238Y-87860714D01*
X176657142Y-87527380D02*
X176657142Y-88384523D01*
X176704761Y-88479761D01*
X176800000Y-88527380D01*
X176895238Y-88527380D01*
X177371428Y-88527380D02*
X177276190Y-88479761D01*
X177228571Y-88432142D01*
X177180952Y-88336904D01*
X177180952Y-88051190D01*
X177228571Y-87955952D01*
X177276190Y-87908333D01*
X177371428Y-87860714D01*
X177514285Y-87860714D01*
X177609523Y-87908333D01*
X177657142Y-87955952D01*
X177704761Y-88051190D01*
X177704761Y-88336904D01*
X177657142Y-88432142D01*
X177609523Y-88479761D01*
X177514285Y-88527380D01*
X177371428Y-88527380D01*
X178085714Y-88479761D02*
X178180952Y-88527380D01*
X178371428Y-88527380D01*
X178466666Y-88479761D01*
X178514285Y-88384523D01*
X178514285Y-88336904D01*
X178466666Y-88241666D01*
X178371428Y-88194047D01*
X178228571Y-88194047D01*
X178133333Y-88146428D01*
X178085714Y-88051190D01*
X178085714Y-88003571D01*
X178133333Y-87908333D01*
X178228571Y-87860714D01*
X178371428Y-87860714D01*
X178466666Y-87908333D01*
X178942857Y-88527380D02*
X178942857Y-87860714D01*
X178942857Y-87527380D02*
X178895238Y-87575000D01*
X178942857Y-87622619D01*
X178990476Y-87575000D01*
X178942857Y-87527380D01*
X178942857Y-87622619D01*
X179419047Y-87860714D02*
X179419047Y-88527380D01*
X179419047Y-87955952D02*
X179466666Y-87908333D01*
X179561904Y-87860714D01*
X179704761Y-87860714D01*
X179800000Y-87908333D01*
X179847619Y-88003571D01*
X179847619Y-88527380D01*
X180704761Y-88479761D02*
X180609523Y-88527380D01*
X180419047Y-88527380D01*
X180323809Y-88479761D01*
X180276190Y-88384523D01*
X180276190Y-88003571D01*
X180323809Y-87908333D01*
X180419047Y-87860714D01*
X180609523Y-87860714D01*
X180704761Y-87908333D01*
X180752380Y-88003571D01*
X180752380Y-88098809D01*
X180276190Y-88194047D01*
X175347619Y-90558333D02*
X175300000Y-90510714D01*
X175204761Y-90367857D01*
X175157142Y-90272619D01*
X175109523Y-90129761D01*
X175061904Y-89891666D01*
X175061904Y-89701190D01*
X175109523Y-89463095D01*
X175157142Y-89320238D01*
X175204761Y-89225000D01*
X175300000Y-89082142D01*
X175347619Y-89034523D01*
X175633333Y-89510714D02*
X175871428Y-90177380D01*
X176109523Y-89510714D02*
X175871428Y-90177380D01*
X175776190Y-90415476D01*
X175728571Y-90463095D01*
X175633333Y-90510714D01*
X176871428Y-90129761D02*
X176776190Y-90177380D01*
X176585714Y-90177380D01*
X176490476Y-90129761D01*
X176442857Y-90034523D01*
X176442857Y-89653571D01*
X176490476Y-89558333D01*
X176585714Y-89510714D01*
X176776190Y-89510714D01*
X176871428Y-89558333D01*
X176919047Y-89653571D01*
X176919047Y-89748809D01*
X176442857Y-89844047D01*
X177490476Y-90177380D02*
X177395238Y-90129761D01*
X177347619Y-90034523D01*
X177347619Y-89177380D01*
X178014285Y-90177380D02*
X177919047Y-90129761D01*
X177871428Y-90034523D01*
X177871428Y-89177380D01*
X178538095Y-90177380D02*
X178442857Y-90129761D01*
X178395238Y-90082142D01*
X178347619Y-89986904D01*
X178347619Y-89701190D01*
X178395238Y-89605952D01*
X178442857Y-89558333D01*
X178538095Y-89510714D01*
X178680952Y-89510714D01*
X178776190Y-89558333D01*
X178823809Y-89605952D01*
X178871428Y-89701190D01*
X178871428Y-89986904D01*
X178823809Y-90082142D01*
X178776190Y-90129761D01*
X178680952Y-90177380D01*
X178538095Y-90177380D01*
X179204761Y-89510714D02*
X179395238Y-90177380D01*
X179585714Y-89701190D01*
X179776190Y-90177380D01*
X179966666Y-89510714D01*
X180252380Y-90558333D02*
X180300000Y-90510714D01*
X180395238Y-90367857D01*
X180442857Y-90272619D01*
X180490476Y-90129761D01*
X180538095Y-89891666D01*
X180538095Y-89701190D01*
X180490476Y-89463095D01*
X180442857Y-89320238D01*
X180395238Y-89225000D01*
X180300000Y-89082142D01*
X180252380Y-89034523D01*
X152725714Y-87575000D02*
X152630476Y-87527380D01*
X152487619Y-87527380D01*
X152344761Y-87575000D01*
X152249523Y-87670238D01*
X152201904Y-87765476D01*
X152154285Y-87955952D01*
X152154285Y-88098809D01*
X152201904Y-88289285D01*
X152249523Y-88384523D01*
X152344761Y-88479761D01*
X152487619Y-88527380D01*
X152582857Y-88527380D01*
X152725714Y-88479761D01*
X152773333Y-88432142D01*
X152773333Y-88098809D01*
X152582857Y-88098809D01*
X153630476Y-87860714D02*
X153630476Y-88527380D01*
X153201904Y-87860714D02*
X153201904Y-88384523D01*
X153249523Y-88479761D01*
X153344761Y-88527380D01*
X153487619Y-88527380D01*
X153582857Y-88479761D01*
X153630476Y-88432142D01*
X154535238Y-88527380D02*
X154535238Y-88003571D01*
X154487619Y-87908333D01*
X154392380Y-87860714D01*
X154201904Y-87860714D01*
X154106666Y-87908333D01*
X154535238Y-88479761D02*
X154440000Y-88527380D01*
X154201904Y-88527380D01*
X154106666Y-88479761D01*
X154059047Y-88384523D01*
X154059047Y-88289285D01*
X154106666Y-88194047D01*
X154201904Y-88146428D01*
X154440000Y-88146428D01*
X154535238Y-88098809D01*
X155011428Y-87860714D02*
X155011428Y-88527380D01*
X155011428Y-87955952D02*
X155059047Y-87908333D01*
X155154285Y-87860714D01*
X155297142Y-87860714D01*
X155392380Y-87908333D01*
X155440000Y-88003571D01*
X155440000Y-88527380D01*
X155916190Y-88527380D02*
X155916190Y-87860714D01*
X155916190Y-87527380D02*
X155868571Y-87575000D01*
X155916190Y-87622619D01*
X155963809Y-87575000D01*
X155916190Y-87527380D01*
X155916190Y-87622619D01*
X156392380Y-87860714D02*
X156392380Y-88527380D01*
X156392380Y-87955952D02*
X156440000Y-87908333D01*
X156535238Y-87860714D01*
X156678095Y-87860714D01*
X156773333Y-87908333D01*
X156820952Y-88003571D01*
X156820952Y-88527380D01*
X157678095Y-88479761D02*
X157582857Y-88527380D01*
X157392380Y-88527380D01*
X157297142Y-88479761D01*
X157249523Y-88384523D01*
X157249523Y-88003571D01*
X157297142Y-87908333D01*
X157392380Y-87860714D01*
X157582857Y-87860714D01*
X157678095Y-87908333D01*
X157725714Y-88003571D01*
X157725714Y-88098809D01*
X157249523Y-88194047D01*
X152440000Y-90558333D02*
X152392380Y-90510714D01*
X152297142Y-90367857D01*
X152249523Y-90272619D01*
X152201904Y-90129761D01*
X152154285Y-89891666D01*
X152154285Y-89701190D01*
X152201904Y-89463095D01*
X152249523Y-89320238D01*
X152297142Y-89225000D01*
X152392380Y-89082142D01*
X152440000Y-89034523D01*
X152820952Y-89510714D02*
X152820952Y-90510714D01*
X152820952Y-89558333D02*
X152916190Y-89510714D01*
X153106666Y-89510714D01*
X153201904Y-89558333D01*
X153249523Y-89605952D01*
X153297142Y-89701190D01*
X153297142Y-89986904D01*
X153249523Y-90082142D01*
X153201904Y-90129761D01*
X153106666Y-90177380D01*
X152916190Y-90177380D01*
X152820952Y-90129761D01*
X154154285Y-89510714D02*
X154154285Y-90177380D01*
X153725714Y-89510714D02*
X153725714Y-90034523D01*
X153773333Y-90129761D01*
X153868571Y-90177380D01*
X154011428Y-90177380D01*
X154106666Y-90129761D01*
X154154285Y-90082142D01*
X154630476Y-90177380D02*
X154630476Y-89510714D01*
X154630476Y-89701190D02*
X154678095Y-89605952D01*
X154725714Y-89558333D01*
X154820952Y-89510714D01*
X154916190Y-89510714D01*
X155249523Y-89510714D02*
X155249523Y-90510714D01*
X155249523Y-89558333D02*
X155344761Y-89510714D01*
X155535238Y-89510714D01*
X155630476Y-89558333D01*
X155678095Y-89605952D01*
X155725714Y-89701190D01*
X155725714Y-89986904D01*
X155678095Y-90082142D01*
X155630476Y-90129761D01*
X155535238Y-90177380D01*
X155344761Y-90177380D01*
X155249523Y-90129761D01*
X156297142Y-90177380D02*
X156201904Y-90129761D01*
X156154285Y-90034523D01*
X156154285Y-89177380D01*
X157059047Y-90129761D02*
X156963809Y-90177380D01*
X156773333Y-90177380D01*
X156678095Y-90129761D01*
X156630476Y-90034523D01*
X156630476Y-89653571D01*
X156678095Y-89558333D01*
X156773333Y-89510714D01*
X156963809Y-89510714D01*
X157059047Y-89558333D01*
X157106666Y-89653571D01*
X157106666Y-89748809D01*
X156630476Y-89844047D01*
X157440000Y-90558333D02*
X157487619Y-90510714D01*
X157582857Y-90367857D01*
X157630476Y-90272619D01*
X157678095Y-90129761D01*
X157725714Y-89891666D01*
X157725714Y-89701190D01*
X157678095Y-89463095D01*
X157630476Y-89320238D01*
X157582857Y-89225000D01*
X157487619Y-89082142D01*
X157440000Y-89034523D01*
X130445238Y-87527380D02*
X131016666Y-87527380D01*
X130730952Y-88527380D02*
X130730952Y-87527380D01*
X131350000Y-88527380D02*
X131350000Y-87527380D01*
X131778571Y-88527380D02*
X131778571Y-88003571D01*
X131730952Y-87908333D01*
X131635714Y-87860714D01*
X131492857Y-87860714D01*
X131397619Y-87908333D01*
X131350000Y-87955952D01*
X132159523Y-87860714D02*
X132397619Y-88527380D01*
X132635714Y-87860714D02*
X132397619Y-88527380D01*
X132302380Y-88765476D01*
X132254761Y-88813095D01*
X132159523Y-88860714D01*
X133016666Y-88527380D02*
X133016666Y-87860714D01*
X133016666Y-87955952D02*
X133064285Y-87908333D01*
X133159523Y-87860714D01*
X133302380Y-87860714D01*
X133397619Y-87908333D01*
X133445238Y-88003571D01*
X133445238Y-88527380D01*
X133445238Y-88003571D02*
X133492857Y-87908333D01*
X133588095Y-87860714D01*
X133730952Y-87860714D01*
X133826190Y-87908333D01*
X133873809Y-88003571D01*
X133873809Y-88527380D01*
X134350000Y-88527380D02*
X134350000Y-87860714D01*
X134350000Y-87527380D02*
X134302380Y-87575000D01*
X134350000Y-87622619D01*
X134397619Y-87575000D01*
X134350000Y-87527380D01*
X134350000Y-87622619D01*
X134826190Y-87860714D02*
X134826190Y-88527380D01*
X134826190Y-87955952D02*
X134873809Y-87908333D01*
X134969047Y-87860714D01*
X135111904Y-87860714D01*
X135207142Y-87908333D01*
X135254761Y-88003571D01*
X135254761Y-88527380D01*
X136111904Y-88479761D02*
X136016666Y-88527380D01*
X135826190Y-88527380D01*
X135730952Y-88479761D01*
X135683333Y-88384523D01*
X135683333Y-88003571D01*
X135730952Y-87908333D01*
X135826190Y-87860714D01*
X136016666Y-87860714D01*
X136111904Y-87908333D01*
X136159523Y-88003571D01*
X136159523Y-88098809D01*
X135683333Y-88194047D01*
X131611904Y-90558333D02*
X131564285Y-90510714D01*
X131469047Y-90367857D01*
X131421428Y-90272619D01*
X131373809Y-90129761D01*
X131326190Y-89891666D01*
X131326190Y-89701190D01*
X131373809Y-89463095D01*
X131421428Y-89320238D01*
X131469047Y-89225000D01*
X131564285Y-89082142D01*
X131611904Y-89034523D01*
X131992857Y-90177380D02*
X131992857Y-89177380D01*
X131992857Y-89558333D02*
X132088095Y-89510714D01*
X132278571Y-89510714D01*
X132373809Y-89558333D01*
X132421428Y-89605952D01*
X132469047Y-89701190D01*
X132469047Y-89986904D01*
X132421428Y-90082142D01*
X132373809Y-90129761D01*
X132278571Y-90177380D01*
X132088095Y-90177380D01*
X131992857Y-90129761D01*
X133040476Y-90177380D02*
X132945238Y-90129761D01*
X132897619Y-90034523D01*
X132897619Y-89177380D01*
X133850000Y-89510714D02*
X133850000Y-90177380D01*
X133421428Y-89510714D02*
X133421428Y-90034523D01*
X133469047Y-90129761D01*
X133564285Y-90177380D01*
X133707142Y-90177380D01*
X133802380Y-90129761D01*
X133850000Y-90082142D01*
X134707142Y-90129761D02*
X134611904Y-90177380D01*
X134421428Y-90177380D01*
X134326190Y-90129761D01*
X134278571Y-90034523D01*
X134278571Y-89653571D01*
X134326190Y-89558333D01*
X134421428Y-89510714D01*
X134611904Y-89510714D01*
X134707142Y-89558333D01*
X134754761Y-89653571D01*
X134754761Y-89748809D01*
X134278571Y-89844047D01*
X135088095Y-90558333D02*
X135135714Y-90510714D01*
X135230952Y-90367857D01*
X135278571Y-90272619D01*
X135326190Y-90129761D01*
X135373809Y-89891666D01*
X135373809Y-89701190D01*
X135326190Y-89463095D01*
X135278571Y-89320238D01*
X135230952Y-89225000D01*
X135135714Y-89082142D01*
X135088095Y-89034523D01*
X109069523Y-88241666D02*
X109545714Y-88241666D01*
X108974285Y-88527380D02*
X109307619Y-87527380D01*
X109640952Y-88527380D01*
X110402857Y-88527380D02*
X110402857Y-87527380D01*
X110402857Y-88479761D02*
X110307619Y-88527380D01*
X110117142Y-88527380D01*
X110021904Y-88479761D01*
X109974285Y-88432142D01*
X109926666Y-88336904D01*
X109926666Y-88051190D01*
X109974285Y-87955952D01*
X110021904Y-87908333D01*
X110117142Y-87860714D01*
X110307619Y-87860714D01*
X110402857Y-87908333D01*
X111260000Y-88479761D02*
X111164761Y-88527380D01*
X110974285Y-88527380D01*
X110879047Y-88479761D01*
X110831428Y-88384523D01*
X110831428Y-88003571D01*
X110879047Y-87908333D01*
X110974285Y-87860714D01*
X111164761Y-87860714D01*
X111260000Y-87908333D01*
X111307619Y-88003571D01*
X111307619Y-88098809D01*
X110831428Y-88194047D01*
X111736190Y-87860714D02*
X111736190Y-88527380D01*
X111736190Y-87955952D02*
X111783809Y-87908333D01*
X111879047Y-87860714D01*
X112021904Y-87860714D01*
X112117142Y-87908333D01*
X112164761Y-88003571D01*
X112164761Y-88527380D01*
X112640952Y-88527380D02*
X112640952Y-87860714D01*
X112640952Y-87527380D02*
X112593333Y-87575000D01*
X112640952Y-87622619D01*
X112688571Y-87575000D01*
X112640952Y-87527380D01*
X112640952Y-87622619D01*
X113117142Y-87860714D02*
X113117142Y-88527380D01*
X113117142Y-87955952D02*
X113164761Y-87908333D01*
X113260000Y-87860714D01*
X113402857Y-87860714D01*
X113498095Y-87908333D01*
X113545714Y-88003571D01*
X113545714Y-88527380D01*
X114402857Y-88479761D02*
X114307619Y-88527380D01*
X114117142Y-88527380D01*
X114021904Y-88479761D01*
X113974285Y-88384523D01*
X113974285Y-88003571D01*
X114021904Y-87908333D01*
X114117142Y-87860714D01*
X114307619Y-87860714D01*
X114402857Y-87908333D01*
X114450476Y-88003571D01*
X114450476Y-88098809D01*
X113974285Y-88194047D01*
X110426666Y-90558333D02*
X110379047Y-90510714D01*
X110283809Y-90367857D01*
X110236190Y-90272619D01*
X110188571Y-90129761D01*
X110140952Y-89891666D01*
X110140952Y-89701190D01*
X110188571Y-89463095D01*
X110236190Y-89320238D01*
X110283809Y-89225000D01*
X110379047Y-89082142D01*
X110426666Y-89034523D01*
X110807619Y-90177380D02*
X110807619Y-89510714D01*
X110807619Y-89701190D02*
X110855238Y-89605952D01*
X110902857Y-89558333D01*
X110998095Y-89510714D01*
X111093333Y-89510714D01*
X111807619Y-90129761D02*
X111712380Y-90177380D01*
X111521904Y-90177380D01*
X111426666Y-90129761D01*
X111379047Y-90034523D01*
X111379047Y-89653571D01*
X111426666Y-89558333D01*
X111521904Y-89510714D01*
X111712380Y-89510714D01*
X111807619Y-89558333D01*
X111855238Y-89653571D01*
X111855238Y-89748809D01*
X111379047Y-89844047D01*
X112712380Y-90177380D02*
X112712380Y-89177380D01*
X112712380Y-90129761D02*
X112617142Y-90177380D01*
X112426666Y-90177380D01*
X112331428Y-90129761D01*
X112283809Y-90082142D01*
X112236190Y-89986904D01*
X112236190Y-89701190D01*
X112283809Y-89605952D01*
X112331428Y-89558333D01*
X112426666Y-89510714D01*
X112617142Y-89510714D01*
X112712380Y-89558333D01*
X113093333Y-90558333D02*
X113140952Y-90510714D01*
X113236190Y-90367857D01*
X113283809Y-90272619D01*
X113331428Y-90129761D01*
X113379047Y-89891666D01*
X113379047Y-89701190D01*
X113331428Y-89463095D01*
X113283809Y-89320238D01*
X113236190Y-89225000D01*
X113140952Y-89082142D01*
X113093333Y-89034523D01*
D11*
G36*
X188905401Y-66816619D02*
G01*
X189623681Y-66944127D01*
X190236286Y-67124654D01*
X190700907Y-67326300D01*
X191067426Y-67558959D01*
X191335665Y-67822099D01*
X191505445Y-68115187D01*
X191576586Y-68437690D01*
X191548910Y-68789076D01*
X191422238Y-69168813D01*
X191196390Y-69576366D01*
X191104923Y-69710081D01*
X190785298Y-70095177D01*
X190375521Y-70487257D01*
X189887490Y-70879067D01*
X189333105Y-71263350D01*
X188724268Y-71632850D01*
X188072878Y-71980312D01*
X187390835Y-72298479D01*
X186690040Y-72580097D01*
X186033104Y-72802471D01*
X185608053Y-72932931D01*
X185608053Y-72684925D01*
X185638230Y-72406213D01*
X185719026Y-72097197D01*
X185835835Y-71802849D01*
X185968190Y-71575963D01*
X186142257Y-71337588D01*
X186263072Y-71161634D01*
X186341198Y-71029618D01*
X186387196Y-70923056D01*
X186411630Y-70823466D01*
X186416412Y-70791603D01*
X186437019Y-70681949D01*
X186478389Y-70609567D01*
X186564459Y-70552175D01*
X186719166Y-70487490D01*
X186759773Y-70471975D01*
X187240785Y-70274870D01*
X187711639Y-70055285D01*
X188155025Y-69822925D01*
X188553636Y-69587492D01*
X188890162Y-69358690D01*
X189147295Y-69146224D01*
X189178029Y-69116281D01*
X189415719Y-68828403D01*
X189562719Y-68537434D01*
X189618705Y-68253100D01*
X189583353Y-67985125D01*
X189456339Y-67743234D01*
X189237341Y-67537153D01*
X189230736Y-67532580D01*
X189033281Y-67414817D01*
X188818166Y-67326643D01*
X188567676Y-67264575D01*
X188264099Y-67225128D01*
X187889721Y-67204817D01*
X187540102Y-67200022D01*
X187107822Y-67204776D01*
X186740497Y-67223930D01*
X186407202Y-67262400D01*
X186077013Y-67325102D01*
X185719009Y-67416951D01*
X185302263Y-67542862D01*
X185221643Y-67568555D01*
X184685078Y-67760991D01*
X184246934Y-67962569D01*
X183908128Y-68172630D01*
X183669581Y-68390513D01*
X183532210Y-68615554D01*
X183495680Y-68810527D01*
X183543877Y-68971314D01*
X183675226Y-69117251D01*
X183869865Y-69231106D01*
X184041957Y-69284367D01*
X184314408Y-69311838D01*
X184645172Y-69299445D01*
X185014595Y-69252414D01*
X185403018Y-69175975D01*
X185790785Y-69075354D01*
X186158239Y-68955780D01*
X186485724Y-68822482D01*
X186753583Y-68680687D01*
X186942158Y-68535623D01*
X186969415Y-68505748D01*
X187084200Y-68320521D01*
X187105787Y-68158478D01*
X187042446Y-68024858D01*
X186902450Y-67924905D01*
X186694069Y-67863860D01*
X186425573Y-67846966D01*
X186105234Y-67879464D01*
X186009879Y-67897605D01*
X185731788Y-67971310D01*
X185487420Y-68065145D01*
X185284554Y-68171094D01*
X185130966Y-68281139D01*
X185034434Y-68387266D01*
X185002733Y-68481456D01*
X185043642Y-68555694D01*
X185164936Y-68601962D01*
X185315381Y-68613489D01*
X185510274Y-68602222D01*
X185686672Y-68572693D01*
X185821042Y-68531310D01*
X185889849Y-68484480D01*
X185890220Y-68456983D01*
X185827802Y-68439879D01*
X185722837Y-68459587D01*
X185513811Y-68512980D01*
X185331059Y-68532588D01*
X185206235Y-68515471D01*
X185193207Y-68508792D01*
X185154627Y-68446896D01*
X185216017Y-68370141D01*
X185377970Y-68278085D01*
X185641077Y-68170284D01*
X185649520Y-68167176D01*
X185901020Y-68091343D01*
X186161999Y-68040443D01*
X186410096Y-68015764D01*
X186622946Y-68018592D01*
X186778188Y-68050215D01*
X186846646Y-68098276D01*
X186884433Y-68236297D01*
X186823222Y-68374951D01*
X186667014Y-68511788D01*
X186419806Y-68644364D01*
X186085599Y-68770230D01*
X185668392Y-68886940D01*
X185490539Y-68928025D01*
X185068107Y-69007214D01*
X184694019Y-69050564D01*
X184377758Y-69058507D01*
X184128807Y-69031473D01*
X183956650Y-68969893D01*
X183870771Y-68874200D01*
X183865351Y-68854140D01*
X183866331Y-68694595D01*
X183937802Y-68544419D01*
X184086567Y-68397821D01*
X184319427Y-68249007D01*
X184643186Y-68092185D01*
X184872845Y-67996257D01*
X185459385Y-67783041D01*
X186004172Y-67633564D01*
X186539978Y-67540402D01*
X187076410Y-67497052D01*
X187577180Y-67496209D01*
X188010683Y-67535469D01*
X188372860Y-67611472D01*
X188659655Y-67720862D01*
X188867009Y-67860279D01*
X188990865Y-68026366D01*
X189027166Y-68215766D01*
X188971853Y-68425119D01*
X188820868Y-68651068D01*
X188663605Y-68810571D01*
X188483183Y-68946673D01*
X188226703Y-69104468D01*
X187915862Y-69273070D01*
X187572360Y-69441589D01*
X187217895Y-69599139D01*
X186874163Y-69734831D01*
X186702831Y-69794467D01*
X186114388Y-69962171D01*
X185462877Y-70102187D01*
X184786387Y-70206448D01*
X184720042Y-70214454D01*
X184418044Y-70240231D01*
X184075500Y-70253538D01*
X183714553Y-70255120D01*
X183357348Y-70245722D01*
X183026028Y-70226089D01*
X182742736Y-70196967D01*
X182529617Y-70159099D01*
X182459796Y-70138420D01*
X182195015Y-70000475D01*
X182017237Y-69818464D01*
X181924624Y-69600527D01*
X181915342Y-69354804D01*
X181987552Y-69089436D01*
X182139419Y-68812562D01*
X182369107Y-68532322D01*
X182674780Y-68256858D01*
X182924922Y-68076542D01*
X183548132Y-67716541D01*
X184238397Y-67410295D01*
X184979954Y-67159857D01*
X185757039Y-66967280D01*
X186553890Y-66834615D01*
X187354743Y-66763915D01*
X188143834Y-66757232D01*
X188905401Y-66816619D01*
G37*
X188905401Y-66816619D02*
X189623681Y-66944127D01*
X190236286Y-67124654D01*
X190700907Y-67326300D01*
X191067426Y-67558959D01*
X191335665Y-67822099D01*
X191505445Y-68115187D01*
X191576586Y-68437690D01*
X191548910Y-68789076D01*
X191422238Y-69168813D01*
X191196390Y-69576366D01*
X191104923Y-69710081D01*
X190785298Y-70095177D01*
X190375521Y-70487257D01*
X189887490Y-70879067D01*
X189333105Y-71263350D01*
X188724268Y-71632850D01*
X188072878Y-71980312D01*
X187390835Y-72298479D01*
X186690040Y-72580097D01*
X186033104Y-72802471D01*
X185608053Y-72932931D01*
X185608053Y-72684925D01*
X185638230Y-72406213D01*
X185719026Y-72097197D01*
X185835835Y-71802849D01*
X185968190Y-71575963D01*
X186142257Y-71337588D01*
X186263072Y-71161634D01*
X186341198Y-71029618D01*
X186387196Y-70923056D01*
X186411630Y-70823466D01*
X186416412Y-70791603D01*
X186437019Y-70681949D01*
X186478389Y-70609567D01*
X186564459Y-70552175D01*
X186719166Y-70487490D01*
X186759773Y-70471975D01*
X187240785Y-70274870D01*
X187711639Y-70055285D01*
X188155025Y-69822925D01*
X188553636Y-69587492D01*
X188890162Y-69358690D01*
X189147295Y-69146224D01*
X189178029Y-69116281D01*
X189415719Y-68828403D01*
X189562719Y-68537434D01*
X189618705Y-68253100D01*
X189583353Y-67985125D01*
X189456339Y-67743234D01*
X189237341Y-67537153D01*
X189230736Y-67532580D01*
X189033281Y-67414817D01*
X188818166Y-67326643D01*
X188567676Y-67264575D01*
X188264099Y-67225128D01*
X187889721Y-67204817D01*
X187540102Y-67200022D01*
X187107822Y-67204776D01*
X186740497Y-67223930D01*
X186407202Y-67262400D01*
X186077013Y-67325102D01*
X185719009Y-67416951D01*
X185302263Y-67542862D01*
X185221643Y-67568555D01*
X184685078Y-67760991D01*
X184246934Y-67962569D01*
X183908128Y-68172630D01*
X183669581Y-68390513D01*
X183532210Y-68615554D01*
X183495680Y-68810527D01*
X183543877Y-68971314D01*
X183675226Y-69117251D01*
X183869865Y-69231106D01*
X184041957Y-69284367D01*
X184314408Y-69311838D01*
X184645172Y-69299445D01*
X185014595Y-69252414D01*
X185403018Y-69175975D01*
X185790785Y-69075354D01*
X186158239Y-68955780D01*
X186485724Y-68822482D01*
X186753583Y-68680687D01*
X186942158Y-68535623D01*
X186969415Y-68505748D01*
X187084200Y-68320521D01*
X187105787Y-68158478D01*
X187042446Y-68024858D01*
X186902450Y-67924905D01*
X186694069Y-67863860D01*
X186425573Y-67846966D01*
X186105234Y-67879464D01*
X186009879Y-67897605D01*
X185731788Y-67971310D01*
X185487420Y-68065145D01*
X185284554Y-68171094D01*
X185130966Y-68281139D01*
X185034434Y-68387266D01*
X185002733Y-68481456D01*
X185043642Y-68555694D01*
X185164936Y-68601962D01*
X185315381Y-68613489D01*
X185510274Y-68602222D01*
X185686672Y-68572693D01*
X185821042Y-68531310D01*
X185889849Y-68484480D01*
X185890220Y-68456983D01*
X185827802Y-68439879D01*
X185722837Y-68459587D01*
X185513811Y-68512980D01*
X185331059Y-68532588D01*
X185206235Y-68515471D01*
X185193207Y-68508792D01*
X185154627Y-68446896D01*
X185216017Y-68370141D01*
X185377970Y-68278085D01*
X185641077Y-68170284D01*
X185649520Y-68167176D01*
X185901020Y-68091343D01*
X186161999Y-68040443D01*
X186410096Y-68015764D01*
X186622946Y-68018592D01*
X186778188Y-68050215D01*
X186846646Y-68098276D01*
X186884433Y-68236297D01*
X186823222Y-68374951D01*
X186667014Y-68511788D01*
X186419806Y-68644364D01*
X186085599Y-68770230D01*
X185668392Y-68886940D01*
X185490539Y-68928025D01*
X185068107Y-69007214D01*
X184694019Y-69050564D01*
X184377758Y-69058507D01*
X184128807Y-69031473D01*
X183956650Y-68969893D01*
X183870771Y-68874200D01*
X183865351Y-68854140D01*
X183866331Y-68694595D01*
X183937802Y-68544419D01*
X184086567Y-68397821D01*
X184319427Y-68249007D01*
X184643186Y-68092185D01*
X184872845Y-67996257D01*
X185459385Y-67783041D01*
X186004172Y-67633564D01*
X186539978Y-67540402D01*
X187076410Y-67497052D01*
X187577180Y-67496209D01*
X188010683Y-67535469D01*
X188372860Y-67611472D01*
X188659655Y-67720862D01*
X188867009Y-67860279D01*
X188990865Y-68026366D01*
X189027166Y-68215766D01*
X188971853Y-68425119D01*
X188820868Y-68651068D01*
X188663605Y-68810571D01*
X188483183Y-68946673D01*
X188226703Y-69104468D01*
X187915862Y-69273070D01*
X187572360Y-69441589D01*
X187217895Y-69599139D01*
X186874163Y-69734831D01*
X186702831Y-69794467D01*
X186114388Y-69962171D01*
X185462877Y-70102187D01*
X184786387Y-70206448D01*
X184720042Y-70214454D01*
X184418044Y-70240231D01*
X184075500Y-70253538D01*
X183714553Y-70255120D01*
X183357348Y-70245722D01*
X183026028Y-70226089D01*
X182742736Y-70196967D01*
X182529617Y-70159099D01*
X182459796Y-70138420D01*
X182195015Y-70000475D01*
X182017237Y-69818464D01*
X181924624Y-69600527D01*
X181915342Y-69354804D01*
X181987552Y-69089436D01*
X182139419Y-68812562D01*
X182369107Y-68532322D01*
X182674780Y-68256858D01*
X182924922Y-68076542D01*
X183548132Y-67716541D01*
X184238397Y-67410295D01*
X184979954Y-67159857D01*
X185757039Y-66967280D01*
X186553890Y-66834615D01*
X187354743Y-66763915D01*
X188143834Y-66757232D01*
X188905401Y-66816619D01*
D12*
X95170000Y-94120000D02*
X90170000Y-94120000D01*
X95170000Y-67720000D02*
X95170000Y-94120000D01*
X69870000Y-67720000D02*
X95170000Y-67720000D01*
X69870000Y-94120000D02*
X69870000Y-67720000D01*
X90170000Y-94120000D02*
X69870000Y-94120000D01*
X113432335Y-72581392D02*
G75*
G03X110200000Y-72424484I-1672335J-1078608D01*
G01*
X113432335Y-74738608D02*
G75*
G02X110200000Y-74895516I-1672335J1078608D01*
G01*
X112801130Y-72580163D02*
G75*
G03X110719039Y-72580000I-1041130J-1079837D01*
G01*
X112801130Y-74739837D02*
G75*
G02X110719039Y-74740000I-1041130J1079837D01*
G01*
X110200000Y-72424000D02*
X110200000Y-72580000D01*
X110200000Y-74740000D02*
X110200000Y-74896000D01*
X131790000Y-74740000D02*
X131790000Y-74896000D01*
X131790000Y-72424000D02*
X131790000Y-72580000D01*
X134391130Y-74739837D02*
G75*
G02X132309039Y-74740000I-1041130J1079837D01*
G01*
X134391130Y-72580163D02*
G75*
G03X132309039Y-72580000I-1041130J-1079837D01*
G01*
X135022335Y-74738608D02*
G75*
G02X131790000Y-74895516I-1672335J1078608D01*
G01*
X135022335Y-72581392D02*
G75*
G03X131790000Y-72424484I-1672335J-1078608D01*
G01*
X156612335Y-72581392D02*
G75*
G03X153380000Y-72424484I-1672335J-1078608D01*
G01*
X156612335Y-74738608D02*
G75*
G02X153380000Y-74895516I-1672335J1078608D01*
G01*
X155981130Y-72580163D02*
G75*
G03X153899039Y-72580000I-1041130J-1079837D01*
G01*
X155981130Y-74739837D02*
G75*
G02X153899039Y-74740000I-1041130J1079837D01*
G01*
X153380000Y-72424000D02*
X153380000Y-72580000D01*
X153380000Y-74740000D02*
X153380000Y-74896000D01*
X176240000Y-74740000D02*
X176240000Y-74896000D01*
X176240000Y-72424000D02*
X176240000Y-72580000D01*
X178841130Y-74739837D02*
G75*
G02X176759039Y-74740000I-1041130J1079837D01*
G01*
X178841130Y-72580163D02*
G75*
G03X176759039Y-72580000I-1041130J-1079837D01*
G01*
X179472335Y-74738608D02*
G75*
G02X176240000Y-74895516I-1672335J1078608D01*
G01*
X179472335Y-72581392D02*
G75*
G03X176240000Y-72424484I-1672335J-1078608D01*
G01*
X208220000Y-91500000D02*
X213420000Y-91500000D01*
X208220000Y-78740000D02*
X208220000Y-91500000D01*
X213420000Y-76140000D02*
X213420000Y-91500000D01*
X208220000Y-78740000D02*
X210820000Y-78740000D01*
X210820000Y-78740000D02*
X210820000Y-76140000D01*
X210820000Y-76140000D02*
X213420000Y-76140000D01*
X208220000Y-77470000D02*
X208220000Y-76140000D01*
X208220000Y-76140000D02*
X209550000Y-76140000D01*
X97690000Y-87090000D02*
X100430000Y-87090000D01*
X100430000Y-87090000D02*
X100430000Y-80550000D01*
X100430000Y-80550000D02*
X97690000Y-80550000D01*
X97690000Y-80550000D02*
X97690000Y-87090000D01*
X99060000Y-87860000D02*
X99060000Y-87090000D01*
X99060000Y-79780000D02*
X99060000Y-80550000D01*
X120650000Y-79780000D02*
X120650000Y-80550000D01*
X120650000Y-87860000D02*
X120650000Y-87090000D01*
X119280000Y-80550000D02*
X119280000Y-87090000D01*
X122020000Y-80550000D02*
X119280000Y-80550000D01*
X122020000Y-87090000D02*
X122020000Y-80550000D01*
X119280000Y-87090000D02*
X122020000Y-87090000D01*
X140870000Y-87090000D02*
X143610000Y-87090000D01*
X143610000Y-87090000D02*
X143610000Y-80550000D01*
X143610000Y-80550000D02*
X140870000Y-80550000D01*
X140870000Y-80550000D02*
X140870000Y-87090000D01*
X142240000Y-87860000D02*
X142240000Y-87090000D01*
X142240000Y-79780000D02*
X142240000Y-80550000D01*
X163830000Y-79780000D02*
X163830000Y-80550000D01*
X163830000Y-87860000D02*
X163830000Y-87090000D01*
X162460000Y-80550000D02*
X162460000Y-87090000D01*
X165200000Y-80550000D02*
X162460000Y-80550000D01*
X165200000Y-87090000D02*
X165200000Y-80550000D01*
X162460000Y-87090000D02*
X165200000Y-87090000D01*
X102770000Y-87090000D02*
X105510000Y-87090000D01*
X105510000Y-87090000D02*
X105510000Y-80550000D01*
X105510000Y-80550000D02*
X102770000Y-80550000D01*
X102770000Y-80550000D02*
X102770000Y-87090000D01*
X104140000Y-87860000D02*
X104140000Y-87090000D01*
X104140000Y-79780000D02*
X104140000Y-80550000D01*
X124360000Y-87090000D02*
X127100000Y-87090000D01*
X127100000Y-87090000D02*
X127100000Y-80550000D01*
X127100000Y-80550000D02*
X124360000Y-80550000D01*
X124360000Y-80550000D02*
X124360000Y-87090000D01*
X125730000Y-87860000D02*
X125730000Y-87090000D01*
X125730000Y-79780000D02*
X125730000Y-80550000D01*
X147320000Y-79780000D02*
X147320000Y-80550000D01*
X147320000Y-87860000D02*
X147320000Y-87090000D01*
X145950000Y-80550000D02*
X145950000Y-87090000D01*
X148690000Y-80550000D02*
X145950000Y-80550000D01*
X148690000Y-87090000D02*
X148690000Y-80550000D01*
X145950000Y-87090000D02*
X148690000Y-87090000D01*
X170180000Y-79780000D02*
X170180000Y-80550000D01*
X170180000Y-87860000D02*
X170180000Y-87090000D01*
X168810000Y-80550000D02*
X168810000Y-87090000D01*
X171550000Y-80550000D02*
X168810000Y-80550000D01*
X171550000Y-87090000D02*
X171550000Y-80550000D01*
X168810000Y-87090000D02*
X171550000Y-87090000D01*
X190400000Y-87090000D02*
X193140000Y-87090000D01*
X193140000Y-87090000D02*
X193140000Y-80550000D01*
X193140000Y-80550000D02*
X190400000Y-80550000D01*
X190400000Y-80550000D02*
X190400000Y-87090000D01*
X191770000Y-87860000D02*
X191770000Y-87090000D01*
X191770000Y-79780000D02*
X191770000Y-80550000D01*
X115820000Y-84280000D02*
X115820000Y-82780000D01*
X114570000Y-80280000D02*
X110070000Y-80280000D01*
X108820000Y-82780000D02*
X108820000Y-84280000D01*
X110070000Y-86780000D02*
X114570000Y-86780000D01*
X131660000Y-86780000D02*
X136160000Y-86780000D01*
X130410000Y-82780000D02*
X130410000Y-84280000D01*
X136160000Y-80280000D02*
X131660000Y-80280000D01*
X137410000Y-84280000D02*
X137410000Y-82780000D01*
X159000000Y-84280000D02*
X159000000Y-82780000D01*
X157750000Y-80280000D02*
X153250000Y-80280000D01*
X152000000Y-82780000D02*
X152000000Y-84280000D01*
X153250000Y-86780000D02*
X157750000Y-86780000D01*
X176110000Y-86780000D02*
X180610000Y-86780000D01*
X174860000Y-82780000D02*
X174860000Y-84280000D01*
X180610000Y-80280000D02*
X176110000Y-80280000D01*
X181860000Y-84280000D02*
X181860000Y-82780000D01*
X196580000Y-86780000D02*
X201080000Y-86780000D01*
X195330000Y-82780000D02*
X195330000Y-84280000D01*
X201080000Y-80280000D02*
X196580000Y-80280000D01*
X202330000Y-84280000D02*
X202330000Y-82780000D01*
D10*
X81408095Y-71272380D02*
X81408095Y-72081904D01*
X81455714Y-72177142D01*
X81503333Y-72224761D01*
X81598571Y-72272380D01*
X81789047Y-72272380D01*
X81884285Y-72224761D01*
X81931904Y-72177142D01*
X81979523Y-72081904D01*
X81979523Y-71272380D01*
X82979523Y-72272380D02*
X82408095Y-72272380D01*
X82693809Y-72272380D02*
X82693809Y-71272380D01*
X82598571Y-71415238D01*
X82503333Y-71510476D01*
X82408095Y-71558095D01*
X111021904Y-71152380D02*
X111021904Y-70152380D01*
X111260000Y-70152380D01*
X111402857Y-70200000D01*
X111498095Y-70295238D01*
X111545714Y-70390476D01*
X111593333Y-70580952D01*
X111593333Y-70723809D01*
X111545714Y-70914285D01*
X111498095Y-71009523D01*
X111402857Y-71104761D01*
X111260000Y-71152380D01*
X111021904Y-71152380D01*
X112545714Y-71152380D02*
X111974285Y-71152380D01*
X112260000Y-71152380D02*
X112260000Y-70152380D01*
X112164761Y-70295238D01*
X112069523Y-70390476D01*
X111974285Y-70438095D01*
X132611904Y-71152380D02*
X132611904Y-70152380D01*
X132850000Y-70152380D01*
X132992857Y-70200000D01*
X133088095Y-70295238D01*
X133135714Y-70390476D01*
X133183333Y-70580952D01*
X133183333Y-70723809D01*
X133135714Y-70914285D01*
X133088095Y-71009523D01*
X132992857Y-71104761D01*
X132850000Y-71152380D01*
X132611904Y-71152380D01*
X133564285Y-70247619D02*
X133611904Y-70200000D01*
X133707142Y-70152380D01*
X133945238Y-70152380D01*
X134040476Y-70200000D01*
X134088095Y-70247619D01*
X134135714Y-70342857D01*
X134135714Y-70438095D01*
X134088095Y-70580952D01*
X133516666Y-71152380D01*
X134135714Y-71152380D01*
X154201904Y-71152380D02*
X154201904Y-70152380D01*
X154440000Y-70152380D01*
X154582857Y-70200000D01*
X154678095Y-70295238D01*
X154725714Y-70390476D01*
X154773333Y-70580952D01*
X154773333Y-70723809D01*
X154725714Y-70914285D01*
X154678095Y-71009523D01*
X154582857Y-71104761D01*
X154440000Y-71152380D01*
X154201904Y-71152380D01*
X155106666Y-70152380D02*
X155725714Y-70152380D01*
X155392380Y-70533333D01*
X155535238Y-70533333D01*
X155630476Y-70580952D01*
X155678095Y-70628571D01*
X155725714Y-70723809D01*
X155725714Y-70961904D01*
X155678095Y-71057142D01*
X155630476Y-71104761D01*
X155535238Y-71152380D01*
X155249523Y-71152380D01*
X155154285Y-71104761D01*
X155106666Y-71057142D01*
X177061904Y-71152380D02*
X177061904Y-70152380D01*
X177300000Y-70152380D01*
X177442857Y-70200000D01*
X177538095Y-70295238D01*
X177585714Y-70390476D01*
X177633333Y-70580952D01*
X177633333Y-70723809D01*
X177585714Y-70914285D01*
X177538095Y-71009523D01*
X177442857Y-71104761D01*
X177300000Y-71152380D01*
X177061904Y-71152380D01*
X178490476Y-70485714D02*
X178490476Y-71152380D01*
X178252380Y-70104761D02*
X178014285Y-70819047D01*
X178633333Y-70819047D01*
X210486666Y-71842380D02*
X210486666Y-72556666D01*
X210439047Y-72699523D01*
X210343809Y-72794761D01*
X210200952Y-72842380D01*
X210105714Y-72842380D01*
X211486666Y-72842380D02*
X210915238Y-72842380D01*
X211200952Y-72842380D02*
X211200952Y-71842380D01*
X211105714Y-71985238D01*
X211010476Y-72080476D01*
X210915238Y-72128095D01*
X97142380Y-83986666D02*
X96666190Y-84320000D01*
X97142380Y-84558095D02*
X96142380Y-84558095D01*
X96142380Y-84177142D01*
X96190000Y-84081904D01*
X96237619Y-84034285D01*
X96332857Y-83986666D01*
X96475714Y-83986666D01*
X96570952Y-84034285D01*
X96618571Y-84081904D01*
X96666190Y-84177142D01*
X96666190Y-84558095D01*
X97142380Y-83034285D02*
X97142380Y-83605714D01*
X97142380Y-83320000D02*
X96142380Y-83320000D01*
X96285238Y-83415238D01*
X96380476Y-83510476D01*
X96428095Y-83605714D01*
X118732380Y-83986666D02*
X118256190Y-84320000D01*
X118732380Y-84558095D02*
X117732380Y-84558095D01*
X117732380Y-84177142D01*
X117780000Y-84081904D01*
X117827619Y-84034285D01*
X117922857Y-83986666D01*
X118065714Y-83986666D01*
X118160952Y-84034285D01*
X118208571Y-84081904D01*
X118256190Y-84177142D01*
X118256190Y-84558095D01*
X117827619Y-83605714D02*
X117780000Y-83558095D01*
X117732380Y-83462857D01*
X117732380Y-83224761D01*
X117780000Y-83129523D01*
X117827619Y-83081904D01*
X117922857Y-83034285D01*
X118018095Y-83034285D01*
X118160952Y-83081904D01*
X118732380Y-83653333D01*
X118732380Y-83034285D01*
X140322380Y-83986666D02*
X139846190Y-84320000D01*
X140322380Y-84558095D02*
X139322380Y-84558095D01*
X139322380Y-84177142D01*
X139370000Y-84081904D01*
X139417619Y-84034285D01*
X139512857Y-83986666D01*
X139655714Y-83986666D01*
X139750952Y-84034285D01*
X139798571Y-84081904D01*
X139846190Y-84177142D01*
X139846190Y-84558095D01*
X139322380Y-83653333D02*
X139322380Y-83034285D01*
X139703333Y-83367619D01*
X139703333Y-83224761D01*
X139750952Y-83129523D01*
X139798571Y-83081904D01*
X139893809Y-83034285D01*
X140131904Y-83034285D01*
X140227142Y-83081904D01*
X140274761Y-83129523D01*
X140322380Y-83224761D01*
X140322380Y-83510476D01*
X140274761Y-83605714D01*
X140227142Y-83653333D01*
X161912380Y-83986666D02*
X161436190Y-84320000D01*
X161912380Y-84558095D02*
X160912380Y-84558095D01*
X160912380Y-84177142D01*
X160960000Y-84081904D01*
X161007619Y-84034285D01*
X161102857Y-83986666D01*
X161245714Y-83986666D01*
X161340952Y-84034285D01*
X161388571Y-84081904D01*
X161436190Y-84177142D01*
X161436190Y-84558095D01*
X161245714Y-83129523D02*
X161912380Y-83129523D01*
X160864761Y-83367619D02*
X161579047Y-83605714D01*
X161579047Y-82986666D01*
X102222380Y-83986666D02*
X101746190Y-84320000D01*
X102222380Y-84558095D02*
X101222380Y-84558095D01*
X101222380Y-84177142D01*
X101270000Y-84081904D01*
X101317619Y-84034285D01*
X101412857Y-83986666D01*
X101555714Y-83986666D01*
X101650952Y-84034285D01*
X101698571Y-84081904D01*
X101746190Y-84177142D01*
X101746190Y-84558095D01*
X101222380Y-83081904D02*
X101222380Y-83558095D01*
X101698571Y-83605714D01*
X101650952Y-83558095D01*
X101603333Y-83462857D01*
X101603333Y-83224761D01*
X101650952Y-83129523D01*
X101698571Y-83081904D01*
X101793809Y-83034285D01*
X102031904Y-83034285D01*
X102127142Y-83081904D01*
X102174761Y-83129523D01*
X102222380Y-83224761D01*
X102222380Y-83462857D01*
X102174761Y-83558095D01*
X102127142Y-83605714D01*
X123812380Y-83986666D02*
X123336190Y-84320000D01*
X123812380Y-84558095D02*
X122812380Y-84558095D01*
X122812380Y-84177142D01*
X122860000Y-84081904D01*
X122907619Y-84034285D01*
X123002857Y-83986666D01*
X123145714Y-83986666D01*
X123240952Y-84034285D01*
X123288571Y-84081904D01*
X123336190Y-84177142D01*
X123336190Y-84558095D01*
X122812380Y-83129523D02*
X122812380Y-83320000D01*
X122860000Y-83415238D01*
X122907619Y-83462857D01*
X123050476Y-83558095D01*
X123240952Y-83605714D01*
X123621904Y-83605714D01*
X123717142Y-83558095D01*
X123764761Y-83510476D01*
X123812380Y-83415238D01*
X123812380Y-83224761D01*
X123764761Y-83129523D01*
X123717142Y-83081904D01*
X123621904Y-83034285D01*
X123383809Y-83034285D01*
X123288571Y-83081904D01*
X123240952Y-83129523D01*
X123193333Y-83224761D01*
X123193333Y-83415238D01*
X123240952Y-83510476D01*
X123288571Y-83558095D01*
X123383809Y-83605714D01*
X145402380Y-83986666D02*
X144926190Y-84320000D01*
X145402380Y-84558095D02*
X144402380Y-84558095D01*
X144402380Y-84177142D01*
X144450000Y-84081904D01*
X144497619Y-84034285D01*
X144592857Y-83986666D01*
X144735714Y-83986666D01*
X144830952Y-84034285D01*
X144878571Y-84081904D01*
X144926190Y-84177142D01*
X144926190Y-84558095D01*
X144402380Y-83653333D02*
X144402380Y-82986666D01*
X145402380Y-83415238D01*
X168262380Y-83986666D02*
X167786190Y-84320000D01*
X168262380Y-84558095D02*
X167262380Y-84558095D01*
X167262380Y-84177142D01*
X167310000Y-84081904D01*
X167357619Y-84034285D01*
X167452857Y-83986666D01*
X167595714Y-83986666D01*
X167690952Y-84034285D01*
X167738571Y-84081904D01*
X167786190Y-84177142D01*
X167786190Y-84558095D01*
X167690952Y-83415238D02*
X167643333Y-83510476D01*
X167595714Y-83558095D01*
X167500476Y-83605714D01*
X167452857Y-83605714D01*
X167357619Y-83558095D01*
X167310000Y-83510476D01*
X167262380Y-83415238D01*
X167262380Y-83224761D01*
X167310000Y-83129523D01*
X167357619Y-83081904D01*
X167452857Y-83034285D01*
X167500476Y-83034285D01*
X167595714Y-83081904D01*
X167643333Y-83129523D01*
X167690952Y-83224761D01*
X167690952Y-83415238D01*
X167738571Y-83510476D01*
X167786190Y-83558095D01*
X167881428Y-83605714D01*
X168071904Y-83605714D01*
X168167142Y-83558095D01*
X168214761Y-83510476D01*
X168262380Y-83415238D01*
X168262380Y-83224761D01*
X168214761Y-83129523D01*
X168167142Y-83081904D01*
X168071904Y-83034285D01*
X167881428Y-83034285D01*
X167786190Y-83081904D01*
X167738571Y-83129523D01*
X167690952Y-83224761D01*
X189852380Y-83986666D02*
X189376190Y-84320000D01*
X189852380Y-84558095D02*
X188852380Y-84558095D01*
X188852380Y-84177142D01*
X188900000Y-84081904D01*
X188947619Y-84034285D01*
X189042857Y-83986666D01*
X189185714Y-83986666D01*
X189280952Y-84034285D01*
X189328571Y-84081904D01*
X189376190Y-84177142D01*
X189376190Y-84558095D01*
X189852380Y-83510476D02*
X189852380Y-83320000D01*
X189804761Y-83224761D01*
X189757142Y-83177142D01*
X189614285Y-83081904D01*
X189423809Y-83034285D01*
X189042857Y-83034285D01*
X188947619Y-83081904D01*
X188900000Y-83129523D01*
X188852380Y-83224761D01*
X188852380Y-83415238D01*
X188900000Y-83510476D01*
X188947619Y-83558095D01*
X189042857Y-83605714D01*
X189280952Y-83605714D01*
X189376190Y-83558095D01*
X189423809Y-83510476D01*
X189471428Y-83415238D01*
X189471428Y-83224761D01*
X189423809Y-83129523D01*
X189376190Y-83081904D01*
X189280952Y-83034285D01*
X110986666Y-79684761D02*
X111129523Y-79732380D01*
X111367619Y-79732380D01*
X111462857Y-79684761D01*
X111510476Y-79637142D01*
X111558095Y-79541904D01*
X111558095Y-79446666D01*
X111510476Y-79351428D01*
X111462857Y-79303809D01*
X111367619Y-79256190D01*
X111177142Y-79208571D01*
X111081904Y-79160952D01*
X111034285Y-79113333D01*
X110986666Y-79018095D01*
X110986666Y-78922857D01*
X111034285Y-78827619D01*
X111081904Y-78780000D01*
X111177142Y-78732380D01*
X111415238Y-78732380D01*
X111558095Y-78780000D01*
X111891428Y-78732380D02*
X112129523Y-79732380D01*
X112320000Y-79018095D01*
X112510476Y-79732380D01*
X112748571Y-78732380D01*
X113653333Y-79732380D02*
X113081904Y-79732380D01*
X113367619Y-79732380D02*
X113367619Y-78732380D01*
X113272380Y-78875238D01*
X113177142Y-78970476D01*
X113081904Y-79018095D01*
X132576666Y-79684761D02*
X132719523Y-79732380D01*
X132957619Y-79732380D01*
X133052857Y-79684761D01*
X133100476Y-79637142D01*
X133148095Y-79541904D01*
X133148095Y-79446666D01*
X133100476Y-79351428D01*
X133052857Y-79303809D01*
X132957619Y-79256190D01*
X132767142Y-79208571D01*
X132671904Y-79160952D01*
X132624285Y-79113333D01*
X132576666Y-79018095D01*
X132576666Y-78922857D01*
X132624285Y-78827619D01*
X132671904Y-78780000D01*
X132767142Y-78732380D01*
X133005238Y-78732380D01*
X133148095Y-78780000D01*
X133481428Y-78732380D02*
X133719523Y-79732380D01*
X133910000Y-79018095D01*
X134100476Y-79732380D01*
X134338571Y-78732380D01*
X134671904Y-78827619D02*
X134719523Y-78780000D01*
X134814761Y-78732380D01*
X135052857Y-78732380D01*
X135148095Y-78780000D01*
X135195714Y-78827619D01*
X135243333Y-78922857D01*
X135243333Y-79018095D01*
X135195714Y-79160952D01*
X134624285Y-79732380D01*
X135243333Y-79732380D01*
X154166666Y-79684761D02*
X154309523Y-79732380D01*
X154547619Y-79732380D01*
X154642857Y-79684761D01*
X154690476Y-79637142D01*
X154738095Y-79541904D01*
X154738095Y-79446666D01*
X154690476Y-79351428D01*
X154642857Y-79303809D01*
X154547619Y-79256190D01*
X154357142Y-79208571D01*
X154261904Y-79160952D01*
X154214285Y-79113333D01*
X154166666Y-79018095D01*
X154166666Y-78922857D01*
X154214285Y-78827619D01*
X154261904Y-78780000D01*
X154357142Y-78732380D01*
X154595238Y-78732380D01*
X154738095Y-78780000D01*
X155071428Y-78732380D02*
X155309523Y-79732380D01*
X155500000Y-79018095D01*
X155690476Y-79732380D01*
X155928571Y-78732380D01*
X156214285Y-78732380D02*
X156833333Y-78732380D01*
X156500000Y-79113333D01*
X156642857Y-79113333D01*
X156738095Y-79160952D01*
X156785714Y-79208571D01*
X156833333Y-79303809D01*
X156833333Y-79541904D01*
X156785714Y-79637142D01*
X156738095Y-79684761D01*
X156642857Y-79732380D01*
X156357142Y-79732380D01*
X156261904Y-79684761D01*
X156214285Y-79637142D01*
X177026666Y-79684761D02*
X177169523Y-79732380D01*
X177407619Y-79732380D01*
X177502857Y-79684761D01*
X177550476Y-79637142D01*
X177598095Y-79541904D01*
X177598095Y-79446666D01*
X177550476Y-79351428D01*
X177502857Y-79303809D01*
X177407619Y-79256190D01*
X177217142Y-79208571D01*
X177121904Y-79160952D01*
X177074285Y-79113333D01*
X177026666Y-79018095D01*
X177026666Y-78922857D01*
X177074285Y-78827619D01*
X177121904Y-78780000D01*
X177217142Y-78732380D01*
X177455238Y-78732380D01*
X177598095Y-78780000D01*
X177931428Y-78732380D02*
X178169523Y-79732380D01*
X178360000Y-79018095D01*
X178550476Y-79732380D01*
X178788571Y-78732380D01*
X179598095Y-79065714D02*
X179598095Y-79732380D01*
X179360000Y-78684761D02*
X179121904Y-79399047D01*
X179740952Y-79399047D01*
X197496666Y-79684761D02*
X197639523Y-79732380D01*
X197877619Y-79732380D01*
X197972857Y-79684761D01*
X198020476Y-79637142D01*
X198068095Y-79541904D01*
X198068095Y-79446666D01*
X198020476Y-79351428D01*
X197972857Y-79303809D01*
X197877619Y-79256190D01*
X197687142Y-79208571D01*
X197591904Y-79160952D01*
X197544285Y-79113333D01*
X197496666Y-79018095D01*
X197496666Y-78922857D01*
X197544285Y-78827619D01*
X197591904Y-78780000D01*
X197687142Y-78732380D01*
X197925238Y-78732380D01*
X198068095Y-78780000D01*
X198401428Y-78732380D02*
X198639523Y-79732380D01*
X198830000Y-79018095D01*
X199020476Y-79732380D01*
X199258571Y-78732380D01*
X200115714Y-78732380D02*
X199639523Y-78732380D01*
X199591904Y-79208571D01*
X199639523Y-79160952D01*
X199734761Y-79113333D01*
X199972857Y-79113333D01*
X200068095Y-79160952D01*
X200115714Y-79208571D01*
X200163333Y-79303809D01*
X200163333Y-79541904D01*
X200115714Y-79637142D01*
X200068095Y-79684761D01*
X199972857Y-79732380D01*
X199734761Y-79732380D01*
X199639523Y-79684761D01*
X199591904Y-79637142D01*
%LPC*%
D13*
X75170000Y-73820000D03*
X75170000Y-77820000D03*
X75170000Y-79820000D03*
X75170000Y-81820000D03*
X75170000Y-83820000D03*
X75170000Y-85820000D03*
X90170000Y-85820000D03*
X90170000Y-83820000D03*
X90170000Y-81820000D03*
X90170000Y-79820000D03*
X90170000Y-77820000D03*
D14*
X110490000Y-73660000D03*
D15*
X113030000Y-73660000D03*
X134620000Y-73660000D03*
D14*
X132080000Y-73660000D03*
X153670000Y-73660000D03*
D15*
X156210000Y-73660000D03*
X179070000Y-73660000D03*
D14*
X176530000Y-73660000D03*
D16*
X209550000Y-77470000D03*
D17*
X212090000Y-77470000D03*
X209550000Y-80010000D03*
X212090000Y-80010000D03*
X209550000Y-82550000D03*
X212090000Y-82550000D03*
X209550000Y-85090000D03*
X212090000Y-85090000D03*
X209550000Y-87630000D03*
X212090000Y-87630000D03*
X209550000Y-90170000D03*
X212090000Y-90170000D03*
D18*
X99060000Y-88900000D03*
D19*
X99060000Y-78740000D03*
X120650000Y-78740000D03*
D18*
X120650000Y-88900000D03*
X142240000Y-88900000D03*
D19*
X142240000Y-78740000D03*
X163830000Y-78740000D03*
D18*
X163830000Y-88900000D03*
X104140000Y-88900000D03*
D19*
X104140000Y-78740000D03*
D18*
X125730000Y-88900000D03*
D19*
X125730000Y-78740000D03*
X147320000Y-78740000D03*
D18*
X147320000Y-88900000D03*
D19*
X170180000Y-78740000D03*
D18*
X170180000Y-88900000D03*
X191770000Y-88900000D03*
D19*
X191770000Y-78740000D03*
D20*
X115570000Y-81280000D03*
X115570000Y-85780000D03*
X109070000Y-81280000D03*
X109070000Y-85780000D03*
X130660000Y-85780000D03*
X130660000Y-81280000D03*
X137160000Y-85780000D03*
X137160000Y-81280000D03*
X158750000Y-81280000D03*
X158750000Y-85780000D03*
X152250000Y-81280000D03*
X152250000Y-85780000D03*
X175110000Y-85780000D03*
X175110000Y-81280000D03*
X181610000Y-85780000D03*
X181610000Y-81280000D03*
X195580000Y-85780000D03*
X195580000Y-81280000D03*
X202080000Y-85780000D03*
X202080000Y-81280000D03*
M02*
